<svg id="Layer_1" data-name="Layer 1" xmlns="http://www.w3.org/2000/svg" viewBox="0 0 200 200"><defs><style>.cls-1,.cls-2,.cls-3{fill:none;stroke-linecap:round;stroke-miterlimit:10;stroke-width:7.5px;}.cls-1{stroke:#6acce3;}.cls-2{stroke:#121a2c;}.cls-3{stroke:#1a253f;}</style></defs><path class="cls-1" d="M131.23,93.71,102.66,111a5.21,5.21,0,0,1-5.36,0L68.73,93.71"/><path class="cls-1" d="M106.49,33.05l.36-15.65a2.52,2.52,0,0,1,1.35-2.13L112,13.39"/><path class="cls-1" d="M77.74,8.34l14,6.93a2.48,2.48,0,0,1,1.35,2.13l.36,15.65"/><circle class="cls-1" cx="99.98" cy="51.05" r="8.32"/><circle class="cls-2" cx="109.39" cy="184.35" r="8.32"/><circle class="cls-1" cx="138.04" cy="88.19" r="8.32"/><circle class="cls-1" cx="62.02" cy="88.19" r="8.32"/><path class="cls-3" d="M108.5,79.71a45.19,45.19,0,0,1,70.43-12.19,44.91,44.91,0,0,1,11.49,16.63,3.07,3.07,0,0,1-1.29,3.74l-60.2,36.18a5.36,5.36,0,0,0-2.58,4.56v8.2a5.33,5.33,0,0,1-4.11,5.19,17.84,17.84,0,0,0-13.7,17.35v16.68"/><path class="cls-3" d="M91.5,79.71A45.19,45.19,0,0,0,21.07,67.52,44.91,44.91,0,0,0,9.58,84.15a3.07,3.07,0,0,0,1.29,3.74l60.22,36.18a5.36,5.36,0,0,1,2.58,4.56v8.2A5.33,5.33,0,0,0,77.78,142a17.84,17.84,0,0,1,13.7,17.35"/><path class="cls-1" d="M121.11,8.88l3.11-1.55"/><line class="cls-3" x1="91.5" y1="169.77" x2="91.5" y2="174.06"/></svg>