<svg id="Layer_1" data-name="Layer 1" xmlns="http://www.w3.org/2000/svg" viewBox="0 0 200 200"><defs><style>.cls-1,.cls-2{fill:none;stroke-linecap:round;stroke-miterlimit:10;stroke-width:7.5px;}.cls-1{stroke:#736db2;}.cls-2{stroke:#1a2540;}</style></defs><path class="cls-1" d="M130.84,93.78l-28.21,17.06a5.14,5.14,0,0,1-5.3,0L69.12,93.78"/><path class="cls-1" d="M106.41,33.88l.36-15.45a2.43,2.43,0,0,1,1.33-2.1l3.74-1.86"/><path class="cls-1" d="M78,9.49l13.86,6.84a2.42,2.42,0,0,1,1.34,2.1l.35,15.45"/><circle class="cls-1" cx="99.98" cy="51.66" r="8.22"/><circle class="cls-2" cx="108.2" cy="183.3" r="8.22"/><circle class="cls-1" cx="137.57" cy="88.33" r="8.22"/><circle class="cls-1" cx="62.49" cy="88.33" r="8.22"/><path class="cls-2" d="M108.39,80a44.65,44.65,0,0,1,69.55-12A44.38,44.38,0,0,1,189.3,84.35,3,3,0,0,1,188,88l-59.45,35.73a5.3,5.3,0,0,0-2.55,4.51v8.09a5.25,5.25,0,0,1-4.06,5.12,17.64,17.64,0,0,0-13.53,17.14V175.1"/><path class="cls-2" d="M91.61,80a44.65,44.65,0,0,0-69.55-12A44.38,44.38,0,0,0,10.7,84.35,3,3,0,0,0,12,88l59.47,35.73A5.3,5.3,0,0,1,74,128.28v8.09a5.25,5.25,0,0,0,4.06,5.12,17.64,17.64,0,0,1,13.53,17.14"/><path class="cls-1" d="M120.84,10l3.08-1.53"/><line class="cls-2" x1="91.61" y1="168.9" x2="91.61" y2="173.14"/></svg>