<svg id="Layer_1" data-name="Layer 1" xmlns="http://www.w3.org/2000/svg" viewBox="0 0 200 200"><defs><style>.cls-1,.cls-2,.cls-3{fill:none;stroke-miterlimit:2.61;stroke-width:7.5px;}.cls-1,.cls-2{stroke:#e2a825;}.cls-1,.cls-3{stroke-linecap:round;}.cls-3{stroke:#1d5b87;}</style></defs><line class="cls-1" x1="122.47" y1="123.6" x2="90.48" y2="170.3"/><path class="cls-2" d="M95.31,80.36a28.18,28.18,0,1,1-24.46,31.48h0A28.17,28.17,0,0,1,95.3,80.37Z"/><path class="cls-3" d="M161.06,115.53a60.81,60.81,0,0,1-120.63,6.55"/><line class="cls-1" x1="181.5" y1="31.94" x2="123.89" y2="121.17"/><path class="cls-2" d="M162.71,27.65a28.18,28.18,0,1,1-24.45,31.47h0A28.17,28.17,0,0,1,162.7,27.65Z"/><line class="cls-3" x1="39.78" y1="120.35" x2="28.77" y2="137.22"/><line class="cls-1" x1="117.57" y1="27.42" x2="76.82" y2="90.54"/><path class="cls-3" d="M28.54,137.13A60.81,60.81,0,0,1,92.26,34.5"/></svg>