<svg id="Layer_1" data-name="Layer 1" xmlns="http://www.w3.org/2000/svg" viewBox="0 0 200 200"><defs><style>.cls-1{fill:#e4ad24;}.cls-1,.cls-2,.cls-4{fill-rule:evenodd;}.cls-2{fill:#fff;stroke:#151311;stroke-width:0.58px;}.cls-2,.cls-3,.cls-5,.cls-6,.cls-7{stroke-miterlimit:2.61;}.cls-3,.cls-5,.cls-6,.cls-7{fill:none;}.cls-3{stroke:#8a7b2f;}.cls-3,.cls-5,.cls-6{stroke-width:3.51px;}.cls-4{fill:#194f70;}.cls-5{stroke:#3b5dab;}.cls-6{stroke:#1e1813;}.cls-7{stroke:#fff;stroke-width:2.34px;}</style></defs><polygon class="cls-1" points="83.43 79.64 170.72 126.4 115.7 169.6 27.44 121.62 83.43 79.64"/><path class="cls-2" d="M48,103.76c37.37-29.43,31.52-29.9,49.67-19.89l18,10c1.32-1,3.63-3.09,5-3.92a8.41,8.41,0,0,1,5.31-.74,25.09,25.09,0,0,1,2.87,1.36c6.49,4.37,11.11,5.85,17.27,10.93,2.34,2.87-.21,5.49-2.92,7.62,8.28,4.6,16.52,9.22,24.85,13.77,4.31,2.34,5.65,4.74,3.13,7.49-1.41,1.53-37.19,29.37-43.09,34-3.95,3.12-7.09,6.48-11.44,7.1a7.1,7.1,0,0,1-3.71-1c-4.68-2.92-15.84-7.8-27.42-14.47-17.79-10.23-39.78-22.22-51.36-29.13-3.1-1.83-5.94-3.27-7-4.4-2.49-2.65,17.68-16.22,20.87-18.71Zm47.14,16-.83.52c-8.19-4.56-13.18-7.6-19.78-13.18-7.7-6.49-9.16-9.7-10.86-11.23L37.81,116.16c-3.59,2.83-7.37,4.76-4.49,6.35l81.4,45.12c1.84,1,3.07.43,4.74-.88l29.76-23.47c-1.25-.41-3.51-.7-4.93-1-13.87-3.11-26-8.7-37.06-14.84l2.68-2.05a220.46,220.46,0,0,0,21.53,9.77c11.58,4.4,18.21,4.75,20.94,5.64l9.49-7.47c3.66-2.89,8.18-5.33,5-7.13l-80.8-44.8c-1.82-1-3.37-.53-5,.73L66.79,93.35a32.16,32.16,0,0,1,2.55,3.38c5,6.12,15,14.18,23.08,18.6,2.12,1.17,2.79,1.86,4.55,2.88-.62.49-1.26,1-1.87,1.51l-.83.52.83-.52Zm-2.91,2.72a2,2,0,0,1,.28-.37l-.45.34h.17Zm21.31,0-.52.48A2.15,2.15,0,0,0,113.5,122.44Zm-7.65,6.09-1.07.85ZM123.1,92.41l-4.23,3.33,21.26,11.73c2.12-1.67,4.19-4,1.3-5.6l-16.65-9.61a1.27,1.27,0,0,0-1.68.12Z"/><path class="cls-3" d="M105.4,115l7.21,4.51a.48.48,0,0,1,.18.65.52.52,0,0,1-.18.18L101,130a1,1,0,0,1-1.17.1l-7.23-4.5a.51.51,0,0,1-.15-.68.54.54,0,0,1,.15-.15l11.56-9.65A1.06,1.06,0,0,1,105.4,115Z"/><polygon class="cls-4" points="85.04 57.73 172.32 104.49 117.31 147.69 29.05 99.71 85.04 57.73"/><path class="cls-2" d="M48.74,81.66c37.38-29.43,31.53-29.9,49.67-19.89l18,10c1.32-1,3.64-3.09,5-3.92a8.39,8.39,0,0,1,5.31-.74,26.75,26.75,0,0,1,2.86,1.36c6.5,4.38,11.12,5.85,17.27,10.93,2.34,2.88-.2,5.5-2.91,7.63,8.27,4.59,16.52,9.21,24.85,13.76,4.3,2.34,5.65,4.74,3.12,7.48-1.4,1.54-37.19,29.39-43.09,34-3.95,3.12-6.65,5.94-10.93,7.09-4.68.77-27.18-12.87-31.59-15.46-17.79-10.23-39.72-22.22-51.36-29.12-3.1-1.84-5.94-3.28-7-4.4C25.4,97.7,45.57,84.13,48.76,81.64Zm47.15,16-.84.53C86.87,93.58,81.87,90.54,75.27,85c-7.69-6.49-9.16-9.7-10.85-11.23L38.6,94.06c-3.59,2.83-7.37,4.76-4.49,6.35l81.39,45.13c2,.72,2.92.21,4.74-.89L150,121.18c-1.25-.41-3.51-.7-4.91-1-13.89-3.11-26-8.7-37.07-14.84l2.68-2a220.29,220.29,0,0,0,21.52,9.77c11.6,4.4,18.22,4.75,20.94,5.64l9.49-7.47c3.66-2.89,8.19-5.33,5-7.13l-80.8-44.8c-1.81-1-3.38-.53-5,.73L67.58,71.2a33.86,33.86,0,0,1,2.55,3.4c5,6.11,15,14.17,23.08,18.6,2.11,1.17,2.78,1.86,4.55,2.86l-1.87,1.52-.84.53.84-.53ZM93,100.34a2.51,2.51,0,0,1,.27-.37l-.44.34H93Zm21.31,0-.53.48A2.2,2.2,0,0,0,114.29,100.34Zm-7.65,6.06-1.08.86Zm17.24-36.11-4.22,3.32,21.25,11.78c2.12-1.67,4.19-4,1.3-5.6l-16.65-9.63a1.27,1.27,0,0,0-1.68.12Z"/><path class="cls-5" d="M106.18,92.89l7.22,4.51a.46.46,0,0,1,.17.65.49.49,0,0,1-.17.18l-11.57,9.65a1,1,0,0,1-1.17.1l-7.23-4.5a.49.49,0,0,1-.15-.68.43.43,0,0,1,.15-.15L105,93A1.06,1.06,0,0,1,106.18,92.89Z"/><polygon class="cls-1" points="85.04 29.73 172.34 76.49 117.32 119.71 29.05 71.73 85.04 29.73"/><path class="cls-2" d="M48.51,54.31C85.94,24.88,80.09,24.42,98.18,34.42l18,10c1.32-1,3.63-3.09,5-3.92a8.47,8.47,0,0,1,5.31-.73,21.46,21.46,0,0,1,2.87,1.35c6.49,4.38,11.11,5.85,17.27,10.94,2.34,2.86-.2,5.48-2.92,7.63,8.27,4.58,16.52,9.21,24.85,13.76,4.31,2.34,5.65,4.68,3.13,7.48-1.41,1.53-37.19,29.38-43.09,34-4,3.11-5.92,5.76-10.8,7.18-2,.27-2.6-.18-4.35-1.09-4.68-2.92-15.84-7.8-27.42-14.47C68.2,96.3,46.27,84.31,34.63,77.4c-3.1-1.83-5.94-3.27-7-4.39-2.49-2.66,17.68-16.23,20.87-18.72Zm47.14,16-.83.52C86.63,66.24,81.64,63.19,75,57.62c-7.7-6.5-9.16-9.71-10.86-11.23L38.36,66.72c-3.59,2.82-7.37,4.75-4.49,6.34l81.42,45.13c1.85,1,3.07.42,4.68-.89l29.78-23.47c-1.26-.41-3.51-.7-4.92-1-13.88-3.1-26-8.7-37.07-14.83l2.68-2.06A220.29,220.29,0,0,0,132,85.7c11.6,4.4,18.22,4.75,20.94,5.64l9.49-7.47c3.66-2.89,8.19-5.33,5-7.13L86.57,31.94c-1.81-1-3.38-.53-5,.73L67.33,43.9a33.6,33.6,0,0,1,2.55,3.38c5,6.13,15,14.18,23.08,18.6,2.12,1.17,2.79,1.86,4.55,2.88-.62.49-1.26,1-1.87,1.51l-.83.52.83-.52Zm28-27.34-4.23,3.32L140.68,58c2.12-1.67,4.19-4,1.3-5.6l-16.65-9.62a1.25,1.25,0,0,0-1.68.12Z"/><path class="cls-6" d="M105.48,65.6l7.22,4.5a.49.49,0,0,1,.17.66.46.46,0,0,1-.17.17l-11.54,9.63a1.08,1.08,0,0,1-1.17.1l-7.22-4.51a.47.47,0,0,1-.17-.65.42.42,0,0,1,.17-.18l11.56-9.65A1,1,0,0,1,105.48,65.6Z"/><path class="cls-7" d="M105.37,65.54,112.6,70a.51.51,0,0,1,.15.7.54.54,0,0,1-.15.15l-11.53,9.68a1.06,1.06,0,0,1-1.17.11l-7.22-4.51a.48.48,0,0,1-.18-.65.77.77,0,0,1,.18-.18l11.56-9.65A1,1,0,0,1,105.37,65.54Z"/></svg>