<svg id="Layer_1" data-name="Layer 1" xmlns="http://www.w3.org/2000/svg" viewBox="0 0 200 200"><defs><style>.cls-1{fill:#194f70;}.cls-1,.cls-2{fill-rule:evenodd;}.cls-2{fill:#e4ad24;}</style></defs><path class="cls-1" d="M82.07,22V185.81H71V30.21A5.11,5.11,0,0,1,73.21,26l7.08-4.89A1.14,1.14,0,0,1,82.07,22Z"/><path class="cls-1" d="M63.86,35.27V185.81H52.78V42.75a5.23,5.23,0,0,1,2.37-4.37l6.52-4.29A1.42,1.42,0,0,1,63.86,35.27Z"/><path class="cls-1" d="M46.2,47.15V185.81H35.1V54.9a5.48,5.48,0,0,1,2.48-4.59L44.11,46A1.35,1.35,0,0,1,46.2,47.15Z"/><path class="cls-2" d="M164.8,26.74V25a2.55,2.55,0,0,0-2.27-2.54l-9.13-1v0L102,15.22v0l-2.26-.26-2.48-.3h-.13l-3.67-.43a2.55,2.55,0,0,0-2.85,2.54l.31,168.81H102V29.28a2.71,2.71,0,0,1,3-2.69l45,5.46a3.86,3.86,0,0,1,3.38,3.81l.29,148.42H164.8V28.63c0-.13.06-.25.08-.38A5.82,5.82,0,0,0,164.8,26.74Z"/><polygon class="cls-2" points="97.25 14.64 97.24 14.64 97.25 14.64 97.25 14.64"/></svg>