<svg id="Layer_1" data-name="Layer 1" xmlns="http://www.w3.org/2000/svg" viewBox="0 0 200 200"><defs><style>.cls-1,.cls-2{fill:none;stroke-miterlimit:10;stroke-width:3.5px;}.cls-1{stroke:#e3ab24;}.cls-2{stroke:#195473;}</style></defs><path class="cls-1" d="M150.94,90.72H134.71a8.7,8.7,0,0,1,0-17.4h0V55.93a34.8,34.8,0,0,0-69.59,0V73.32a8.7,8.7,0,0,1,0,17.4H48.88"/><path class="cls-1" d="M46.65,90.72A30.16,30.16,0,0,1,46,30.41h.61"/><path class="cls-1" d="M44.75,30.41A9.28,9.28,0,1,0,54,21.13h0"/><path class="cls-1" d="M153.35,90.72a30.16,30.16,0,0,0,.6-60.31h-.6"/><path class="cls-1" d="M154.76,30.41a9.28,9.28,0,1,1-9.28-9.28h0"/><path class="cls-1" d="M124.26,169.59a9.28,9.28,0,1,0-9.29,9.28h0"/><path class="cls-1" d="M7.21,141.75v-2.32h0A39.43,39.43,0,0,1,46.65,100"/><path class="cls-1" d="M75.56,169.59a9.28,9.28,0,1,1,9.28,9.28h0"/><path class="cls-1" d="M80.2,100a39.44,39.44,0,0,0,0,78.87h2.32"/><path class="cls-1" d="M119.63,100a39.44,39.44,0,0,1,0,78.87h-2.32"/><path class="cls-1" d="M119.63,100h33.72a39.44,39.44,0,1,0,0-78.87H151"/><path class="cls-1" d="M80.2,100H46.65a39.44,39.44,0,0,1,0-78.87H49"/><path class="cls-2" d="M112.55,58.75V50.1a2.5,2.5,0,0,0-5,0v8.65a2.5,2.5,0,0,0,5,0Z"/><path class="cls-2" d="M92.44,58.75V50.1a2.5,2.5,0,0,0-5,0h0v8.65a2.5,2.5,0,0,0,5,0Z"/><path class="cls-1" d="M54.79,109.28H46.65a30.15,30.15,0,0,0-30.16,30.14h0"/><path class="cls-1" d="M182.93,137.68a9.28,9.28,0,1,0,9.28,9.28h0"/><path class="cls-1" d="M192.21,141.75v-2.32h0A39.43,39.43,0,0,0,152.78,100"/><path class="cls-1" d="M144.64,109.28h8.13a30.15,30.15,0,0,1,30.16,30.15h0"/><path class="cls-1" d="M80.2,169.59a30.16,30.16,0,1,1-.61-60.31h40a30.16,30.16,0,0,1,0,60.31"/><path class="cls-1" d="M7.47,147h0a9.28,9.28,0,1,0,9.27-9.28"/></svg>