<svg id="Layer_1" data-name="Layer 1" xmlns="http://www.w3.org/2000/svg" viewBox="0 0 200 200"><defs><style>.cls-1,.cls-2{fill:#194f70;stroke:#194f70;}.cls-1,.cls-2,.cls-3,.cls-4{stroke-miterlimit:2.61;fill-rule:evenodd;}.cls-1{stroke-width:3.11px;}.cls-2{stroke-width:5.18px;}.cls-3,.cls-4{fill:#e4ad24;stroke-width:2.07px;}.cls-3{stroke:#e4ad24;}.cls-4{stroke:#e4ad25;}</style></defs><path class="cls-1" d="M121.19,87.6l-4.06-.49c-1.23,3.75-15.89,38.21-17.62,42.27-3,7-5.83,14-8.78,20.94s-6.3,14.14-7.46,22.8a83.11,83.11,0,0,0,6.16-9.44c3.41-7.12,10.19-24.37,13.59-32.45,3-7.23,6.1-14.36,9.07-21.64C113.53,106.13,120.8,89.58,121.19,87.6Z"/><path class="cls-1" d="M103.24,73.46l-.49-4.2L60.29,89.17C53.1,92.45,46.15,96,38.92,99.25c-12.08,5.48-8.12,3.36-17.48,9.81-.66.45-1.63,1.3-2.24,1.63a75.6,75.6,0,0,0,11.56-3.22L92.71,78.33C96,76.8,100.15,74.47,103.24,73.46Z"/><path class="cls-2" d="M132.9,54.54c.6.69,2.21,2.31,2.89,2.93L144,49c2.84-3,8.92-7.77,5.3-9.3-1.94-.8-4.46,2.89-6.35,4.83-.76.76-1.4,1.17-2.17,1.94C138.4,48.73,135.23,52.79,132.9,54.54Z"/><path class="cls-3" d="M173.56,136.37c-1.42-5.42,6.41-6.78,7.63-2.29C182.72,139.75,174.78,141,173.56,136.37ZM39.74,25.77c5-2.53,7.61,5.55,3,7.24a3.92,3.92,0,1,1-3-7.24ZM34.57,34C34,35,33,36,32.16,37.13s-1.42,1.94-2.25,3.21A88.61,88.61,0,0,0,15.65,103c9.21,62.16,79,96.76,135.53,61.68a70.71,70.71,0,0,0,6.58-4.69c4.3-3.47,14.57-12.76,16.59-17.17,12,2.2,13.29-9.83,8-13.73a7.94,7.94,0,0,0-10.58.58c-3.46,3.4-2.68,6.72-.64,10.8a84,84,0,0,1-12.67,13.77,94,94,0,0,1-9.36,7,84.87,84.87,0,0,1-30.87,12.14C92,177.77,67.2,169.67,51.45,157c-17-13.75-28.15-31.08-31.78-53.94A84.75,84.75,0,0,1,32.92,43a75.75,75.75,0,0,0,4.49-6.45c2.42.46,3.57,1.18,6.15.39A8,8,0,1,0,38.9,21.66a8.17,8.17,0,0,0-2.68,1.43,7.76,7.76,0,0,0-2.74,4.46c-.64,3.4.41,4,1.15,6.43Z"/><path class="cls-4" d="M107,71.92a14.48,14.48,0,1,1,17.07,11.3l-.15,0A14.5,14.5,0,0,1,107,71.92Zm-4.29-2.66.49,4.2a41.41,41.41,0,0,0,1.94,4.62,24.53,24.53,0,0,0,3,4.12c2.56,2.52,5,3.28,8.93,4.91l4.06.49c4.53-.82,6.3-.7,10-3a17.47,17.47,0,0,0,6.25-6.69,19.3,19.3,0,0,0,2.14-10.76c-.52-5.2-2.16-6.17-3.77-9.71-.68-.62-2.29-2.23-2.89-2.93-3.09-1.48-4.31-3.17-9.31-3.89C113.36,49.41,103.35,56.44,102.75,69.26Z"/></svg>