<svg id="Layer_1" data-name="Layer 1" xmlns="http://www.w3.org/2000/svg" viewBox="0 0 200 200"><defs><style>.cls-1{fill:#165372;stroke-width:1.87px;fill-rule:evenodd;}.cls-1,.cls-3{stroke:#165372;}.cls-1,.cls-2,.cls-3{stroke-miterlimit:2.61;}.cls-2,.cls-3{fill:none;}.cls-2{stroke:#b0b0b1;stroke-width:2.5px;}.cls-3{stroke-width:3.74px;}</style></defs><path class="cls-1" d="M103.54,117.85c-.69,2.22.34,2.38,2.42,4a313.91,313.91,0,0,0,31.15,21.44c12,7.21,28,14.76,40.55,14,20-1.18,7.49-17.83-.44-26.52a90,90,0,0,0-35.81-23.95c-37.82-13.3-72.26,8.72-99.46,30.67C36.29,142,6.31,164.71,12.37,173.17S62.23,131,76.94,122.35a170.7,170.7,0,0,1,15.7-8c11.09-4.24,22.89-6.55,34.78-5.16,13.78,1.64,28.8,8.7,40.19,17.71,6.8,5.38,28,24.94,11.83,27.47-17,2.67-44.48-14.73-59.23-25C117.24,127.26,106.08,117.59,103.54,117.85Z"/><path class="cls-2" d="M93.21,122.2c-10.6,17.15-11,106.86,2.94,16.62a1.36,1.36,0,0,1,2.69,0c3.64,27.58-12.88,70.85-20.65,43.23C73.68,166,82.71,128.6,91,120.39A1.46,1.46,0,0,1,93.21,122.2Z"/><path class="cls-2" d="M89.33,92.3C76.67,63.08,99-60.91,97,90.78a2.68,2.68,0,0,0,4.88,1.57c18.61-27.77,6.13-105.84-15.71-77-9.94,20.83-9.14,68.1-.77,79.27A2.3,2.3,0,0,0,89.33,92.3Z"/><path class="cls-2" d="M82.36,104.27c-18,4.3-105.08-33.53-14.64-9.12a1.3,1.3,0,0,0,1-2.35C45.13,78.12-1.68,75.57,20.55,94,34,105,74.74,112.09,83.39,106.61A1.3,1.3,0,0,0,82.36,104.27Z"/><circle class="cls-3" cx="122.36" cy="86.15" r="8.59"/></svg>