<svg id="Layer_1" data-name="Layer 1" xmlns="http://www.w3.org/2000/svg" viewBox="0 0 200 200"><defs><style>.cls-1{fill:#165372;stroke-width:1.87px;fill-rule:evenodd;}.cls-1,.cls-3{stroke:#165372;}.cls-1,.cls-2,.cls-3{stroke-miterlimit:2.61;}.cls-2,.cls-3{fill:none;}.cls-2{stroke:#e3aa24;stroke-width:2.5px;}.cls-3{stroke-width:3.74px;}</style></defs><path class="cls-1" d="M108.85,116.57c-.69,2.22.34,2.38,2.43,4A314.44,314.44,0,0,0,142.43,142c12,7.2,28,14.76,40.55,14,20-1.17,7.48-17.82-.44-26.51a89.89,89.89,0,0,0-35.82-23.95c-37.82-13.31-72.25,8.72-99.46,30.66-5.66,4.56-35.63,27.23-29.58,35.69,6,8.31,49.87-42.17,64.57-50.81A170.7,170.7,0,0,1,98,113c11.09-4.24,22.89-6.55,34.79-5.16,13.78,1.64,28.8,8.69,40.19,17.7,6.8,5.38,28,24.95,11.82,27.48-17,2.66-44.47-14.73-59.22-25C122.55,126,111.4,116.31,108.85,116.57Z"/><path class="cls-2" d="M98.52,120.92c-10.59,17.15-11,106.85,3,16.62a1.36,1.36,0,0,1,2.69,0c3.64,27.58-12.88,70.85-20.65,43.22-4.51-16,4.51-53.46,12.76-61.66A1.45,1.45,0,0,1,98.52,120.92Z"/><path class="cls-2" d="M94.65,91C82,61.8,104.36-62.19,102.32,89.5a2.68,2.68,0,0,0,4.88,1.57c18.61-27.77,6.14-105.85-15.7-77-10,20.82-9.15,68.1-.77,79.26A2.3,2.3,0,0,0,94.65,91Z"/><path class="cls-2" d="M87.68,103c-18,4.3-105.08-33.54-14.65-9.12a1.3,1.3,0,0,0,1-2.36C50.44,76.84,3.63,74.28,25.86,92.68c13.41,11.08,54.2,18.13,62.84,12.65A1.3,1.3,0,0,0,87.68,103Z"/><circle class="cls-3" cx="127.67" cy="84.87" r="8.59"/></svg>