<svg id="Layer_1" data-name="Layer 1" xmlns="http://www.w3.org/2000/svg" viewBox="0 0 200 200"><defs><style>.cls-1{fill:none;stroke:#3d3d3c;stroke-linecap:round;stroke-miterlimit:10;stroke-width:7.25px;}.cls-2{fill:#f6dba9;}.cls-3{fill:#e3a924;}</style></defs><path class="cls-1" d="M120.57,147.48v13.89a1.64,1.64,0,0,0,.48,1.12L140,181.44a1.64,1.64,0,0,0,2.3,0l39.51-39.52a1.63,1.63,0,0,0,.48-1.15V100.34a82.28,82.28,0,0,0-164.56,0h0V140.8A1.64,1.64,0,0,0,18.2,142l39.51,39.51a1.62,1.62,0,0,0,2.3,0L79,162.52a1.64,1.64,0,0,0,.48-1.12V147.48"/><line class="cls-1" x1="100" y1="18.06" x2="100" y2="28.34"/><line class="cls-1" x1="17.72" y1="100.34" x2="28.01" y2="100.34"/><line class="cls-1" x1="182.28" y1="100.34" x2="171.99" y2="100.34"/><circle class="cls-2" cx="100.34" cy="100" r="51.76"/><circle class="cls-3" cx="100.34" cy="100" r="33.01"/><circle class="cls-1" cx="100" cy="100.34" r="51.42"/></svg>