<svg id="Layer_1" data-name="Layer 1" xmlns="http://www.w3.org/2000/svg" viewBox="0 0 200 200"><defs><style>.cls-1{fill:#e4ad24;fill-rule:evenodd;}</style></defs><path class="cls-1" d="M167.78,65.18c-1.58,7.81-2.19,11.1-6.4,18.51-3.75,6.58-8.31,8.35-16,8.61-6.56.25-17.08-.3-21.22-3.36-6.38-4.63-15.44-30.55-7.32-36.48,8.84-6.52,30.71-5.85,41.91-2.33,7.48,2.35,11.12,5.18,9.14,15.05ZM86.44,61.29C85.57,69,85.08,74,81.61,81.3,78.48,88,75.37,90.78,66.88,91.75c-7.72.9-15.27,1.17-21.87-1.48-8.43-3.4-16.48-29.48-11.79-35.46,6.1-7.78,30.6-8.52,41.27-6C81.37,50.46,87.39,52.83,86.44,61.29ZM145.75,42.9c-4-.35-14.8.51-15.9.6a43,43,0,0,0-11.09,2.77A21,21,0,0,0,113,49.7c-2.56,2.3-2.17,3-3.16,4.88a2.11,2.11,0,0,1-.48.73c-1.45.65-15.91.34-18.64.21-1.41-2.7-.77-3.18-3.29-5.55-3.66-3.54-10.34-5.45-15.25-6.24l-2.85-.43c-.3-.06-19.32.43-20.85.57A46.82,46.82,0,0,0,35.3,47.72c-5.83,2.9-8.32,6.19-8,14.63C27.63,72.43,34.21,89,41.17,93.4c8.19,5.2,29.25,4.52,37.14-.52,3.76-2.38,7.35-8.84,9-13.65a61.6,61.6,0,0,0,3.77-18.88c.46-.11,16.83-.58,17.58.18a18.6,18.6,0,0,1,.62,4.7,54.65,54.65,0,0,0,3.32,13.63c2,5,4.69,10.88,8.84,13.79,7.46,5.31,29.44,6,37.8.57,7.08-4.63,13.37-21.22,13.5-31.93.08-8-2.74-11.36-8.74-14C161.23,46.17,150.43,43.3,145.75,42.9Z"/><path class="cls-1" d="M41.69,149.7c.32-.34.09-.2.62-.52l.47-.21a8.71,8.71,0,0,0,1.12-.28C70.51,142.23,71.78,125.35,87,125.6c7.89.13,9.58,5.56,11.71,8.53a1.57,1.57,0,0,0,2.57,0,56.35,56.35,0,0,1,3.67-5.36,11.9,11.9,0,0,1,8.57-3.16c7.41,0,11.59,4.35,15.34,7.69,6.56,5.85,12,10.41,21.07,13.56,1.47.51,2.73.87,4.35,1.36h.05a1.56,1.56,0,0,1,.14,3.05,49.86,49.86,0,0,1-11.59,1.27c-11.16,0-20.25-2.7-30.27-6.5-16.84-6.4-8.09-8.26-18.71-2.89-2.11,1.07-4.16,1.95-6.39,2.85a114,114,0,0,1-14,4.42c-8.12,2.14-25.34,3.64-31.83-.72Zm-10.58-4a1.56,1.56,0,0,0-.9,2.77h0c17.49,14.15,42.31,8.45,61.32.78,14.64-5.92.88-5.52,24.42,2.92,15.08,5.39,35,7.69,49.4-.57a31.58,31.58,0,0,0,4.43-2.94,1.55,1.55,0,0,0-.91-2.75c-32.37-1.89-35.6-20.69-49.95-24.19a18.38,18.38,0,0,0-15.44,2.33,16.29,16.29,0,0,0-2.54,2.37c-.64.53-.3.44-1.19.64C98.27,126,98,124,92.15,121.88a19.83,19.83,0,0,0-11.37,0c-12.38,3.66-13,13.21-31.33,20.28C42.71,144.76,38.21,145.29,31.11,145.73Z"/></svg>