<?xml version="1.0" encoding="utf-8"?>
<!-- Generator: Adobe Illustrator 24.1.1, SVG Export Plug-In . SVG Version: 6.00 Build 0)  -->
<svg version="1.1" id="Layer_1" xmlns="http://www.w3.org/2000/svg" xmlns:xlink="http://www.w3.org/1999/xlink" x="0px" y="0px"
	 viewBox="0 0 1500 1500" style="enable-background:new 0 0 1500 1500;" xml:space="preserve">
<style type="text/css">
	.st0{fill:none;stroke:#E2A625;stroke-width:20;stroke-miterlimit:10;}
	.st1{fill:none;stroke:#528BAE;stroke-width:20;stroke-linecap:round;stroke-miterlimit:10;}
</style>
<g>
	<circle class="st0" cx="538.2" cy="1115.4" r="34.9"/>
	<circle class="st0" cx="618" cy="1273.5" r="34.9"/>
	<circle class="st0" cx="880.1" cy="1272.3" r="34.9"/>
	<circle class="st0" cx="962.5" cy="1115.7" r="34.9"/>
	<circle class="st0" cx="983" cy="975.7" r="34.9"/>
	<path class="st0" d="M563.5,1090.1l65.9-65.9c1.2-1.2,1.9-2.9,1.9-4.7V745"/>
	<circle class="st0" cx="325.3" cy="940.9" r="34.9"/>
	<path class="st0" d="M353.1,913l63.4-63.4c1.2-1.2,2.9-1.9,4.7-1.9H517"/>
	<circle class="st0" cx="1174.7" cy="940.9" r="34.9"/>
	<path class="st0" d="M1146.9,913l-63.4-63.4c-1.2-1.2-2.9-1.9-4.7-1.9H983"/>
	<path class="st0" d="M933.6,1086.8l-63-63c-1.2-1.2-1.9-2.9-1.9-4.7V745.6"/>
	<path class="st0" d="M644.2,1247.3l63.1-63.1c1.2-1.2,1.9-2.9,1.9-4.7V745.6"/>
	<path class="st0" d="M852.9,1245.1l-60.9-60.9c-1.2-1.2-1.9-2.9-1.9-4.7V745.6"/>
	<line class="st0" x1="983" y1="745.6" x2="983" y2="940.9"/>
	<circle class="st0" cx="517" cy="975.7" r="34.9"/>
	<line class="st0" x1="517" y1="745.6" x2="517" y2="940.9"/>
	<path class="st1" d="M1018.6,460.3c0-55-44.6-99.6-99.6-99.6c-55,0-99.6,44.6-99.6,99.6"/>
	<path class="st1" d="M869.1,370.1c0-68.8-55.8-124.6-124.6-124.6S620,301.3,620,370.1"/>
	<path class="st1" d="M918.9,460.3h99.6c55,0,99.6,44.6,99.6,99.6"/>
	<path class="st1" d="M470.5,460.3c0-55,44.6-99.6,99.6-99.6c55,0,99.6,44.6,99.6,99.6"/>
	<path class="st1" d="M721.9,331.1c0,25-20.3,45.2-45.2,45.2"/>
	<path class="st1" d="M827.2,700.2c0,27.5-22.3,49.8-49.8,49.8"/>
	<path class="st1" d="M812.4,376.3c-25,0-45.2-20.3-45.2-45.2"/>
	<path class="st1" d="M726.2,750c-27.5,0-49.8-22.3-49.8-49.8"/>
	<path class="st1" d="M1068.4,597.2c27.5,0,49.8,22.3,49.8,49.8"/>
	<path class="st1" d="M370.9,647c0-27.5,22.3-49.8,49.8-49.8"/>
	<path class="st1" d="M570.2,460.3h-99.6c-55,0-99.6,44.6-99.6,99.6"/>
	<path class="st1" d="M570.2,696.9V647h-49.8c-27.5,0-49.8-22.3-49.8-49.8"/>
	<path class="st1" d="M918.9,696.9V647h49.8c27.5,0,49.8-22.3,49.8-49.8"/>
	<path class="st1" d="M620,460.3v49.8c0,27.5,22.3,49.8,49.8,49.8"/>
	<path class="st1" d="M869.1,460.3v49.8c0,27.5-22.3,49.8-49.8,49.8"/>
	<line class="st1" x1="470.5" y1="497.6" x2="470.5" y2="547.4"/>
	<line class="st1" x1="1018.6" y1="497.6" x2="1018.6" y2="547.4"/>
	<path class="st1" d="M420.7,746.7c-55,0-99.6-44.6-99.6-99.6c0-55,44.6-99.6,99.6-99.6"/>
	<path class="st1" d="M1068.4,547.4c55,0,99.6,44.6,99.6,99.6c0,55-44.6,99.6-99.6,99.6"/>
	<line class="st1" x1="644.2" y1="746.7" x2="420.7" y2="746.7"/>
	<line class="st1" x1="1068.4" y1="746.7" x2="854.7" y2="746.7"/>
</g>
</svg>
