<?xml version="1.0" encoding="utf-8"?>
<!-- Generator: Adobe Illustrator 24.1.1, SVG Export Plug-In . SVG Version: 6.00 Build 0)  -->
<svg version="1.1" id="Layer_1" xmlns="http://www.w3.org/2000/svg" xmlns:xlink="http://www.w3.org/1999/xlink" x="0px" y="0px"
	 viewBox="0 0 1500 1500" style="enable-background:new 0 0 1500 1500;" xml:space="preserve">
<style type="text/css">
	.st0{fill:none;stroke:#E2A725;stroke-width:20;stroke-miterlimit:10;}
	.st1{fill:none;stroke:#538CAE;stroke-width:20;stroke-linecap:round;stroke-miterlimit:10;}
</style>
<circle class="st0" cx="1206.2" cy="1055.1" r="34.2"/>
<circle class="st0" cx="1341.3" cy="984.8" r="34.2"/>
<circle class="st0" cx="1340.1" cy="738.2" r="34.2"/>
<circle class="st0" cx="1206.9" cy="666" r="34.2"/>
<polyline class="st0" points="1178.9,1027.8 1114.7,963.6 1026.2,963.6 "/>
<polyline class="st0" points="1181.6,691.3 1114.7,758.2 1026.2,758.2 "/>
<polyline class="st0" points="1315,958.5 1251.6,895.1 1026.2,895.1 "/>
<polyline class="st0" points="1313.6,764.8 1251.6,826.7 1026.2,826.7 "/>
<circle class="st0" cx="293.8" cy="666" r="34.2"/>
<circle class="st0" cx="158.7" cy="736.4" r="34.2"/>
<circle class="st0" cx="159.9" cy="982.9" r="34.2"/>
<circle class="st0" cx="293.1" cy="1055.1" r="34.2"/>
<polyline class="st0" points="319.9,692.2 385.3,757.5 473.8,757.5 "/>
<polyline class="st0" points="320.7,1027.5 385.3,962.9 473.8,962.9 "/>
<polyline class="st0" points="182.9,760.6 248.4,826 473.8,826 "/>
<polyline class="st0" points="184.1,958.7 248.4,894.5 473.8,894.5 "/>
<path class="st1" d="M948.9,1082.6H551.1c-42.7,0-77.3-34.6-77.3-77.3V715.8c0-42.7,34.6-77.3,77.3-77.3h397.9
	c42.7,0,77.3,34.6,77.3,77.3v289.5C1026.2,1048,991.6,1082.6,948.9,1082.6z"/>
<path class="st1" d="M560.7,638.6V532.4c0-104.6,84.8-189.3,189.3-189.3s189.3,84.8,189.3,189.3v106.1"/>
<path class="st1" d="M811.8,808.6c0-34.2-27.7-61.8-61.8-61.8c-34.2,0-61.8,27.7-61.8,61.8c0,21.4,10.9,40.3,27.4,51.4v114.3h68.8
	V860C801,848.9,811.8,830.1,811.8,808.6z"/>
</svg>
