<?xml version="1.0" encoding="utf-8"?>
<!-- Generator: Adobe Illustrator 24.2.1, SVG Export Plug-In . SVG Version: 6.00 Build 0)  -->
<svg version="1.1" id="Layer_1" xmlns="http://www.w3.org/2000/svg" xmlns:xlink="http://www.w3.org/1999/xlink" x="0px" y="0px"
	 viewBox="0 0 1500 1500" style="enable-background:new 0 0 1500 1500;" xml:space="preserve">
<style type="text/css">
	.st0{fill:none;stroke:#538CAE;stroke-width:20;stroke-linecap:round;stroke-miterlimit:10;}
	.st1{fill:none;stroke:#E2A725;stroke-width:20;stroke-linecap:round;stroke-miterlimit:10;}
</style>
<path class="st0" d="M574.2,1035l-154.5-0.8c-10.9-0.1-19.7-10.6-19.6-23.5l2-568c0-12.9,8.9-23.4,19.8-23.3l154.5,0.8
	c10.9,0.1,19.7,10.6,19.6,23.5l-2,568C593.9,1024.6,585.1,1035.1,574.2,1035z"/>
<line class="st0" x1="499.1" y1="419.8" x2="499.6" y2="293.2"/>
<line class="st0" x1="496.5" y1="1161.3" x2="496.9" y2="1034.7"/>
<path class="st0" d="M1076.7,844.2l-151.3-0.6c-11.8,0-21.3-9.1-21.2-20.3l1.8-413.9c0-11.1,9.6-20.1,21.4-20.1l151.3,0.6
	c11.8,0,21.3,9.1,21.2,20.3l-1.8,413.9C1098,835.3,1088.5,844.3,1076.7,844.2z"/>
<line class="st0" x1="1003.1" y1="389.6" x2="1003.5" y2="296.1"/>
<line class="st0" x1="1000.6" y1="937.4" x2="1001.1" y2="843.9"/>
<path class="st1" d="M826.6,1128.8l-154.5-0.7c-10.9,0-19.7-9.4-19.6-20.9l1.3-338.7c0-11.5,8.9-20.8,19.8-20.8l154.5,0.7
	c10.9,0,19.7,9.4,19.6,20.9l-1.3,338.7C846.3,1119.5,837.4,1128.8,826.6,1128.8z"/>
<line class="st1" x1="750.8" y1="748" x2="751.1" y2="669.7"/>
<line class="st1" x1="749" y1="1206.8" x2="749.3" y2="1128.4"/>
</svg>
