<?xml version="1.0" encoding="utf-8"?>
<!-- Generator: Adobe Illustrator 24.1.1, SVG Export Plug-In . SVG Version: 6.00 Build 0)  -->
<svg version="1.1" id="Layer_1" xmlns="http://www.w3.org/2000/svg" xmlns:xlink="http://www.w3.org/1999/xlink" x="0px" y="0px"
	 viewBox="0 0 1500 1500" style="enable-background:new 0 0 1500 1500;" xml:space="preserve">
<style type="text/css">
	.st0{fill:none;stroke:#538CAE;stroke-width:20;stroke-linecap:round;stroke-miterlimit:10;}
	.st1{fill:none;stroke:#E2A725;stroke-width:20;stroke-linecap:round;stroke-miterlimit:10;}
</style>
<path class="st0" d="M1050.7,521.9c0-60.4-48.9-109.3-109.3-109.3c-60.4,0-109.3,48.9-109.3,109.3"/>
<path class="st0" d="M886.7,423c0-75.5-61.2-136.7-136.7-136.7S613.3,347.5,613.3,423"/>
<path class="st0" d="M941.3,521.9h109.3c60.4,0,109.3,48.9,109.3,109.3"/>
<path class="st0" d="M449.3,521.9c0-60.4,48.9-109.3,109.3-109.3S668,461.6,668,521.9"/>
<path class="st0" d="M725.2,380.1c0,27.4-22.2,49.6-49.6,49.6"/>
<path class="st0" d="M840.7,836.1c0,30.2-24.5,54.7-54.7,54.7"/>
<path class="st0" d="M824.4,429.7c-27.4,0-49.6-22.2-49.6-49.6"/>
<path class="st0" d="M729.9,890.8c-30.2,0-54.7-24.5-54.7-54.7"/>
<path class="st0" d="M1105.3,672.1c30.2,0,54.7,24.5,54.7,54.7"/>
<path class="st0" d="M340,726.8c0-30.2,24.5-54.7,54.7-54.7"/>
<path class="st0" d="M558.7,521.9H449.3C389,521.9,340,570.9,340,631.3"/>
<path class="st0" d="M558.7,781.5v-54.7H504c-30.2,0-54.7-24.5-54.7-54.7"/>
<path class="st0" d="M941.3,781.5v-54.7H996c30.2,0,54.7-24.5,54.7-54.7"/>
<path class="st0" d="M613.3,521.9v54.7c0,30.2,24.5,54.7,54.7,54.7"/>
<path class="st0" d="M886.7,521.9v54.7c0,30.2-24.5,54.7-54.7,54.7"/>
<line class="st0" x1="449.3" y1="562.8" x2="449.3" y2="617.5"/>
<line class="st0" x1="1050.7" y1="562.8" x2="1050.7" y2="617.5"/>
<path class="st1" d="M1132.7,836.1h-228c-7.2,0-13.5,5.4-14.2,12.6c-6.4,69.2-64.5,123.3-135.3,123.3c-70.8,0-129-54.2-135.3-123.3
	c-0.7-7.2-6.9-12.6-14.2-12.6h-228v58.6c0,5.2,4.2,9.4,9.4,9.4l98.2,0c4.2,0,7.8,2.8,8.9,6.8c5.7,20,13.7,39.1,23.6,57
	c2,3.7,1.5,8.2-1.5,11.1l-69.4,69.4c-3.7,3.7-3.7,9.6,0,13.3l82.8,82.8c3.7,3.7,9.6,3.7,13.3,0l69.4-69.4c3-3,7.5-3.5,11.1-1.5
	c17.9,9.9,36.9,17.9,57,23.6c4,1.1,6.8,4.7,6.8,8.9l0,98.2c0,5.2,4.2,9.4,9.4,9.4h117.2c5.2,0,9.4-4.2,9.4-9.4l0-98.2
	c0-4.2,2.8-7.8,6.8-8.9c20-5.7,39.1-13.7,57-23.6c3.7-2,8.2-1.5,11.1,1.5l69.4,69.4c3.7,3.7,9.6,3.7,13.3,0l82.8-82.8
	c3.7-3.7,3.7-9.6,0-13.3L994.1,979c-3-3-3.5-7.5-1.5-11.1c9.9-17.9,17.9-36.9,23.6-57c1.1-4,4.7-6.8,8.9-6.8l98.2,0
	c5.2,0,9.4-4.2,9.4-9.4V836.1z"/>
<path class="st0" d="M394.7,836.1c-60.4,0-109.3-48.9-109.3-109.3c0-60.4,48.9-109.3,109.3-109.3"/>
<path class="st0" d="M1105.3,617.5c60.4,0,109.3,48.9,109.3,109.3c0,60.4-48.9,109.3-109.3,109.3"/>
<line class="st0" x1="619.2" y1="836.1" x2="394.7" y2="836.1"/>
<line class="st0" x1="1105.3" y1="836.1" x2="891" y2="836.1"/>
</svg>
