<?xml version="1.0" encoding="utf-8"?>
<!-- Generator: Adobe Illustrator 24.1.1, SVG Export Plug-In . SVG Version: 6.00 Build 0)  -->
<svg version="1.1" id="Layer_1" xmlns="http://www.w3.org/2000/svg" xmlns:xlink="http://www.w3.org/1999/xlink" x="0px" y="0px"
	 viewBox="0 0 1500 1500" style="enable-background:new 0 0 1500 1500;" xml:space="preserve">
<style type="text/css">
	.st0{fill:none;stroke:#538CAE;stroke-width:20;stroke-linecap:round;stroke-miterlimit:10;}
	.st1{fill:none;stroke:#E2A725;stroke-width:20;stroke-miterlimit:10;}
</style>
<path class="st0" d="M706.6,535.2h424.8c62.5,0,113.1,50.7,113.1,113.1V915c0,62.5-50.7,113.1-113.1,113.1H769.8l-130.2,112.6
	c-1.3,1.3-3.4,0.3-3.4-1.4l2-111.1c-62.5,0-113.1-50.7-113.1-113.1"/>
<line class="st0" x1="858" y1="782.8" x2="1096.8" y2="782.8"/>
<line class="st0" x1="858" y1="855.3" x2="1096.8" y2="855.3"/>
<line class="st0" x1="858" y1="710.3" x2="972.5" y2="710.3"/>
<path class="st1" d="M806.3,674.4v-80.5c0-5.2-4.2-9.3-9.3-9.3h-67.3c-4.2,0-7.7-2.8-8.9-6.8c-3.9-13.3-9.2-26.1-15.8-38.1
	c-2-3.7-1.4-8.1,1.5-11.1l47.5-47.5c3.6-3.6,3.6-9.6,0-13.2l-56.9-56.9c-3.6-3.6-9.6-3.6-13.2,0l-47.5,47.5
	c-2.9,2.9-7.4,3.5-11.1,1.5c-12-6.5-24.8-11.8-38.1-15.8c-4-1.2-6.8-4.7-6.8-8.9v-67.3c0-5.2-4.2-9.3-9.3-9.3h-80.5
	c-5.2,0-9.3,4.2-9.3,9.3v67.3c0,4.2-2.8,7.7-6.8,8.9c-13.3,3.9-26.1,9.2-38.1,15.8c-3.7,2-8.1,1.4-11.1-1.5l-47.5-47.5
	c-3.6-3.6-9.6-3.6-13.2,0l-56.9,56.9c-3.6,3.6-3.6,9.6,0,13.2l47.5,47.5c2.9,2.9,3.5,7.4,1.5,11.1c-6.5,12-11.8,24.8-15.8,38.1
	c-1.2,4-4.7,6.8-8.9,6.8h-67.3c-5.2,0-9.3,4.2-9.3,9.3v80.5c0,5.2,4.2,9.3,9.3,9.3h67.3c4.2,0,7.7,2.8,8.9,6.8
	c3.9,13.3,9.2,26.1,15.8,38.1c2,3.7,1.4,8.1-1.5,11.1l-47.5,47.5c-3.6,3.6-3.6,9.6,0,13.2l56.9,56.9c3.6,3.6,9.6,3.6,13.2,0
	l47.5-47.5c2.9-2.9,7.4-3.5,11.1-1.5c12,6.5,24.8,11.8,38.1,15.8c4,1.2,6.8,4.7,6.8,8.9v67.3c0,5.2,4.2,9.3,9.3,9.3h80.5
	c5.2,0,9.3-4.2,9.3-9.3V833c0-4.2,2.8-7.7,6.8-8.9c13.3-3.9,26.1-9.2,38.1-15.8c3.7-2,8.1-1.4,11.1,1.5l47.5,47.5
	c3.6,3.6,9.6,3.6,13.2,0l56.9-56.9c3.6-3.6,3.6-9.6,0-13.2l-47.5-47.5c-2.9-2.9-3.5-7.4-1.5-11.1c6.5-12,11.8-24.8,15.8-38.1
	c1.2-4,4.7-6.8,8.9-6.8H797C802.1,683.7,806.3,679.5,806.3,674.4z M530.9,733.3c-54.8,0-99.1-44.4-99.1-99.1
	c0-54.8,44.4-99.1,99.1-99.1s99.1,44.4,99.1,99.1C630.1,688.9,585.7,733.3,530.9,733.3z"/>
</svg>
