<?xml version="1.0" encoding="utf-8"?>
<!-- Generator: Adobe Illustrator 24.1.1, SVG Export Plug-In . SVG Version: 6.00 Build 0)  -->
<svg version="1.1" id="Layer_1" xmlns="http://www.w3.org/2000/svg" xmlns:xlink="http://www.w3.org/1999/xlink" x="0px" y="0px"
	 viewBox="0 0 633 265" style="enable-background:new 0 0 633 265;" xml:space="preserve">
<style type="text/css">
	.st0{fill:#E4A804;}
	.st1{fill:#FFFFFF;}
</style>
<g>
	<path class="st0" d="M167.9,133.6c0.8-0.9,1.2-2,1.1-3.1c-0.1-2.3-0.1-4.2-0.1-5.9l-0.1-12.8c-0.1-5.3-0.1-10.6-0.2-15.8
		c0-0.6,0.1-0.7,0.6-0.8c2.9-0.8,5.4-2.4,7.4-4.7c6.1-6.7,5.6-17.2-1.2-23.2c-6.7-6.1-17.2-5.6-23.2,1.2s-5.6,17.2,1.2,23.2
		c1.6,1.4,3.4,2.5,5.3,3.2l0.8,0.2c0.4,0,0.7,0.2,1,0.4c0.2,0.5,0.2,1,0.1,1.5v0.7l0.1,7.1c0.1,6.4,0.1,16.8,0.3,23.3
		c0,0.8-0.3,1.7-0.8,2.3c-8.2,9.7-35.5,38.4-35.5,38.4v-20.4c0-0.3,0-0.3,0.4-0.4c8.8-2.5,13.8-11.6,11.3-20.4
		c-2.3-8-10.1-13-18.3-11.8c-7.6,1.3-13.5,7.5-13.9,14.8c-0.5,8.3,4.2,15,11.9,17.3c0.5,0.1,0.6,0.2,0.6,0.8v29
		c0,0.4-0.2,0.8-0.4,1.1c-7.9,9.4-15.8,18.8-23.6,28.2l-10.7,12.8V119.2c0-0.4,0.1-0.7,0.4-0.9l52.1-57.4c0.4-0.4,0.4-0.4,0.9-0.1
		c3,1.5,6.5,2.1,9.8,1.5c9-1.4,15.2-9.8,13.8-18.7c-1.2-7.7-7.6-13.5-15.4-14c-6.1-0.5-11.9,2.6-15,7.8c-3.4,5.5-3.4,11.3-0.1,17.1
		c0.3,0.5,0.3,0.6-0.1,1.1c-4,4.3-47.7,52.6-52.6,57.8c-1.3,1.3-2.1,3.1-2,5c0.1,28.4,0.1,56.8,0.1,85.2v18.5
		c-1.1-1-3.9-3.4-7.4-6.2c-5.5-4.5-12.2-10-14.8-12.6c-0.6-0.5-0.9-1.3-0.8-2.1V62c-0.1-0.3-0.1-0.3,0.3-0.4
		c8.3-2.4,13.2-10,11.8-18.3c-1.4-9-9.7-15.1-18.7-13.8c-3.5,0.5-6.7,2.2-9.2,4.7c-4.1,4.1-5.7,10.1-4.3,15.7
		c1.5,5.7,5.9,10.2,11.6,11.8c0.4,0.1,0.4,0.2,0.4,0.6v141.3c0,2.5,1.5,4.3,3.3,6c4,4,11.6,10.4,17.8,15.6c5,4.3,9.4,7.9,10.4,9
		c0.8,0.9,1.9,1.4,3.1,1.4h0.3c1.4-0.2,2.7-0.9,3.4-2.1l4.1-4.8c3.2-3.9,6.4-7.6,9.6-11.4C106.9,202.2,156.6,146.9,167.9,133.6z
		 M155.8,79.1c0.1-4.6,3.8-8.4,8.5-8.5h0.1c4.6,0,8.4,3.8,8.4,8.4c0,4.6-3.8,8.4-8.4,8.4l0,0l0,0C159.7,87.5,155.9,83.8,155.8,79.1
		C155.8,79.2,155.8,79.1,155.8,79.1L155.8,79.1z M142.4,37.3L142.4,37.3c4.7,0.2,8.4,4,8.3,8.6c0,2.2-0.9,4.3-2.5,5.7
		c-1.6,1.6-3.8,2.5-6,2.4c-2.3,0-4.4-0.9-5.9-2.6c-1.6-1.6-2.5-3.8-2.4-6C134,40.9,137.8,37.3,142.4,37.3z M40.7,51.7
		c-1.6-1.5-2.5-3.7-2.4-5.9l0,0c0-4.7,3.7-8.4,8.4-8.5h0.1c4.6,0,8.3,3.7,8.4,8.3c0,2.2-0.8,4.4-2.4,6c-1.5,1.6-3.7,2.5-5.9,2.5
		C44.5,54.2,42.3,53.3,40.7,51.7z M120.4,140.3c-4.6,0-8.3-3.7-8.4-8.3c0-4.6,3.7-8.4,8.3-8.5h0.1c4.6,0,8.4,3.7,8.5,8.3
		c0,2.2-0.9,4.3-2.4,5.9C124.9,139.3,122.8,140.3,120.4,140.3L120.4,140.3z"/>
	<path class="st1" d="M252,43.3c-0.6-4.1-2.7-7.8-6-10.4c-7.1-5.7-17.4-4.6-23.2,2.4c-2.9,3.6-4.2,8.3-3.5,12.8
		c0.8,6.4,5.3,11.6,11.5,13.3c0.7,0.2,0.8,0.4,0.8,1.1v65.6c0,0.4-0.1,0.9-0.4,1.2c-2,2.4-4.1,5-6.1,7.4l-0.9,1.1
		c-1.2,1.5-2.5,3-3.6,4.6c-1.4,1.8-2.8,3.4-4.1,5.2c-1.2,1.5-2.4,2.9-3.5,4.3s-2.3,2.9-3.5,4.3s-2.4,3-3.6,4.5s-2.2,2.9-3.4,4.3
		c-1.3,1.6-2.6,3.2-3.9,4.8s-2.7,3.2-3.9,4.9s-2.6,3.2-3.9,4.8s-2.6,3.2-3.9,4.8s-2.4,3-3.6,4.5c-1.4,1.8-2.8,3.4-4.2,5.2
		s-2.7,3.4-4.1,5.1c-1.7,2.1-3.4,4.3-5.1,6.4c-1.9,2.4-3.8,4.7-5.7,7c-1.6,2-3.1,3.9-4.8,5.9l-0.8,1c-2.1,2.6-4.2,5.3-6.3,7.9
		c-0.2,0.2-0.4,0.5-0.6,0.7c-0.8,1-1.8,2.1-1.6,3.9c0,1.7,1.1,3.1,2.7,3.6c0.4,0.1,0.8,0.2,1.3,0.2c1.3,0,2.5-0.6,3.3-1.5
		c1.4-1.8,2.9-3.6,4.3-5.4l0.2-0.3c1.1-1.3,2.2-2.7,3.3-4.1l4.6-5.6c1.3-1.6,2.6-3.2,3.9-4.8s2.6-3.2,3.9-4.8l3.7-4.5
		c1.1-1.4,2.2-2.7,3.4-4.1c1.3-1.6,2.5-3.1,3.9-4.8c1.1-1.3,2.2-2.7,3.3-4.1c1.3-1.6,2.6-3.1,3.9-4.8s2.6-3.2,3.9-4.8l3.4-4.2
		c1.2-1.5,2.4-3,3.6-4.5s2.7-3.2,3.9-4.9s2.6-3.2,3.9-4.8s2.3-2.9,3.5-4.3s2.3-2.9,3.5-4.3l3.7-4.6c1.4-1.7,2.7-3.4,4.1-5
		c1-1.2,1.9-2.4,2.9-3.6c1.9-2.4,3.8-4.8,5.7-7.1c1.5-1.6,2.3-3.7,2.2-5.9c-0.1-13.9-0.1-28.1-0.1-41.8V62.4c0-0.6,0.1-0.6,0.6-0.8
		c2.4-0.6,4.7-1.8,6.5-3.6C251,53.9,252.8,49,252,43.3z M235.8,54.1h-0.1c-4.5,0.1-8.3-3.5-8.4-8c0-0.1,0-0.3,0-0.4
		c0-2.2,0.9-4.4,2.5-6c1.6-1.5,3.7-2.4,5.9-2.4h0.2c4.6,0.2,8.2,4,8.2,8.5C244.1,50.4,240.4,54.1,235.8,54.1z"/>
	<path class="st1" d="M166.8,193.3L166.8,193.3c0.4-3.7-0.5-7.5-2.6-10.6l1.1-1.3l2.7-3.1c1.6-1.9,3.2-3.8,4.8-5.7
		c1.3-1.5,1.4-1.7,1.5-1.8s0.2-0.3,1.5-1.8c1.1-1.3,2.2-2.5,3.2-3.9l3.6-4.2c1.2-1.4,2.4-2.9,3.6-4.3c1.3-1.6,2.7-3.2,4-4.8
		s1.5-1.7,1.6-1.8s0.4-0.4,1.7-1.9l0.1-0.1c3.6-4.3,7.4-8.8,11.1-13.2c0.2-0.2,0.4-0.4,0.6-0.6c0.8-0.8,1.4-1.8,1.7-2.9
		c0.1-0.6-0.1-14.5-0.1-16.6c1.3-0.4,2.6-1,3.8-1.7c4.6-2.6,7.6-7.3,8-12.6c0.5-4.3-0.8-8.7-3.7-12c-5.7-7-16.1-8-23.1-2.3
		c-1.5,1.2-2.8,2.7-3.7,4.4c-2.3,3.7-3,8.2-1.8,12.5c1,4,3.5,7.5,7,9.7c0.1,0.1,0.3,0.2,0.4,0.3l0.1,0.1l0.1,0.1
		c1.6,0.9,3.2,1.6,5,2c0,0.4,0,0.7,0.1,1.1c0.1,1.7,0.1,6.1,0.1,7.6v4.8c0,0.5-0.2,1-0.5,1.3c-0.7,0.7-1.3,1.5-2,2.2l-2.4,2.9
		c-0.4,0.4-0.4,0.5-2.2,2.6c-1.3,1.5-2.5,2.9-3.8,4.5s-2.7,3.1-4.1,4.8l-5,6.1c-1.9,2.2-3.8,4.5-5.6,6.7c-0.7,0.9-1.4,1.7-2.2,2.4
		c-0.4,0.4-0.6,0.7-2.2,2.4c-2.2,2.7-4.5,5.3-6.6,8l-4,4.8c-7.8-4.2-17.5-1.5-22,6.2c-2.3,3.7-3,8.2-1.8,12.5c1,4,3.5,7.5,7,9.7
		c0.1,0.1,0.3,0.2,0.4,0.3l0.1,0.1l0.1,0.1c2.5,1.5,5.3,2.3,8.1,2.4h0.1c0.1,0,0.2-0.1,0.3-0.1c2.9-0.1,5.8-0.9,8.3-2.4
		C163.4,203.3,166.4,198.6,166.8,193.3z M193.6,98.9c0-2.3,0.9-4.5,2.6-6.1c1.6-1.5,3.7-2.3,5.9-2.2c2.1-0.1,4.1,0.7,5.7,2.2
		c1.7,1.6,2.6,3.8,2.7,6.2c-0.1,4.6-3.8,8.3-8.4,8.3l0,0C197.4,107.2,193.7,103.5,193.6,98.9L193.6,98.9z M156.3,197.7
		c-1.6,1.6-3.7,2.5-5.9,2.5l0,0c-4.6-0.1-8.3-3.7-8.4-8.3c0-2.3,0.9-4.5,2.6-6.1c1.5-1.5,3.5-2.3,5.6-2.2h0.4
		c2.1-0.1,4.1,0.7,5.7,2.2c1.7,1.6,2.6,3.8,2.7,6.2C158.8,194,157.9,196.1,156.3,197.7z"/>
	<path class="st1" d="M124.3,235.5c-9,0-16.4-7.3-16.4-16.4s7.3-16.4,16.4-16.4c9,0,16.4,7.3,16.4,16.4
		C140.7,228.2,133.3,235.5,124.3,235.5z M124.3,211.2c-4.4,0-7.9,3.5-7.9,7.9c0,4.4,3.5,7.9,7.9,7.9c4.4,0,7.9-3.5,7.9-7.9
		C132.2,214.8,128.6,211.3,124.3,211.2z"/>
	<path class="st1" d="M264.9,141.1l28.3-68.4h12l28,68.4h-11.1l-7.9-20h-30.6l-8,20H264.9z M287,112.6h23.8l-11.9-30L287,112.6z"/>
	<path class="st1" d="M352.1,141.1V91.4h9.8v6.4c1.4-2.3,3.4-4.2,5.8-5.5c2.4-1.3,5.2-1.9,7.9-1.9c0.9,0,1.8,0.1,2.8,0.2
		c0.8,0.1,1.5,0.3,2.2,0.6v8.8c-0.9-0.3-1.9-0.6-2.9-0.8c-1-0.2-1.9-0.3-2.9-0.3c-2.7,0-5.4,0.8-7.7,2.3c-2.4,1.7-4.2,4.1-5.2,6.8
		v33.2L352.1,141.1L352.1,141.1z"/>
	<path class="st1" d="M399.5,141.1V91.4h9.8v5c1.9-1.9,4.2-3.4,6.7-4.4c2.6-1,5.4-1.5,8.3-1.5c5.7,0,10.3,1.8,14,5.4s5.5,8.3,5.5,14
		v31.2h-9.8v-29.6c0-3.9-1.1-7-3.4-9.3c-2.4-2.3-5.6-3.5-8.9-3.4c-2.5,0-4.9,0.5-7.1,1.6c-2.1,1.1-3.9,2.8-5.2,4.8v35.7L399.5,141.1
		L399.5,141.1z"/>
	<path class="st1" d="M468.6,83.4c-1.6,0-3.1-0.6-4.2-1.8c-2.4-2.3-2.4-6.1,0-8.5c0,0,0,0,0,0c1.1-1.2,2.6-1.8,4.2-1.8
		c3.3,0,6,2.7,6,6S471.9,83.4,468.6,83.4z M473.4,91.4v49.7h-9.8V91.4L473.4,91.4z"/>
	<path class="st1" d="M493.6,141.1V72.7l9.8-2.1v42.7l24.1-21.8h11.4l-25.6,23.4l27,26.4h-12.9l-24-23.4v23.4L493.6,141.1z"/>
	<path class="st1" d="M577.4,142c-5.4,0-9.8-1.4-13.2-4.2c-3.3-2.6-5.2-6.7-5.1-10.9c-0.2-4.4,1.9-8.5,5.4-11.1
		c3.6-2.7,8.5-4,14.7-4c2.4,0,4.7,0.2,7,0.7c2.2,0.5,4.4,1.1,6.5,2v-5.3c0-3.5-1-6.1-3.1-7.9s-5.1-2.6-9-2.6c-2.4,0-4.8,0.4-7.1,1
		c-2.8,0.8-5.6,1.9-8.3,3.2l-3.6-7.3c3.4-1.6,6.9-2.9,10.5-3.9c3.2-0.8,6.5-1.2,9.9-1.2c6.4,0,11.4,1.5,15,4.6
		c3.6,3.1,5.3,7.5,5.3,13.1v32.9h-9.6v-4.3c-2.1,1.7-4.6,3-7.1,3.9C583,141.6,580.2,142,577.4,142z M568.5,126.7
		c0,2.4,1.1,4.6,3.1,5.9c2.4,1.6,5.2,2.4,8,2.2c2.5,0,4.9-0.4,7.2-1.2c2.2-0.8,4.2-2,5.9-3.5v-8.6c-1.9-1-3.9-1.8-5.9-2.3
		c-2.2-0.5-4.5-0.7-6.8-0.7c-3.5,0-6.3,0.7-8.4,2.3C569.6,122.1,568.5,124.3,568.5,126.7L568.5,126.7z"/>
	<path class="st1" d="M264.4,194.1v-16.4h7.1c1.4-0.1,2.8,0.4,3.9,1.3c1,0.9,1.5,2.1,1.5,3.4c0,1.3-0.5,2.6-1.5,3.4
		c-1.1,0.9-2.4,1.4-3.9,1.3h-5.3v6.9L264.4,194.1z M271.4,179.3h-5.3v6.3h5.2c0.9,0,1.9-0.3,2.6-0.9c0.7-0.6,1-1.4,1-2.3
		c0-0.9-0.3-1.7-1-2.3C273.2,179.6,272.3,179.3,271.4,179.3L271.4,179.3z"/>
	<path class="st1" d="M302.9,194.1v-16.4h7c1.4-0.1,2.8,0.4,3.8,1.3c1,0.9,1.5,2.1,1.5,3.4c0,1-0.3,2-0.9,2.8
		c-0.7,0.8-1.6,1.4-2.5,1.6l3.7,7.3h-2l-3.5-7h-5.2v7L302.9,194.1L302.9,194.1z M309.8,179.3h-5.1v6.2h5.1c1,0.1,1.9-0.3,2.6-0.9
		c1.2-1.1,1.4-3,0.3-4.2c-0.1-0.1-0.2-0.2-0.3-0.3C311.7,179.5,310.7,179.3,309.8,179.3L309.8,179.3z"/>
	<path class="st1" d="M341.4,194.1v-16.4h11.7v1.6h-9.9v5.7h6.5v1.6h-6.5v5.9h10v1.6L341.4,194.1L341.4,194.1z"/>
	<path class="st1" d="M387.2,192.9l-6.4-13.1V194h-1.7v-16.4h2.5l5.6,11.6l5.6-11.6h2.5V194h-1.7v-14.3L387.2,192.9z"/>
	<path class="st1" d="M422.3,194.1v-16.4h1.8v16.4L422.3,194.1z"/>
	<path class="st1" d="M464.3,187.2c0.1,1.9-0.6,3.8-1.8,5.2c-2.8,2.6-7.1,2.6-9.9,0c-1.3-1.4-1.9-3.3-1.8-5.3v-9.5h1.8v9.5
		c-0.1,1.5,0.4,2.9,1.4,4c2,2,5.2,2,7.2,0c0,0,0,0,0,0c0.9-1.1,1.4-2.5,1.4-4v-9.5h1.8v9.5L464.3,187.2L464.3,187.2z"/>
	<path class="st1" d="M499.1,192.9l-6.4-13.1v14.3H491v-16.4h2.5l5.6,11.6l5.6-11.6h2.4v16.4h-1.7v-14.3L499.1,192.9z"/>
	<path class="st1" d="M560.1,194.1l6.8-16.4h2.2l6.7,16.4h-2l-2.1-5.1h-7.7l-2.1,5.1H560.1z M564.7,187.4h6.5l-3.2-8L564.7,187.4z"
		/>
	<path class="st1" d="M601.1,194.1v-16.4h1.8v16.4L601.1,194.1z"/>
</g>
</svg>
