<svg id="Layer_1" data-name="Layer 1" xmlns="http://www.w3.org/2000/svg" viewBox="0 0 235.09 298.61"><defs><style>.cls-1{fill:#82c9c8;}.cls-2{fill:#3d3831;}.cls-3{fill:#e4a800;}.cls-4{fill:#145272;}</style></defs><path class="cls-1" d="M844.73,682.91v6.38h-1.84V671.56h6.55a5.41,5.41,0,0,1,2.61.53,2.92,2.92,0,0,1,1.32,1.78,12.69,12.69,0,0,1,.38,3.48,7.86,7.86,0,0,1-.87,4.29,3.39,3.39,0,0,1-3,1.27Zm0-1.59h4.85a4.16,4.16,0,0,0,1.76-.26,1,1,0,0,0,.48-.93v-5.85a1,1,0,0,0-.48-.93,4.16,4.16,0,0,0-1.76-.26h-4.85Z" transform="translate(-842.82 -391.1)"/><path class="cls-1" d="M869.37,682.62v6.67h-1.84V671.56h6.69a5.35,5.35,0,0,1,2.61.53,2.85,2.85,0,0,1,1.32,1.78,12.31,12.31,0,0,1,.38,3.48,7.15,7.15,0,0,1-.86,4.08,3.5,3.5,0,0,1-3,1.19Zm0-1.59h5a4.14,4.14,0,0,0,1.75-.25,1,1,0,0,0,.49-.94v-5.56a1,1,0,0,0-.49-.93,4.1,4.1,0,0,0-1.75-.26h-5Zm6.61,1.19,3.46,7.07h-2l-3.49-7.41Z" transform="translate(-842.82 -391.1)"/><path class="cls-1" d="M895.58,681.2v6.56h8.19v1.53h-10V671.56h9.86l-.19,1.53h-7.83v6.55h7.09v1.56Z" transform="translate(-842.82 -391.1)"/><path class="cls-1" d="M918.07,689.29l1.22-17.73h2.8l4.54,14.75h.2l4.57-14.75h2.78l1.21,17.73h-1.81l-1.05-15.88h-.17l-4.82,15.88H926l-4.82-15.88H921l-1.08,15.88Z" transform="translate(-842.82 -391.1)"/><path class="cls-1" d="M951.08,671.56h1.84v17.73h-1.84Z" transform="translate(-842.82 -391.1)"/><path class="cls-1" d="M975.15,689.71a17.8,17.8,0,0,1-3.23-.23,4.18,4.18,0,0,1-1.94-.8,3.07,3.07,0,0,1-1-1.63,11,11,0,0,1-.27-2.67V671.56h1.85v16.59h4.71A26.29,26.29,0,0,0,978,688a2.42,2.42,0,0,0,1.31-.44,1.26,1.26,0,0,0,.35-1V671.56h1.85v12.82a11.48,11.48,0,0,1-.26,2.68,3,3,0,0,1-.95,1.62,4.18,4.18,0,0,1-1.94.8A17.84,17.84,0,0,1,975.15,689.71Z" transform="translate(-842.82 -391.1)"/><path class="cls-1" d="M996.93,689.29l1.22-17.73H1001l4.54,14.75h.2l4.56-14.75H1013l1.22,17.73h-1.81l-1.05-15.88h-.17l-4.82,15.88h-1.59L1000,673.41h-.17l-1.08,15.88Z" transform="translate(-842.82 -391.1)"/><path class="cls-1" d="M1045.34,689.29l5.48-17.73h2.69l5.5,17.73h-1.84l-4.88-16.11H1052l-4.85,16.11Zm2.36-4.37v-1.59h9v1.59Z" transform="translate(-842.82 -391.1)"/><path class="cls-1" d="M1072.71,671.56h1.84v17.73h-1.84Z" transform="translate(-842.82 -391.1)"/><path class="cls-2" d="M861.5,632.13a12.14,12.14,0,0,0-5.09-3.4,21.63,21.63,0,0,0-7.25-1.08c-.84,0-1.75,0-2.72.09s-2.07.16-3.29.29l.85,6.19a22.1,22.1,0,0,1,2.27-.23c.71,0,1.39,0,2.05,0a14.64,14.64,0,0,1,6.24,1.15,7.81,7.81,0,0,1,3.55,3.34,34.16,34.16,0,0,0-6,1.12A12.5,12.5,0,0,0,845,644.1a14.14,14.14,0,0,0-2.19,8.28,27.16,27.16,0,0,0,.47,5.49,7.61,7.61,0,0,0,1.6,3.48,6.43,6.43,0,0,0,3.05,1.83,17.69,17.69,0,0,0,4.83.56,47.51,47.51,0,0,0,5.87-.35,26.1,26.1,0,0,0,4.88-1.06l-.7-6a44.81,44.81,0,0,1-4.42.82,31.24,31.24,0,0,1-4,.26c-1.1,0-2.17,0-3.22-.09a24.9,24.9,0,0,1-2.65-.29v-7.18a4.16,4.16,0,0,1,2-3.56,14.81,14.81,0,0,1,6.17-2,77.46,77.46,0,0,1,10.82-.61v-5.63h-2.63A17.43,17.43,0,0,0,861.5,632.13Z" transform="translate(-842.82 -391.1)"/><path class="cls-2" d="M939.3,628.4a16.19,16.19,0,0,0-5.17-.66,20.88,20.88,0,0,0-6.38.94,14.74,14.74,0,0,0-5,2.7,11.25,11.25,0,0,0-3.12,4.11v-17h-5.58V644H878.77V631.21h-5.58v18.4a17.28,17.28,0,0,1-.4,4.06,5.38,5.38,0,0,1-1.41,2.56,10,10,0,0,1-2.84,1.83l2.11,5a14.53,14.53,0,0,0,4.72-3,10.87,10.87,0,0,0,2.58-4.29,19.25,19.25,0,0,0,.8-5.42h61.46a2.51,2.51,0,0,0,2.51-2.51V635a10.1,10.1,0,0,0-.77-4.34A4.44,4.44,0,0,0,939.3,628.4ZM937.14,644H919.75a11,11,0,0,1,2.89-6.94q3-3,9.05-3a20.34,20.34,0,0,1,5.45.52Z" transform="translate(-842.82 -391.1)"/><path class="cls-2" d="M1052,649.61a16.76,16.76,0,0,1-.4,4.06,5.29,5.29,0,0,1-1.4,2.56,10.1,10.1,0,0,1-2.84,1.83l2.11,5a14.48,14.48,0,0,0,4.71-3,10.78,10.78,0,0,0,2.59-4.29,19.91,19.91,0,0,0,.82-6.08v-21.4H1052Z" transform="translate(-842.82 -391.1)"/><rect class="cls-2" x="222.71" y="237.11" width="5.63" height="22.06"/><path class="cls-2" d="M1037.63,628.21V644h-10.37V628.21h-5.59V644H994.35v-6.71a11.53,11.53,0,0,0-.66-4.34,4,4,0,0,0-2.23-2.23,11.5,11.5,0,0,0-4.34-.66H974v-2.86h19.79v-5.63H973.16a4.54,4.54,0,0,0-4.54,4.54h0c0,1.09,0,3.73,0,5.3A4.88,4.88,0,0,0,970,635a5.14,5.14,0,0,0,3.75,1.29h15V644H962.84v-25.5h-5.63v28.57a3.22,3.22,0,0,0,3.22,3.22h80.89a1.89,1.89,0,0,0,1.89-1.89V628.21Z" transform="translate(-842.82 -391.1)"/><path class="cls-2" d="M1058.79,626.93v-3.3a4.8,4.8,0,0,1,1.56-3.65,5.2,5.2,0,0,1,3.67-1.46h13.89v5.54h-13.58v2.87Z" transform="translate(-842.82 -391.1)"/><path class="cls-2" d="M1002,660.54v-2.3a4.78,4.78,0,0,1,1.56-3.64,5.18,5.18,0,0,1,3.68-1.47h13.88v5.55H1007.5v1.86Z" transform="translate(-842.82 -391.1)"/><path class="cls-2" d="M1031.23,618.48v4.39a1.15,1.15,0,0,0,1.15,1.15h5.25v-5.54Z" transform="translate(-842.82 -391.1)"/><path class="cls-3" d="M988.4,501.33a4.65,4.65,0,0,0,1.17-3.29c-.08-2.42-.14-4.4-.16-6.24l-.13-13.55q-.1-8.36-.22-16.71c0-.6.07-.72.62-.88a16.61,16.61,0,0,0,7.78-4.94,17.51,17.51,0,0,0,2.41-20,17.41,17.41,0,0,0-32.68,7,17.54,17.54,0,0,0,11.31,17.58,4.7,4.7,0,0,0,.9.21c.59.11,1,.19,1.09.48a4,4,0,0,1,.14,1.64c0,.25,0,.49,0,.74l.09,7.43c.07,6.75.15,17.73.28,24.6a3.34,3.34,0,0,1-.89,2.44c-8.64,10.25-37.48,40.55-37.48,40.55V533.8c0-5.61,0-11.22,0-16.82,0-.3,0-.3.48-.44a17.41,17.41,0,0,0-7.37-33.95c-8.06,1.32-14.24,7.91-14.7,15.68-.53,8.7,4.4,15.86,12.53,18.23.51.14.58.25.58.81q0,15.32,0,30.65a1.62,1.62,0,0,1-.44,1.17l-25,29.76-11.29,13.42V578.92q0-46.39,0-92.8a1.25,1.25,0,0,1,.43-.93c3.7-4.06,49.89-55,55-60.61.35-.4.47-.42,1-.18A17.15,17.15,0,0,0,964.07,426c8.94-1.34,15.13-9.05,14.72-18.34a17.33,17.33,0,0,0-16.4-16.21c-6.86-.27-12.32,2.6-15.79,8.3-3.57,5.87-3.58,11.95,0,18.09.3.53.29.67-.08,1.08-4.21,4.59-50.44,55.56-55.57,61.09a7.24,7.24,0,0,0-2.1,5.34q.06,45,0,90v19.62c-1.2-1.11-4.17-3.55-7.84-6.56-5.74-4.72-12.89-10.58-15.57-13.3a2.81,2.81,0,0,1-.9-2.2c0-42.88,0-98,0-140.66v-5.85a2.9,2.9,0,0,0,0-.59c0-.27,0-.31.39-.44A17.18,17.18,0,0,0,877.47,406a17.38,17.38,0,0,0-29.54-9.56,17.24,17.24,0,0,0-4.5,16.54,17.47,17.47,0,0,0,12.18,12.39c.45.13.47.2.46.66,0,1.29,0,2.09,0,3.08V575.18c0,2.57,1.65,4.58,3.44,6.37,4.18,4.18,12.26,11,18.76,16.49,5.32,4.5,9.92,8.38,10.91,9.56a4.07,4.07,0,0,0,3.23,1.49h.33a5.05,5.05,0,0,0,3.61-2.18l4.27-5.11q5-6,10.1-12.08C924,573.85,976.54,515.42,988.4,501.33Zm-12.75-57.52a8.72,8.72,0,0,1,2.65-6.25,8.92,8.92,0,0,1,6.25-2.63h.06a8.88,8.88,0,0,1,0,17.76h0A8.92,8.92,0,0,1,975.65,443.81Zm-14.17-44.12h.1a8.93,8.93,0,0,1,8.71,9.1,8.61,8.61,0,0,1-2.64,6.08,8.9,8.9,0,0,1-15.14-6.41A9,9,0,0,1,961.48,399.69ZM854,414.85a8.68,8.68,0,0,1-2.61-6.18h0a8.93,8.93,0,0,1,8.85-9h.07a8.95,8.95,0,0,1,8.85,8.79,8.84,8.84,0,0,1-2.54,6.29,8.73,8.73,0,0,1-6.21,2.65A9,9,0,0,1,854,414.85Zm84.26,93.61a8.9,8.9,0,0,1-8.84-8.78,8.88,8.88,0,0,1,8.72-9h.09a8.94,8.94,0,0,1,9,8.76,8.69,8.69,0,0,1-2.53,6.25,8.89,8.89,0,0,1-6.32,2.73Z" transform="translate(-842.82 -391.1)"/><path class="cls-2" d="M1077.26,406a16.92,16.92,0,0,0-6.25-11,17.39,17.39,0,0,0-28.15,16.06c1.18,7.09,5.26,11.82,12.13,14.07.75.25.83.46.83,1.2,0,9.32,0,18.57,0,26.56v12.6q0,15.12,0,30.25a1.78,1.78,0,0,1-.43,1.28c-2.16,2.6-4.32,5.28-6.4,7.87l-.93,1.15-3.85,4.8-4.4,5.47-3.72,4.59-3.67,4.52c-1.26,1.57-2.53,3.14-3.79,4.72s-2.4,3-3.61,4.49l-4.11,5.09-4.18,5.15-4.09,5.1q-2,2.55-4.09,5.09l-3.87,4.78-4.42,5.46c-1.46,1.81-2.9,3.62-4.35,5.43q-2.68,3.36-5.38,6.71-3,3.72-6,7.43l-5,6.17-.87,1.08c-2.2,2.71-4.48,5.52-6.66,8.32-.19.25-.39.48-.6.72-.89,1-1.9,2.21-1.73,4a4,4,0,0,0,2.8,3.79,4.5,4.5,0,0,0,4.77-1.4c1.5-1.91,3-3.79,4.55-5.68l.25-.31c1.16-1.44,2.33-2.87,3.5-4.31l4.8-5.92,4.08-5.1q2-2.55,4.09-5.09t3.91-4.81l3.55-4.37q2-2.5,4-5l3.44-4.28,4.08-5,4.14-5.12c1.19-1.47,2.37-2.95,3.55-4.42s2.52-3.15,3.79-4.72l4.17-5.15q2.07-2.54,4.12-5.08c1.24-1.54,2.48-3.07,3.71-4.61s2.46-3.08,3.7-4.61l3.89-4.8q2.18-2.67,4.34-5.36,1.52-1.87,3-3.78c2-2.48,4-5,6.09-7.51a9.14,9.14,0,0,0,2.4-6.3c-.08-14.71-.07-29.67-.06-44.13v-21.6c0-2.07,0-.9,0-4.41,0-.56,0-.68.56-.81a15.36,15.36,0,0,0,6.89-3.8A17.17,17.17,0,0,0,1077.26,406Zm-17.07,11.42h-.12a8.74,8.74,0,0,1-8.89-8.87,8.63,8.63,0,0,1,2.63-6.27,9,9,0,0,1,6.24-2.61h.22a9,9,0,0,1,8.67,9A8.79,8.79,0,0,1,1060.19,417.41Z" transform="translate(-842.82 -391.1)"/><path class="cls-2" d="M987.24,564.47h0a16.56,16.56,0,0,0-2.75-11.21c.37-.46.77-.91,1.16-1.37l2.81-3.3c1.68-2,3.37-4,5-6,1.37-1.62,1.5-1.78,1.62-1.93l1.63-1.93c1.13-1.36,2.28-2.7,3.42-4l3.76-4.43,3.76-4.53q2.09-2.53,4.19-5c1.39-1.65,1.55-1.8,1.7-2a24.92,24.92,0,0,0,1.77-2l.13-.16c3.83-4.55,7.8-9.26,11.65-13.93.18-.22.37-.43.56-.64a6.09,6.09,0,0,0,1.81-3.13c.12-.69-.08-15.32-.1-17.5a16.39,16.39,0,0,0,4-1.74,16.8,16.8,0,0,0,8.44-13.29,16.53,16.53,0,0,0-3.91-12.75A17.4,17.4,0,0,0,1007.67,469a17.39,17.39,0,0,0,7.37,10.28,1.18,1.18,0,0,1,.34.32l.06.1.11.07a17.25,17.25,0,0,0,5.22,2.06c0,.38,0,.75.05,1.12.09,1.76.17,6.43.09,8,0,0,0,4.07,0,5.13a1.73,1.73,0,0,1-.53,1.4c-.72.75-1.39,1.56-2,2.34l-2.5,3-2.29,2.73q-2,2.35-4,4.69-2.15,2.52-4.27,5-2.68,3.19-5.35,6.41-3,3.57-5.94,7.13c-1.59,1.88-1.91,2.23-2.26,2.6s-.7.76-2.27,2.63c-2.36,2.79-4.7,5.59-7,8.39l-4.2,5a16.94,16.94,0,0,0-10.88-1.87,17.44,17.44,0,0,0-14.3,21.49,17.39,17.39,0,0,0,7.37,10.28,1.18,1.18,0,0,1,.34.32l.06.1.11.07a17.55,17.55,0,0,0,8.59,2.48h.07l.07,0a1.37,1.37,0,0,1,.31,0,18.17,18.17,0,0,0,8.82-2.5A16.8,16.8,0,0,0,987.24,564.47Zm28.42-99.73a8.88,8.88,0,0,1,2.72-6.45,8.25,8.25,0,0,1,6.18-2.37,8.12,8.12,0,0,1,6,2.32,9,9,0,0,1,2.83,6.48,8.88,8.88,0,0,1-2.66,6.23,8.74,8.74,0,0,1-6.21,2.6h0A8.92,8.92,0,0,1,1015.66,464.74ZM976.14,569a8.76,8.76,0,0,1-6.21,2.6h0a8.87,8.87,0,0,1-6.13-15.27,8.31,8.31,0,0,1,5.81-2.37H970a8.17,8.17,0,0,1,6,2.32,9,9,0,0,1,2.83,6.48A8.88,8.88,0,0,1,976.14,569Z" transform="translate(-842.82 -391.1)"/><path class="cls-4" d="M942.36,609a17.33,17.33,0,1,1,17.32-17.33A17.35,17.35,0,0,1,942.36,609Zm0-25.65a8.33,8.33,0,1,0,8.32,8.32A8.33,8.33,0,0,0,942.36,583.35Z" transform="translate(-842.82 -391.1)"/></svg>