<svg id="Layer_1" data-name="Layer 1" xmlns="http://www.w3.org/2000/svg" viewBox="0 0 2594.7 2975.5"><defs><style>.cls-1{fill:#dcdddf;}.cls-1,.cls-2,.cls-3,.cls-4{fill-rule:evenodd;}.cls-2{fill:#a7abae;}.cls-3{fill:#565658;}.cls-4{fill:#f89631;}</style></defs><polygon class="cls-1" points="1306.38 0 1506.54 113.25 1706.7 226.5 1506.54 339.75 1306.38 453 1106.23 339.75 906.07 226.5 1106.23 113.25 1306.38 0"/><polygon class="cls-2" points="906.07 226.5 1306.38 453 1307.7 916.5 908.7 684 906.07 226.5"/><polygon class="cls-3" points="1705.89 227.49 1305.58 453.99 1307.7 916.5 1703.27 684.99 1705.89 227.49"/><polygon class="cls-1" points="1306.38 0 1506.54 113.25 1706.7 226.5 1506.54 339.75 1306.38 453 1106.23 339.75 906.07 226.5 1106.23 113.25 1306.38 0"/><polygon class="cls-2" points="906.07 226.5 1306.38 453 1307.7 916.5 908.7 684 906.07 226.5"/><polygon class="cls-3" points="1705.89 227.49 1305.58 453.99 1307.7 916.5 1703.27 684.99 1705.89 227.49"/><polygon class="cls-4" points="1305.38 1117.5 1505.54 1230.75 1705.7 1344 1505.54 1457.25 1305.38 1570.5 1105.23 1457.25 905.07 1344 1105.23 1230.75 1305.38 1117.5"/><polygon class="cls-3" points="1705.89 1343.49 1305.58 1569.99 1301.78 2975.5 1697.27 2736.99 1705.89 1343.49"/><polygon class="cls-1" points="405.74 1544.54 605.89 1657.79 806.05 1771.04 605.89 1884.29 405.74 1997.54 205.58 1884.29 5.42 1771.04 205.58 1657.79 405.74 1544.54"/><polygon class="cls-2" points="5.42 1771.04 405.74 1997.54 407.05 2461.04 8.05 2228.54 5.42 1771.04"/><polygon class="cls-3" points="805.25 1772.03 404.93 1998.53 407.05 2461.04 802.62 2229.53 805.25 1772.03"/><polygon class="cls-1" points="400.31 523.52 600.47 636.77 800.63 750.02 600.47 863.27 400.31 976.52 200.16 863.27 0 750.02 200.16 636.77 400.31 523.52"/><polygon class="cls-2" points="0 750.02 400.31 976.52 401.63 1440.02 2.63 1207.52 0 750.02"/><polygon class="cls-3" points="799.82 751.01 399.51 977.51 401.63 1440.02 797.2 1208.51 799.82 751.01"/><polygon class="cls-1" points="2191.38 518 2391.54 631.25 2591.7 744.5 2391.54 857.75 2191.38 971 1991.23 857.75 1791.07 744.5 1991.23 631.25 2191.38 518"/><polygon class="cls-2" points="1791.07 744.5 2191.38 971 2192.7 1434.5 1793.7 1202 1791.07 744.5"/><polygon class="cls-3" points="2590.89 745.49 2190.58 971.99 2192.7 1434.5 2588.27 1202.99 2590.89 745.49"/><polygon class="cls-1" points="2194.38 1542 2394.54 1655.25 2594.7 1768.5 2394.54 1881.75 2194.38 1995 1994.23 1881.75 1794.07 1768.5 1994.23 1655.25 2194.38 1542"/><polygon class="cls-2" points="1794.07 1768.5 2194.38 1995 2195.7 2458.5 1796.7 2226 1794.07 1768.5"/><polygon class="cls-3" points="2593.89 1769.49 2193.58 1995.99 2195.7 2458.5 2591.27 2226.99 2593.89 1769.49"/><polygon class="cls-2" points="905.58 1342.99 1305.89 1569.49 1301.78 2975.5 914.21 2736.49 905.58 1342.99"/></svg>