<svg xmlns="http://www.w3.org/2000/svg" viewBox="0 0 959.52 524.93"><g id="adb1d678-3e43-4440-b3d2-a548d7aeb780" data-name="Layer 2"><g id="a20a4a40-085c-4d3b-9d50-89ab58eafc8c" data-name="Layer 1"><path d="M153,505.66c2-4.76,3.9-9.27,5.81-13.78l44.73-105.37c2.78-6.54,5.58-13.07,8.3-19.63a2.75,2.75,0,0,1,2.91-2.07q47.22-.3,94.43-.74c16.24-.14,32.47-.3,48.71-.37,1.84,0,2.37-.44,2.4-2.36a15.48,15.48,0,0,0-1.9-7.7q-26.31-49.9-52.49-99.88-20.58-39.18-41.18-78.35c-.15-.29-.19-.71-.83-.8l-8,16.57c-4.81,10-9.65,20-14.41,30a2.39,2.39,0,0,1-2.56,1.59q-79.8-.06-159.61,0c-1.8,0-1.76-.47-1.15-1.86q12.21-27.6,24.34-55.23c8.42-19.13,16.72-38.31,25.33-57.36,2.56-5.66,4.77-11.47,7.42-17.1s5.07-11.44,7.59-17.16l7.66-17.37q3.78-8.58,7.57-17.17t7.67-17.37c3-6.76,6-13.5,8.91-20.31A2.54,2.54,0,0,1,177.43,0q75.31.06,150.64,0c6.7,0,13.39,0,20.08,0a2.93,2.93,0,0,1,3.09,1.86Q363.55,26,376,50.06l48.63,94.44,56.94,110.56c15.53,30.16,31,60.36,46.64,90.45,2.75,5.28,6.33,10.11,8.76,15.59,6.85,15.45,9,31.63,7.48,48.36a110.37,110.37,0,0,1-25.92,62A95.89,95.89,0,0,1,476.47,501c-2.08.74-4.58.86-6.2,2.07-2.34,1.75-4.94,1.36-7.36,2.13a11.46,11.46,0,0,1-3.58.4h-304C154.62,505.66,153.93,505.66,153,505.66Z"/><path d="M671.39.05q45.2,0,90.39,0c1.62,0,2.6.4,3.31,1.89,3.58,7.49,7.63,14.74,11.26,22.21,2.35,4.83,5.11,9.5,7.51,14.33,2.19,4.42,4.33,8.88,6.62,13.23,2.56,4.87,5.12,9.77,7.76,14.61,1.81,3.33,3.4,6.78,5.12,10.15,2,3.91,4,7.79,6,11.69,2.1,4.08,4.15,8.2,6.32,12.24,1.95,3.62,3.93,7.23,5.65,11,2.63,5.68,5.88,11,8.44,16.75,1.46,3.27,3.57,6.39,5.13,9.69,2.08,4.39,4.61,8.54,6.62,13s4.73,8.69,6.9,13.15c1.95,4,4.17,7.9,6.23,11.86,2.75,5.29,5.53,10.57,8.17,15.91q2.16,4.36,4.21,8.79c1.37,3,3.31,5.76,4.8,8.75,5.15,10.35,10.59,20.55,15.85,30.84,4.21,8.22,8.54,16.38,12.74,24.6,3.24,6.33,6.64,12.6,9.77,19,4.89,10,10.4,19.6,15.25,29.57,6.19,12.73,13.95,24.62,19.84,37.5,1.83,4,3.76,8,5.39,12.07,5.67,14.29,9.76,28.93,8.61,44.51-2.37,32-14.1,59.57-39.38,80.36-11,9-23.77,14.41-37.72,17a69.11,69.11,0,0,1-12.71,1.08q-79-.1-157.91,0a23,23,0,0,1-2.35,0c-1.08-.11-2.89.5-3.09-.4-.29-1.26,1.38-2,2.45-2.6,5-2.79,10.17-5.11,14.93-8.26,10.42-6.88,18.8-15.81,26.05-25.88a154.65,154.65,0,0,0,14.52-24.33c5.45-11.53,6.56-23.92,6.38-36.46a177.73,177.73,0,0,0-5.35-39.88c-.4-1.63-.17-2.74,1.29-3.6,2.15-1.26,4.22-2.64,6.41-3.81,1.27-.68,1.3-1.24.64-2.46q-26.1-48.33-52.12-96.72C701.63,224.62,681.82,188,662.3,151.3c-2-3.74-4.61-5-8.19-5.42a5,5,0,0,1-4.21-3.2q-34.15-68.54-68.44-137c-.73-1.46-1.45-2.93-2.22-4.37-.47-.87-.43-1.31.71-1.25.92.05,1.85,0,2.78,0Z"/><path d="M505.21,505.65c.91-2.14,2.55-2.9,4.06-3.72,3.88-2.1,7.9-3.92,11.66-6.23,11.65-7.18,20.83-16.91,28.7-28a169.71,169.71,0,0,0,13.17-21.92c4.3-8.52,6.15-17.69,6.83-27.12a142,142,0,0,0-1.32-31.51,167.82,167.82,0,0,0-3.69-19.24c-.39-1.4-.3-2.28,1.34-2.83,2.28-.76,4.44-1.89,6.69-2.76,1.1-.42,1.18-1,1.06-2.09-.75-6.86-4.42-12.54-7.37-18.49q-23.46-47.28-47.05-94.5-21-42.08-41.91-84.14c-.43-.86-.49-2.49-1.74-2.3-1.72.27-3.7,0-5,1.79-3.27,4.4-6.64,8.72-10,13.07-.51.67-1,1.34-1.73,2.23-1-2-2-3.75-2.95-5.55q-32.61-62.85-65.21-125.71Q379.13,24.22,367.48,1.8C366.6.11,367.14,0,368.67,0Q464.82.08,561,0a2.79,2.79,0,0,1,2.9,1.81q31.9,62.63,63.86,125.22,34.85,68.3,69.67,136.59,20.4,40,40.85,79.95c2.4,4.66,5.79,8.77,8.12,13.51a97.13,97.13,0,0,1,9.68,49.67,111.36,111.36,0,0,1-21,58.86,98.93,98.93,0,0,1-41.58,34.06c-2.56,1.12-5.5,1.77-7.84,3.09-3.18,1.79-6.55,1.93-9.85,2.61-2.89.6-5.94.45-8.91.66-5.42.38-10.81-.32-16.21-.33q-70.29-.11-140.59-.05C508.61,505.65,507.12,505.65,505.21,505.65Z"/><path d="M72.82,524.92c-24-1-44.31-9.72-59.69-28.73-16-19.74-17.55-49-3.79-70.31C20,409.43,35.06,399.24,53.85,394.37a79.23,79.23,0,0,1,51.06,3.33c19.85,8.16,34.36,21.93,40.91,42.78,5.84,18.59,2.92,36.23-8,52.29-11.37,16.72-27.56,26.31-47.16,30.43A79.58,79.58,0,0,1,72.82,524.92Z" fill="#cd0609"/><path d="M193.3,321.55c-2.44,5.08-4.72,9.8-7,14.53q-8.61,18-17.21,35.95a2.74,2.74,0,0,1-2.89,1.85q-76.69-.06-153.38,0c-2,0-1.88-.54-1.23-2q10.8-24.36,21.49-48.76a2.34,2.34,0,0,1,2.57-1.59q36.74.06,73.48,0H193.3Z"/><path d="M137.45,270.27q39.2,0,78.4,0c1.52,0,2,.15,1.24,1.81q-8.76,18-17.35,36.12a2.45,2.45,0,0,1-2.6,1.58q-42.93-.09-85.87-.08-34.81,0-69.64.07c-2.54,0-2.56,0-1.51-2.4,5-11.32,10-22.61,14.88-34a4.39,4.39,0,0,1,4.74-3.09c10.46.08,20.92,0,31.38,0Z"/><path d="M61.6,258.51c2.29-5.22,4.49-10.22,6.69-15.22,2-4.55,4-9.09,6-13.66a1.92,1.92,0,0,1,2-1.41q26.6.1,53.2.1,52.14,0,104.27,0h3.83c.19.72-.26,1.24-.52,1.8-4.32,9-8.68,18.07-13,27.13a2.12,2.12,0,0,1-2.25,1.41q-79.71,0-159.41,0C62.31,258.62,62.1,258.57,61.6,258.51Z"/></g></g></svg>