<svg xmlns="http://www.w3.org/2000/svg" viewBox="0 0 946.01 840.63"><g id="a26cbecc-3aaf-40e7-bcd0-83014d938eba" data-name="Layer 2"><g id="f6f97311-a58e-4380-aba4-79eec8403d75" data-name="Layer 1"><path d="M910,310.46c-59.2-61.94-175.94-55.26-227.4,13.2C656.05,359,648.73,399.55,667,439c16.78,36.31,12.92,68.54-3.14,101.72-32.28,66.7-83.58,117.64-138.88,165-26.28,22.52-29.84,21.32-40.69-10.81C460.1,623.38,446,549.24,428.57,476h0c-8.73-39.31-13.52-73.92-21.61-117,0-1.94-.82-4.31-1.23-6.47-1-8.19-1.78-16.41-3-24.57-11.51-75.06-26.23-149.69-29.6-225.81-.51-11.48.82-21.55,9.5-31,13.75-15,13.79-33.14,3.15-50-11.23-17.75-36.63-25.77-56-18.42s-33.12,21.86-30.43,42.63c2.8,21.65-5.66,38.05-15.06,55.19-11.66,21.25-28.37,38.8-42.78,58-11.16,10.29-17.08,18.49-27.2,27.59h0c-6.28,5.41-12.4,11-18.86,16.19-31.1,24.94-63.15,45.78-106.53,40.4-17.82-2.21-35.57,5-51.3,15C-11.44,289.1-13,352,35.76,383.57c35.36,22.88,73.1,23,109.44,2.08,32.19-18.49,47.34-52.63,35.48-84.76-8-21.8-3.13-39.4,5.46-58.35,8.52-18.78,21.6-34.41,33.37-51h0c8.76-11.29,13.68-16.49,22.75-26.22h0c18.2-16.87,36.09-34.09,54.68-50.52,36-31.79,35.32-31.36,49.63,15.3,23.43,76.43,37,155.08,54,232.94,7.52,45.4,17,85.81,22,128h0c.14,3,.05,6,.44,9,9.21,70.22,20.65,140.18,24,211.06.65,13.69.4,26.07-10.73,37.45-20,20.42-21.9,45.4-7.76,65.75,16.39,23.6,49.06,32.73,76.92,21.5,24.94-10.05,40.23-33.93,34.69-59.31-4.22-19.33,1.51-35.71,9-52.09,15.59-34,37.84-63.88,63.94-90.07,59-59.2,118.85-113.77,212.52-113.7,53.75,0,95.42-34,113.39-86.9C954.57,388.14,943.82,345.81,910,310.46Zm-487.27,180s0,.07,0,.11A.52.52,0,0,0,422.76,490.41Z" fill="#e65025"/></g></g></svg>