<svg xmlns="http://www.w3.org/2000/svg" viewBox="0 0 902.42 856.21"><g id="fcc756d4-6e07-49ea-b48d-dd7c63fe99e7" data-name="Layer 2"><g id="b59aa315-9c43-4bdf-b992-7a48328917bc" data-name="Layer 1"><path d="M902.42,428.46c-1.37,1.48-2.61,2.92-4,4.26q-71.79,71.89-143.59,143.79-35.21,35.25-70.32,70.59c-3.74,3.78-6.39,4.57-10.36,0a252.09,252.09,0,0,0-18.3-18.4c-3.11-2.93-3-4.57.15-7.71,35.61-35.43,71-71.1,106.48-106.65q40.77-40.83,81.75-81.46c3.79-3.74,3.88-5.82.05-9.66q-154-154.3-307.74-308.83C508.38,86,480.36,57.53,452,29.33c-3.43-3.41-3-5.26,0-8.2,6.18-5.87,12.37-11.77,18.1-18.08,3.89-4.28,6.43-3.89,10.38.11q58.76,59.49,117.82,118.67,67.4,67.79,134.78,135.56,82,82.5,164,165C899,424.21,900.53,426.26,902.42,428.46Z" fill="#fecb01"/><path d="M221.82,204.27c1,.88,1.89,1.52,2.64,2.27,7.27,7.26,14.37,14.69,21.84,21.74,4.1,3.86,0,5.23-1.76,7Q177.85,302.16,111,368.9C92.93,387,75,405.22,56.66,423.05c-4.06,3.95-3.55,5.84.17,9.58Q252.1,628.76,447.26,825c4.69,4.71,4.93,7.2-.12,11.48a182.51,182.51,0,0,0-17.22,17.07c-3.31,3.66-5.23,3.51-8.7,0-29.14-29.6-58.5-59-87.78-88.44q-165-166-330.17-332c-4-4-4.63-6.13-.2-10.54Q110.2,315.87,217,208.84C218.48,207.33,220.08,205.91,221.82,204.27Z" fill="#393185"/><path d="M583.34,643.19c-6.34-3.25-12.74-6.37-19-9.76-33.05-17.92-63.72-38.95-88.37-67.84-30.08-35.24-42.8-76.38-41.91-122.26.78-40,10.21-78.71,18.36-117.59,4.3-20.49,8.36-41,11.14-62.89l33.21,29.95c5.68,5.12,11.1,10.57,17.09,15.31,13,10.29,15.54,23.56,11.95,38.8-4.79,20.32-14.39,38.81-22.07,58-10.93,27.37-19.28,55.21-18.13,85.16,1.43,37.23,16.92,68.6,40,96.85,15.85,19.41,34.35,36,54.09,51.35,1.53,1.19,3,2.41,4.53,3.62C583.92,642.36,583.63,642.77,583.34,643.19Z" fill="#393185"/><path d="M582.71,680.49a41.1,41.1,0,1,1,41,41.34A40.76,40.76,0,0,1,582.71,680.49Z" fill="#393185"/><path d="M554.08,717.49c19.55.27,35.64,16.9,35.24,36.41a35.86,35.86,0,1,1-35.24-36.41Z" fill="#393185"/><path d="M521.69,811.82a29.81,29.81,0,1,1-29.62-30.17C508.82,781.7,521.79,794.9,521.69,811.82Z" fill="#393185"/><path d="M509.35,165.14c-8.62-23.55-26.07-37.68-50.93-42.27a49.42,49.42,0,0,0-22.5,0,52.84,52.84,0,0,0-20.68,7c-30.6,17.36-43.59,52.95-28.9,85.84,10,22.33,27.65,35.53,52.25,38.78.37.41,4.19-.69,2.62,2.38l-32.14,13.1a240.59,240.59,0,0,0-67.19,40.93c-32.4,28.05-50.09,64.32-57.71,105.88-3.54,19.35-4.53,39-5.06,58.62-.95,34.74,2.8,69.42,1.83,104.19-.19,6.7-1.91,13.34-.91,20.61,2.25-1.12,4.23-1.95,6.05-3,16.81-10.23,33.31-21,50.48-30.62,14.33-8,20.73-20.06,20.08-35.58-.53-12.79-3.25-25.43-5.91-38-2.38-11.23-5.81-22.26-6.7-33.79-1.44-3.43-.94-7.26-2.26-10.71-2.85-22.58-3.52-45,2-67.45a148.91,148.91,0,0,1,30.83-60.83,214.52,214.52,0,0,1,47.3-42c15.73-10.33,31.47-20.62,49.35-27.24a62.29,62.29,0,0,0,27.72-20.31C514.41,210.68,517.89,188.47,509.35,165.14Zm-15.12,24c1.17,25.66-22.79,47.72-48.15,47-25.74-.74-47-21.93-46.64-48.12.35-25.47,21.36-46.88,48.45-47C470.87,140.89,496,162.4,494.23,189.1Z" fill="#fecb01"/></g></g></svg>