<svg xmlns="http://www.w3.org/2000/svg" viewBox="0 0 648.58 937.78"><g id="b8e3aa1a-0506-48b9-b6e2-40fa01f22743" data-name="Layer 2"><g id="f1d90ff7-4257-4508-b0ab-3e39d8c7b67b" data-name="Layer 1"><path d="M623.49,808c-8.74-20.77-24.33-31.77-46.87-32.86-2.94-1.61-6.13-.78-9.19-.78q-250.3-.07-500.6-.08c-3.08,0-6.24.66-9.26-.62-27.28-3.06-54.06-31.3-56.06-59.13-1.27-8.14-.27-16.33-.58-24.49-.21-5.3,2.31-5.59,6.17-3.35a15,15,0,0,1,4,2.39c18,14.88,37.65,15.31,57.18,4.29,22.36-12.61,44-26.49,66.05-39.65,16-9.57,31.82-19.52,47.72-29.29,3.62-2.22,7.94-4.76,11.67.37,2.93,16.53.24,22.73-13.8,31.18q-54.52,32.82-109.24,65.35A52.83,52.83,0,0,1,42.44,729a62.06,62.06,0,0,0-10.29.13c8.55,13.17,19.48,20.79,34.54,21.65,8.57.49,17.18.15,25.77.15q228,.09,456.07.07c11.93.2,23.84-.44,35.78.91a83,83,0,0,1,32.4,10.26c5.9,3.35,6.15,3.15,6.18-3.93.09-25.72,0-51.43.05-77.14.52-19,.13-38,.21-56.94,0-9.35-1.59-10.36-9.71-5.63-26.74,15.57-53.57,31-80.31,46.55-27.42,15.95-54.9,31.8-82.26,47.85-13.34,7.82-26.58,11.4-41.13,2.77-10.06-6-15-14.93-16.89-25.85-1.38-7.91-1.91-20.52.8-28.4,3.83-1.42,3.2,6.58,3.88,8.41,8.16,21.76,27.58,29.63,47.46,18.13q42.52-24.62,85-49.36c23.09-13.53,46.1-27.24,69.55-40.17,3.19-1.76,6.64-3.14,9.43-5.49,8.2-6.88,17.85-6.66,27.46-5.34,5.59.77,10.45,3.56,10.68,10.45q.09,164.82,0,329.59c0,1.82,0,3.65-.15,5.46-.28,2.44-1.55,3.74-4.1,3.72-2.34,0-4.69,0-7,0q-306.17,0-612.34,0c-11.29,0-9.94,1.41-10-9.92,0-2.08.08-4.17,0-6.25-.15-3,1.24-4.25,4.21-4.1,2.08.11,4.16,0,6.25,0q295.23,0,590.47,0c3.09,0,6.25.58,9.29-.57a2.32,2.32,0,0,1,1.36-.33c1.89-2,1-4.46,1-6.7q.11-44.51,0-89C626,815.83,626.13,811.62,623.49,808Z" fill="#94111e"/><path d="M378.42,159.65c14.46-9.65,28.1-20.45,42.59-30.09,26-17.29,55-1.86,64.59,21.07,2.31,5.51,2,8.13-4.67,10.36C424,180.24,376.62,212.94,341.1,261.94a227.58,227.58,0,0,0-23.34,40.53c-19-39.73-45.13-72.37-80.17-97.61-24.83-20-53-33.69-83-43.68-7.12-2.37-7.2-4.94-4.73-10.74,11-26,39.17-35.74,63.28-21.38,14.09,8.39,27.08,18.45,40.1,28.41,9.82,7.51,15,7.15,23.77-1.48,6.69-6.56,13.29-13.22,20.14-19.62,12.38-11.56,29.25-11.3,41.33.41,7.48,7.24,15,14.49,22.51,21.66C366.42,163.6,372.26,164.31,378.42,159.65Z" fill="#96121e"/><path d="M192.15,579.65a279.75,279.75,0,0,1,0,43.71c-7.2-.62-11.95,4.53-17.25,7.85q-42.57,26.61-85.9,51.93-9.64,5.65-19,11.89c-17,11.42-47.44,10.58-62.1-5.85C2.45,684,.81,677.56.86,670.18c.2-25.45-.42-50.92,1.63-76.34.61-7.54,3.16-14.72,3.65-22.26,1.68-6.71,3.51-13.39,5.36-20.07,1.09-3.93,1.39-8.61,6.81-8.93,4.92-.29,9.06,1.51,11.43,6.24.46.92.88,1.85,1.34,2.77q-2.92,19.56-5.84,39.12c-1.88,8.34-1.41,16.72-.35,25.1,2.35,18.93,15.33,26.53,32,17.91s32.84-18,48.74-28c8.14-5.09,16.69-9.53,25-14.31,11.48-6.58,23.06-13.05,34.54-19.66S187.81,570.11,192.15,579.65Z" fill="#231f20"/><path d="M617,284.44c-18.21-55.39-72.8-93.95-133.74-94.41-15.08-.11-30.16,0-45.4,0,7.71-9.27,41.54-22.26,59.17-22.85,19.35,2.72,38.33,6.8,56.11,15.31q57.66,27.6,82.75,86.37c.91,2.13,1.9,4.22,2.85,6.33,8.93,26,10,52.83,9.78,80-.45,60.09-.23,120.18-.28,180.27-4.41.06-5.79-4.6-9.54-5.94-10-3.58-19.45-2.81-28.55,2.42-24.35,14-48.56,28.24-72.86,42.3-31.74,18.37-63.91,36-95.31,54.93-5.72,3.45-12,4-17.83.62s-6.68-9.56-1.81-13.36c7.35,3.55,14,1.53,20.85-2.42,54.58-31.48,109-63.28,163.76-94.43,1.36-.77,2.64-1.94,4.12-2.2,11.57-2,12.18-9.9,12.12-19.62q-.53-80.47-.08-160.95c.06-15-1.37-29.61-5.55-44C616.8,290.08,615.76,287.33,617,284.44Z" fill="#94121d"/><path d="M31.09,551.59c-5,.09-4.41-6.93-10-7.22-4.45-.22-6,.4-7,4.58-1.71,7.24-4,14.35-6,21.52C5.36,573.79,6.71,578,5.62,581.7c-.44,1.49-.34,3.26-2.51,3.13S1,583,1,581.4c-.06-1.3,0-2.6,0-3.9q0-128.34,0-256.67c0-2.31-.5-4.69.64-6.91,2.15-29.95,13.23-56.61,31.09-80.3,28.15-37.34,65.65-59.17,112.17-65.17,1.78-.23,3.73-.66,5.36-.18,17.42,5.12,34.26,11.67,50.08,22.08-14.11,0-28.25-.57-42.33.1C90.56,193.67,35.59,243,24.77,309.59a45.35,45.35,0,0,1-1.21,4.5C21,320.53,21.24,327.33,21.23,334q-.14,94.51-.05,189c0,3,.1,5.91-.06,8.86.11-9.22.11-18.44.11-27.66q0-84.75.08-169.49c0-2.62-1.52-5.73,1.35-7.95.12,21.86.31,43.71.33,65.57Q23.07,460.7,23,529c0,3.8.31,6.46,4.46,8.55C33.16,540.49,34.08,545.8,31.09,551.59Z" fill="#94121d"/><path d="M513,839.11c0,15.58-.2,30.8.12,46,.1,4.83-1.21,6.07-6,6.08-17.78,0-17.78.22-17.78-17.61,0-22.66.19-45.32-.14-68-.08-5.56,1.51-7.14,6.95-6.82a230,230,0,0,0,24.21,0c4.94-.23,7.28,1.06,8.6,6.25,3.53,13.8,7.84,27.4,12.47,43.23,4.51-15.91,8.57-29.63,12.22-43.47,1.19-4.52,3.18-6.26,8-6,8.83.41,17.71.26,26.55.05,3.7-.09,5,1.11,5,4.88q-.17,41.41,0,82.82c0,3.23-.83,5-4.34,4.52a10.15,10.15,0,0,0-1.56,0c-18,.43-18,.43-18-17.5V840.06l-1.42-.32c-4.38,14.21-8.64,28.45-13.25,42.58-1,3-.29,8-4.28,8.41-6.39.71-13,.2-19.39-.4-1-.09-1.83-3.41-2.43-5.33-4.26-13.66-8.43-27.34-12.64-41C515.38,842.34,515.43,840.38,513,839.11Z" fill="#231f20"/><path d="M29.5,530c16.49-32.4,48.23-47.18,79.58-66.4-7.92-7.2-15.39-13.61-22.44-20.46-23.25-22.63-23.46-56.26-.63-79.25,10.82-10.89,21.75-21.67,32.5-32.63,2.55-2.6,4.22-3.72,7.39-.42,10.27,10.7,20.88,21.06,31.39,31.53,29.56,29.46,21.63,67.8-.66,91.61-14.34,15.32-33.14,23.86-51.36,33.31-19.09,9.9-39.68,17-57,30.13-5.92,4.47-11.34,9.6-17,14.42C30.65,531.2,30.07,530.58,29.5,530Z" fill="#94121e"/><path d="M279.55,37.56c.85-15.88,8.12-27.88,22.86-34.13s28.67-4,40.51,6.85S358.4,34.77,352.72,50c-7.33,19.61-19.28,36.65-31.33,53.57-1.42,2-2.68,3.88-5.12.66-13-17.17-26.12-34.28-34.33-54.45C280.39,45.92,279.18,41.89,279.55,37.56Z" fill="#231f20"/><path d="M227.49,65.75c14,.62,26.62,4.83,37,14.41,9.76,9,19.1,18.44,28.85,27.44,3.49,3.22,2,4.81-.78,7.27-15.5,13.91-40.27,17.2-59.89,6.79-16.56-8.78-33.17-17.34-50.87-23.54-4.8-1.68-3.59-3.71-1.76-6.75C189.24,76.15,208.71,65.58,227.49,65.75Z" fill="#95121f"/><path d="M447.07,76.5c11.79,13.74,11.72,13.57-4.79,21.38-9.84,4.65-19.94,9.08-28.95,15.07-19.42,12.93-39.48,16.24-61.23,7.15-13.41-9.7-13.39-9.68-1.54-21.63,4.56-4.59,9-9.27,13.52-13.94C389.83,57.78,416.47,55.19,447.07,76.5Z" fill="#95121f"/><path d="M470.51,845.41c0,13.79-.16,27.59.1,41.38.08,4.3-1,5.94-5.52,5.68-7.76-.45-17.9,2.61-22.67-1.23-5-4-1.45-14.58-1.53-22.27-.22-21.34.08-42.68-.19-64-.06-5,1-7,6.32-6.44,7.66.83,18-3.24,22.33,1.64,3.79,4.24,1.09,14.33,1.15,21.84C470.57,829.8,470.51,837.6,470.51,845.41Z" fill="#231f20"/><path d="M623.62,916c-3,2.52-6.51,1.3-9.76,1.3q-294.17.1-588.34.06c-10.73,0-14.67,5.67-11.26,16,.73,2.2,2.14,2.71,4.08,2.75s4.17,0,6.25,0q305.9,0,611.78-.11c3.11,0,7.61,2.45,9.21-3,3-.82,2,1.64,2.37,2.93-1.86,2.89-4.75,1.41-7.08,1.41q-310.1.12-620.2.25c-7,0-9.36-1.74-8.45-8.59.58-4.35.29-8.83.38-13.24l607.13,0C621,915.76,622.33,915.93,623.62,916Z" fill="#94111e"/><path d="M57.57,773.69q154.32-.06,308.63-.1,100.8,0,201.59.06c3,0,6.3-1.31,8.83,1.52-2.85.13-5.7.36-8.56.36q-245.64,0-491.29,0C70.35,775.5,63.78,776.35,57.57,773.69Z" fill="#94111e"/><path d="M1.58,313.92V584.85c6.08-4.75-.56-12.1,6.49-14.38-1.87,15.11-4.68,30.18-5.4,45.34-1,21.87-4.12,43.94,2,65.63.75,2.68,2.22,5.16,3.35,7.74-4.63-2.89-6.87-2.61-6.44,3.84.48,7.15,0,14.37-.05,21.55C-.56,709.86.1,704.85.1,700Q0,515.81.12,331.63C.12,325.71-.59,319.68,1.58,313.92Z" fill="#94121d"/><path d="M22.67,326.8c-.22,2.83-.63,5.65-.63,8.48Q22,430.46,22,525.63v9c-2.66-2.2-1.51-4.54-1.52-6.5q-.12-102.19,0-204.39c0-3.44-1.31-7.51,3.09-9.63Q23.13,320.45,22.67,326.8Z" fill="#752223"/><path d="M14,797.86c.06,31.46.34,62.92,0,94.38-.08,7.33,1.65,9.77,9.35,9.68,33.53-.38,67.07-.1,100.61-.07-2.27,1.77-5,1.26-7.51,1.26-32.46,0-64.92,0-97.38.09-4.46,0-7-.3-7-6.08.3-30.64.13-61.29.17-91.93C12.29,802.65,11.88,799.93,14,797.86Z" fill="#94111e"/><path d="M623.49,808c3.91.37,3.25,3.37,3.25,5.85q.06,48.15,0,96.29c0,2,.5,4.24-1.8,5.52C624.5,879.8,627,843.87,623.49,808Z" fill="#68242c"/><path d="M136.21,891.24q0-46.49,0-93c2.15,2.35,1.75,5.33,1.76,8.09q.09,38.37,0,76.75C138,885.9,138.3,888.86,136.21,891.24Z" fill="#94111e"/><path d="M645.63,595.22l2.67,0q.08,168.82.12,337.67A20.2,20.2,0,0,1,648,936l-2.37-2.93Q645.61,764.13,645.63,595.22Z" fill="#7a1e23"/><path d="M355.18,344.23a37.07,37.07,0,0,1,3.51-1.63c7.1-2.51,7.6-5.41,2.88-11.87a51,51,0,0,1,3.25-64.21c12-13.33,25.2-25.58,37.75-38.43,2.3-2.35,3.77-2.52,6.17-.05,10.51,10.83,21.71,21,31.74,32.28,26.23,29.41,25.81,77.31-14.21,102.4-53.33,33.43-108.61,63.49-162.76,95.51-11.64,6.88-23.43,13.49-35.2,20.14-8.06,4.55-13.79,11.4-18.82,20.1-2.55-18.53,6.18-35,23.26-44.84Q307.65,410.27,382.6,367c2.68-1.55,5.31-3.2,8.06-4.85a20.12,20.12,0,0,0-1.51-2.12c-7.67-8.23-7.66-8.19-17.61-2.43-42.28,24.5-84.45,49.19-126.93,73.35-15.16,8.62-29.86,17.15-35.23,37.53-2.23-24.07,7.11-43.21,26-54.31,38.33-22.5,76.85-44.67,115.28-67,1.54-.9,3-2,4.5-2.95Z" fill="#94121e"/><path d="M229.86,700.11c17.35,5.76,31.82-1.47,46.22-9.91,20.52-12,41.28-23.65,61.91-35.48,11.88-6.82,23.7-13.73,35.57-20.58,10.12-5.84,19.45-1.77,21,9.81.75,5.7,1.68,11.81-.89,17.52-7.85-8.05-11-8.52-21-2.88-36.75,20.79-73.43,41.7-110.24,62.38-18.24,10.25-38.47,4.94-48.4-12.31-2.73-7,3.29-7.1,7.1-8.84A9.72,9.72,0,0,1,229.86,700.11Z" fill="#94121f"/><path d="M229.86,700.11c-6,1.6-13.72-.17-15.85,8.54-4.39-5-5.37-11.27-5.38-17.46q-.21-91.38-.08-182.77c2.67-1,2.86,1.72,4.08,2.71,6.39,5.23,13.16,5.75,20.89,1.21,23.08-13.57,46-27.43,69.24-40.7,26.11-14.92,58.38,2.62,58.44,31.44-5.49-10.75-12.05-20.09-24.45-24.24-11.69-3.91-22.91-4-33.54,2.07C280.79,493.77,258.6,507,236.4,520.27c-10.52,6.27-16.45,6.13-26.17-1.48-1.46,2.66-.73,5.49-.73,8.18-.05,41.9.17,83.8-.14,125.7-.11,15.42-1.18,30.78,11.5,42.6-2.71,3.15-4.72-2.11-7.73-.54,2.82,5.53,7.23,1.27,10.61,2C226,697.48,228.24,698.22,229.86,700.11Z" fill="#90141f"/><path d="M192.15,579.65c-2.83-2.24-5.64-4.52-8.51-6.71-4.66-3.55-9.47-3.53-14.49-.67-17.88,10.17-35.73,20.38-53.7,30.38-20.94,11.65-40.86,25.13-62.74,35.07-8.19,3.72-16,1.48-22.4-4-5.21-4.46-8.29-10.57-5.41-18,8.47,14.07,20,17.19,35,8.67C95.49,604.24,131,583.74,166.44,563.3c6.16-3.55,12.42-4,18.4-.26S193.5,572.44,192.15,579.65Z" fill="#901420"/><path d="M362.83,523.52v41.25c7.27-4.21,13.58-8.15,20.14-11.63,18.43-9.76,37.88,2.47,37.42,23.42-10.55-18.18-21.68-19.55-34.62-15.18-6.48,2.19-12.37,6.38-18.23,10.13-4.89,3.12-6.32,1.88-6.3-3.53.08-21.61,0-43.21,0-64.82C363.43,509.81,361.85,516.77,362.83,523.52Z" fill="#8f1420"/><path d="M375.29,458c-2.12,14.91,5.45,21.39,20,17.15,10.92-3.18,17.05-11.35,17.06-23.06,0-6.67,0-13.25,4.88-20.06,1.31,16.52-.59,31.05-9.83,43.81-7.51,10.36-17.2,15.59-30.31,11.56-7.44-5.6-7.65-13.51-6.95-21.72l3.66-10.79C376.75,454.78,375.92,456.44,375.29,458Z" fill="#231f20"/><path d="M276.71,806.8c-.08-12.6-7.22-20.25-19.68-20.38q-43.29-.45-86.59,0c-12.46.12-19.88,7.68-20,20.2q-.39,37.85,0,75.68c.15,13.84,7.66,20.73,21.76,20.8,13.78.08,27.57,0,41.35,0,14,0,28.09.07,42.13,0,13.46-.09,21-7.29,21.05-20.6Q276.95,844.64,276.71,806.8ZM227,855.49a100.54,100.54,0,0,1-17.87.8c-4.34-.11-6,1.15-5.76,5.67.34,7-.22,14.06.17,21.06.28,5-1.62,6-6.27,6-21.19.17-21.19.32-21.19-20.78V844.85c0-12.75.2-25.5-.1-38.24-.11-4.79,1.36-6.29,6.16-6.19,13.78.29,27.58-.14,41.35.19,17.72.42,26.84,9.17,27.77,26C252.18,842.23,243.41,853,227,855.49Z" fill="#94111e"/><path d="M394.77,786.35q-42.9-.36-85.81,0c-12.38.11-19.68,7.89-19.73,20.33q-.17,37.84,0,75.68c.06,13.3,7.47,20.62,20.86,20.72,14,.11,28.08,0,42.12,0v0c13.78,0,27.56,0,41.35,0,14.48-.05,21.63-7.1,21.66-21.46q.09-37.07,0-74.12C415.2,794,408.2,786.46,394.77,786.35Zm-2.43,75.4c-.66,13-10.29,24.1-24.11,27.11a73.63,73.63,0,0,1-33.28-.39c-12.49-3-20.95-13.35-22.31-26.07-.37-3.43.48-4.71,4-4.47a90.58,90.58,0,0,0,10.93,0c6.08-.31,11-.64,13.33,7.55,2.08,7.33,13.34,9.58,20.06,5.56,6.23-3.73,6.15-10.44-.3-14.28-4.53-2.7-9.77-3.47-14.8-4.69-6.86-1.66-13.55-3.72-19.5-7.62-14.77-9.68-14.91-31,.51-39.45,16.23-8.93,33.46-8.46,50.21-.71,5.94,2.75,8.93,8.27,11.06,14.44,1.76,5.11,1,7.33-4.8,6.67a61,61,0,0,0-7,0c-6.12-.32-13,2-16.48-6.23-1-2.46-4.65-3.22-7.57-3.35-4.52-.2-9.75-.2-10.8,5.25s3.73,6.56,7.91,7.64c7.55,1.94,15.2,3.59,22.55,6.12C386.31,839.78,393,848.94,392.34,861.75Z" fill="#94111e"/><path d="M136.76,825.35c.06-9,.85-18.07-.56-27.07-2.71-8.39-9.31-11.8-17.27-11.87q-44.07-.4-88.15.06c-7.62.08-14.19,3.17-16.77,11.39-.86,2-.58,4.09-.58,6.15,0,30.38.2,60.75-.18,91.12-.08,6.58,2.32,7.53,8,7.48,29.59-.24,59.18-.08,88.78-.15,4.63,0,9.32.71,13.9-.61,6.39-.87,10.38-4.52,12.25-10.61C137.62,869.29,136.61,847.31,136.76,825.35Zm-60.95,65c-29.89.07-46.43-16-46.55-45.35s16.77-46.17,46-46.11,45.4,16.31,45.44,45.54C120.71,874.27,105,890.32,75.81,890.39Z" fill="#94111e"/><path d="M155.82,401.58c.41,20.18-10.24,34.42-25,46.24-11.63,9.33-11.82,9.21-22.38-1.48-9.09-9.2-19.79-17.4-23.7-30.39-4.68-15.55-3.2-30.41,8.7-42.72,7-7.26,14.58-14,21.69-21.2,2.93-3,5.06-3.48,8.19-.17,7.32,7.75,15,15.12,22.43,22.79C153,382.17,155,391.81,155.82,401.58Z" fill="#231f20"/><path d="M648.28,535.46c-2.17-3.23-4.55-6.11-8.39-7.66-11.22-4.51-21.7-3-31.94,3C592.39,540,576.71,549,561.08,558.07l-72.91,42.19C472,609.59,456,619,439.76,628.21c-5,2.82-10.64,3.36-15.34-.34-3.05-2.41-5.49-5.92-2.56-10a2.77,2.77,0,0,0,.52-1.35,243.14,243.14,0,0,0-.05-36.31,15.43,15.43,0,0,0-1.63-5.75c-8.95-17.64-24.25-22-42.11-11.83-2,1.15-4,2.36-6.07,3.48-8.44,4.61-9.41,4.15-9.22-5.69.35-19.12-.7-38.17-2.09-57.21l0-.07c-1.66-8.15-5.31-15.15-12.18-20.09-14.89-10.68-30.83-12.49-47-3.7-22.64,12.31-44.58,25.86-66.75,39-7.36,4.37-14.52,5.52-21.84.1a4.7,4.7,0,0,0-4-1c-1.18,2.49-.62,5.38-.62,8.15,0,47.4.21,94.81-.21,142.21-.1,10.82,1.78,20.07,10.25,27.27a12.91,12.91,0,0,0,4,3c2.47,1.2,4.93,2.41,7.35,3.7,11.7,3.67,23,2.95,33.94-2.83,10.13-5.33,20-11.13,29.95-16.75,26.5-14.93,52.76-30.29,79.29-45.17,11.34-6.36,18.74-2.34,19.4,10.58.24,4.59-.35,9.23.82,13.75.28,1.49.56,3,.83,4.47a11.13,11.13,0,0,0,.77,2.67c4,18.24,29.18,33.13,44.6,24.59,12.88-7.13,25.5-14.64,38.19-22.08,44.77-26.26,89.76-52.14,134.61-78.25,10.37-6,24.45-5.11,33,2.55.87,1.11,1.76,1.1,2.67,0Q648.29,565.34,648.28,535.46ZM317,593.55q-29.24,17.3-58.72,34.15a42.57,42.57,0,0,1-9.23,4.17c-7.56,2.16-12.87-.68-15.72-8.33a163.1,163.1,0,0,1,0-26.43c1.84-.88,3.75-1.64,5.51-2.68q37.46-22,74.87-44.07c11-6.46,16.05-5.5,23.8,4.4h0v25C332.42,587,324.05,589.37,317,593.55Z" fill="#231f20"/><path d="M245.12,590.75c21.85-12.88,42.34-24.93,64.78-38.14,4.11-2.42,6.71-4.42,10.3-5.42,9-2.5,11.51,1,17.31,7.57.08-5.72.32-11.44.22-17.15-.22-12.59-10.45-18.51-21.57-12.11-26.23,15.09-52.31,30.45-78.38,45.81-2.55,1.5-5.35,3.08-5.05,7.11.45,6.21.43,12.46.61,18.69h0C238.85,594.43,241.36,593,245.12,590.75Z" fill="#94121f"/><path d="M233.33,623.54c7.77,8.85,11.65,9.48,22.1,3.48q41.06-23.6,82.09-47.21c1.26,6.34-.7,10.1-6.92,13.53-25.67,14.15-50.85,29.18-76.28,43.77-4.76,2.73-9.83,5-15.23,1.2C234,634.64,231.49,629.93,233.33,623.54Z" fill="#901420"/><path d="M223.73,696.76c-1.43,2.24-4,2.33-6.15,2.93-2.35.67-5.6,1.49-6.24-2.26-.4-2.37-1.57-5.8,1-7.15s3.77,1.83,5.11,3.59a3.7,3.7,0,0,0,3.41,1.39Z" fill="#94121f"/><path d="M563.46,400.21c-1.93,19.11.25,38.36-3.77,57.17a57.69,57.69,0,0,1-10.54,23.17,25.39,25.39,0,0,1-13,9.42c-13.69,4.15-22.88-3-22-17.15.48-7.59,3-14.55,7.34-21.83,1.36,4.48-1.16,7.18-2,10.21-2.81,10.39,2,16.95,12.71,17.14,14,.25,23.84-10.72,24.55-27.61.51-12.2.77-24.41,1-36.62C557.81,408.66,560.87,404.62,563.46,400.21Z" fill="#231f20"/><path d="M428.78,422.57c2.05,5.33.74,10.59.2,15.89a64.16,64.16,0,0,0-.46,12.45c.52,5.47,6.7,9.46,9.87,6.16,7.31-7.62,19.16-8.37,25.14-18.23-.27,7.86-7,16.39-15.92,18.74-4.13,1.09-6.23,3.34-8.15,6.38-2.42,3.81-5.34,6.56-10.2,5.22-4.51-1.25-6-5.22-6.07-9.12C422.81,447.32,424.16,434.75,428.78,422.57Z" fill="#231f20"/><path d="M577.19,418.7l-2.64,23.1a52,52,0,0,0-.58,5.41c0,3.34-.5,7.08,3.17,8.92,4,2,4.64-2.79,7.45-4.34.39,5.21-1.38,9.48-3.48,13.62-1.39,2.75-3.63,4.49-6.91,3.93-3-.51-4.3-2.95-4.89-5.5-1.3-5.65-.76-11.44,0-17.06C570.73,437.18,570.79,427.2,577.19,418.7Z" fill="#231f20"/><path d="M505,452c.58,4.69-.81,8.07-2.21,11.37-1.47,3.47-3.65,6.79-8,6s-5-4.84-5.43-8.46c-.71-6.49.43-12.93,1.27-19.34,1-7.78,1.4-15.77,6.47-23.79.71,9.3-1.77,17.06-1.95,25,0,1.81-.47,3.61-.43,5.41.07,3.05-.39,6.52,3.22,8.05S502.37,453.61,505,452Z" fill="#231f20"/><path d="M594,465.28c2.63-13.49-3.12-28.44,6.8-40.67C598.93,438.24,603.42,452.85,594,465.28Z" fill="#231f20"/><path d="M442.35,495.82c-2.24,2.27-1.85,9.07-8.08,5.05-2.91-1.88-3.43-.25-4.48,1.51-1.61,2.71-3.43,2.4-5.7.69-3.36-2.53-2.64-5.25-.61-8,1.33-1.79,1.85-6.11,5.26-3.54,3.05,2.3,4.51,2.48,6.2-1,.77-1.59,2.25-2,3.89-.87C440.88,491,441.92,493,442.35,495.82Z" fill="#231f20"/><path d="M489.27,500.06c-4.48-1.89-4.45-4.66-2.25-8.58,2-3.59,3.44-6.46,7.58-2.17,1.33,1.37,2.09-.25,2.74-1.38,1.17-2,2.31-4.45,5.13-1.88,3.14,2.86,3.46,6,1.11,9.64-1.59,2.45-3.12,4.39-5.91,1.51-2.46-2.53-3.36-.86-4.13,1.4S491.33,501.46,489.27,500.06Z" fill="#231f20"/><path d="M483.05,439.26c-2.63,23.65-8.23,30.74-23.73,29.36,4.69-5.12,11.64-6.87,15-12.36S480.17,445,483.05,439.26Z" fill="#231f20"/><path d="M400.35,451.86c-.73,3.8-1.87,7.82-5.87,8.15-2.08.17-5.78-2.28-5.36-5.58.48-3.8,2-8.59,5.57-9.5C397.12,444.3,400.12,448.14,400.35,451.86Z" fill="#231f20"/><path d="M489.27,500.06l4.27-1.45c5.92.18,7.67,3.64,6.11,8.72-.61,2-1.34,5.83-4.85,4.37-2.35-1-5.56-3.1-3.68-6.47C492.79,502.23,491.21,501.29,489.27,500.06Z" fill="#231f20"/><path d="M570.51,500.06c-4.48-1.89-4.45-4.66-2.25-8.58,2-3.59,3.44-6.46,7.58-2.17,1.33,1.37,2.09-.25,2.74-1.38,1.17-2,2.31-4.45,5.13-1.88,3.14,2.86,3.46,6,1.11,9.64-1.59,2.45-3.12,4.39-5.91,1.51-2.46-2.53-3.36-.86-4.13,1.4S572.58,501.46,570.51,500.06Z" fill="#231f20"/><path d="M570.51,500.06l4.27-1.45c5.92.18,7.67,3.64,6.11,8.72-.61,2-1.34,5.83-4.85,4.37-2.35-1-5.56-3.1-3.68-6.47C574,502.23,572.46,501.29,570.51,500.06Z" fill="#231f20"/><path d="M375.29,458l-1.46-3.12c.85-3.44,2.06-6.67,5.55-9.54C379.54,450.54,377.12,454.18,375.29,458Z" fill="#231f20"/><path d="M439.41,299.65c.83,20.7-10.86,33.37-24.31,45.05-.78.67-1.79,1.07-2.6,1.72-10.42,8.39-10.39,8.38-19-1.39-5.83-6.63-11.6-13.33-17.67-19.74-16.56-17.49-13.41-43,3.18-56.62,6.61-5.4,12.56-11.64,18.6-17.7,3.41-3.42,6.67-3.91,10.08-.44,8.37,8.52,17.32,16.52,24.49,26.16C437.49,283.81,440.38,291.73,439.41,299.65Z" fill="#231f20"/><path d="M210.66,818.87c9,.11,13.64,3.42,13.84,9.19.21,6.29-5.35,9.8-14.83,10-10.88.25-5-7.82-6.09-12.17C201.83,819.13,205.93,817.94,210.66,818.87Z" fill="#94111e"/><path d="M93.32,842.87c0,16.78-4,24-13.82,26.35-10.07,2.43-19-2.77-21.45-12.77a45.2,45.2,0,0,1-.78-19.27c2.19-11.88,7.88-17.27,18.36-17,9.9.22,15.51,5.86,17.22,17.41C93.18,839.85,93.26,842.19,93.32,842.87Z" fill="#94111e"/></g></g></svg>