<svg xmlns="http://www.w3.org/2000/svg" viewBox="0 0 1045.34 1051.19"><g id="a631b4c7-d292-4b64-a8e2-cb0416e2c141" data-name="Layer 2"><g id="ea86ba24-ded4-447d-9990-54abc6500ce8" data-name="Layer 1"><path d="M917.15,419.23c-17.06,5.36-31.84,10.43-46.89,14.54-6.6,1.8-11.15,4.35-11,11.65.11,6.13-3.07,8.67-8.65,9.86-42.09,9-83.87,19.38-126.38,26.36-4.77.78-9.7,3.09-12.43-3.92-1.71-4.39-5.71-1.43-8.45-.81-25.65,5.85-51.32,11.6-76.81,18.09-7.25,1.84-8.92,1-7.16-6.45,3-12.54,4.13-25.26,2.1-38.15-1.15-7.27,1.58-12.2,7.63-17.2,46.42-38.32,92.4-77.2,138.53-115.87,17-14.28,17-14.16,30.4,2.74,24.46,30.74,54.75,54.86,87.19,76.56C895.54,403.55,905.52,411,917.15,419.23Z" fill="#025fab"/><path d="M594,597.84c17.41-4.5,31.71-11.42,44.43-21.53,4.38-3.48,9.23-2.34,14.19-.55Q705.88,595,759.21,613.94c26.15,9.35,52.47,18.23,78,29.13,4.59,2,8,3.45,5.19,10-21.74,51.39-28.14,105.68-29.7,160.84,0,1-.2,2.05-.42,4.23-13.3-9.89-24.22-21.28-35.58-32.11-5.24-5-10.09-8.23-17.77-5.28-6.34,2.43-11.9-.07-16.07-5.4-24.67-31.51-53.71-59.14-79.37-89.77-4.07-4.86-10.06-9-5.08-17.07,1.74-2.84-2.35-5.62-4.52-7.83-14.53-14.73-29.28-29.24-43.72-44.06C604.81,611.11,600.09,604.94,594,597.84Z" fill="#025fab"/><path d="M413.28,928.22c4.11-19.1,7.5-35.74,11.38-52.27,1.2-5.11.72-9.09-3.93-11.72-6.38-3.62-7-8.32-4.75-15,13-39.46,25.58-79.07,38.47-118.57,1.77-5.41,2.36-12,11.31-11.37,4.5.33,4.06-5.39,5-8.42,7.49-24.82,14.91-49.66,21.61-74.7,2-7.58,4.18-7.87,9.26-2.91a101.94,101.94,0,0,0,36.62,23.37c4.26,1.55,4.83,4.42,5.46,8.07Q560.71,762.37,578,860c1.28,7.17-.82,9.8-7.7,10.8a395.09,395.09,0,0,0-116.71,36.1C440.6,913.28,428,920.43,413.28,928.22Z" fill="#025fab"/><path d="M809.22,235.52c-10.2,10.72-20.31,22-31.2,32.52-6.43,6.2-9.48,12.26-4.75,20.55,2.16,3.79,1,6.26-2.14,9.09q-49.67,44.65-99.1,89.56c-1.75,1.58-3.93,5-6.07,3.29-8.79-7.24-12.8,1.1-17.37,5.28-17.61,16.1-34.93,32.54-52.09,49.12-5.27,5.09-7.11,5.71-10.25-2.32-5.12-13.1-9.19-27.14-20.11-37.2-3.71-3.42-1.12-6.84,0-9.81q30.27-83.05,60.88-166c2.33-6.33,5.31-12.5,6.92-19,2-7.93,5.91-9.62,13.06-6.51,49.6,21.56,102.09,27.53,155.47,28.62C804.4,232.74,806.74,232,809.22,235.52Z" fill="#025fab"/><path d="M626.2,926.16c-4.88-16.81-9.64-32.06-13.65-47.51-1.85-7.14-5.25-11.47-12.85-11.44-5.79,0-7.48-2.93-8.62-8.38-8.76-42.11-18-84.11-26.9-126.19-.85-4-3.64-8.86,3.07-11.66,4.53-1.89,2-6,1.22-9.36-6.06-25.6-11.77-51.28-18.2-76.78-1.76-7-.43-7.92,6.26-6.79,14.36,2.43,28.78,5.52,43.46,1.88,4.52-1.12,7.5,1.77,10,4.81,41.75,50.09,83.29,100.35,125.32,150.2,6.07,7.19,4.57,10.22-2.2,15.26-38.34,28.56-66.54,66.1-92.22,105.76C636.71,912.44,632.9,919.21,626.2,926.16Z" fill="#025fab"/><path d="M227.18,820.79c12.38-13.24,23.18-25.38,34.67-36.83,4.95-4.94,7.08-9.48,3.6-15.81-2.52-4.59-2.2-8.16,2-12.18,32.06-31,66.85-59,99.43-89.37,1.55-1.44,3.76-3.47,5.59-1.84,6.52,5.78,10.41.27,14.16-3.31,16.76-16,33.24-32.31,49.84-48.49a73.26,73.26,0,0,1,6.41-5.66c3.27-2.52,5.36-3.71,7.26,2.16,4.39,13.55,10.51,26.41,19.8,37.5,3.7,4.42,2.92,9.15,1.1,14.11q-34,92.55-67.7,185.2c-2.54,7-6.42,6.25-11.51,4.27a442.92,442.92,0,0,0-67.32-20.15c-28.78-6.21-58-6.67-87.14-8.64C234.61,821.55,231.91,821.24,227.18,820.79Z" fill="#025fab"/><path d="M119.18,421.33c16.66,3.74,32.94,7.07,49,11.17,6.6,1.68,12,1.44,15.33-4.83,3.17-5.92,7.34-5.21,12.55-3.5q62.34,20.4,124.77,40.54c2.32.75,5.92,1.24,5.46,4.14-1.56,9.94,6.1,9.45,11.84,11.15,23.86,7.08,47.7,14.24,71.64,21,6.91,2,7.87,4.39,2.82,9.63-10,10.35-18.26,21.89-22.77,35.72-1.32,4-3.84,5.17-7.8,5.84Q284.21,568.89,186.44,586c-7.57,1.34-10.17.18-11.28-8.18-6.83-51.45-25.13-99-50.74-143.9C122.35,430.33,119.7,426.91,119.18,421.33Z" fill="#025fab"/><path d="M917.86,631.77c-16-1.5-31-6-46.07-9.48-7.6-1.77-13.85-2.61-18.38,5.46-2.5,4.45-6.87,4.25-11.35,2.77q-63.31-20.89-126.66-41.63c-1.68-.55-4.27-.63-4-2.66,1.52-11.76-8.27-10.47-14.59-12.46-23.42-7.35-46.9-14.49-70.52-21.15-6.28-1.77-5.81-4-2.3-7.66a107.55,107.55,0,0,0,22.65-34.61c2.28-5.7,7.3-8.35,13.34-9.38q62.09-10.52,124.15-21.17c22.79-3.87,45.63-7.48,68.38-11.55,6.34-1.14,8.82.36,9.62,7.09,6,50.95,24.78,97.55,49.37,142.1C913.87,621.75,916.91,625.8,917.86,631.77Z" fill="#025fab"/><path d="M119.71,635.64c17.19-5.46,32.94-10.68,48.83-15.41,5.59-1.66,9.64-3.33,9.79-10.35.13-6.13,3.43-9.34,10.5-10.72,42.56-8.28,85-17.34,127.42-26.17,2-.42,4.95-2.33,6-.58,6.78,11.56,16.1,4.23,23.68,2.68,21.92-4.48,43.62-10.08,65.27-15.75,7.9-2.07,8.06.68,6.75,7.14-2.55,12.59-4.17,25.31-1.59,38.2,1.22,6.08-.75,11-5.68,15.11q-75.72,62.64-151.27,125.48c-4.06,3.37-7.21,5.17-11.28-.23-33.6-44.56-77-77.64-124.44-106A42.73,42.73,0,0,1,119.71,635.64Z" fill="#025fab"/><path d="M411,129.08c5.27,16.74,10.47,32.15,14.87,47.8,1.77,6.3,4.82,9.76,11.26,10.52,4.74.56,8.28,1.74,9.5,7.89,8.41,42.19,17.35,84.28,26.09,126.4,1,4.71,3.38,9.61-3.44,12.66-3.09,1.38-1.37,5-1,7.81,2.7,18.37,8.43,36,13.72,53.67a165.25,165.25,0,0,1,5.81,26c.6,4.58,0,6.86-5.52,5.06-13.86-4.49-28.18-3.69-42.42-2.77-5.7.37-10.22-.83-14.12-5.55Q365.86,346.08,305.67,273.8C295.33,261.35,295,261,307.74,251.07c38.62-30,67.75-67.88,92.94-109.21C403.23,137.65,405.68,133.34,411,129.08Z" fill="#025fab"/><path d="M225,236.57c13.78,8.49,22.51,19.83,32.59,29.69,6.3,6.16,12.36,11.83,22.33,6.22,4.81-2.7,8.89,1.17,11.89,4.84,26.2,32,55.71,61.06,82.69,92.36,3.59,4.17,10.87,7.76,4.81,15.77-2.48,3.28,2.09,5.48,4.14,7.65,18.07,19.2,36.1,38.45,54.43,57.39,5,5.16,3.76,7.51-2.38,9.24-13.15,3.72-25.26,9.4-35.82,18.31-5,4.23-10.76,2.48-16.21.47q-70.58-26-141.13-52.08c-13-4.78-26-9.77-39.25-13.7-8.75-2.59-10.22-6.17-7-14.73,10.92-28.6,19.91-57.79,23.65-88.38A666.46,666.46,0,0,0,225,236.57Z" fill="#025fab"/><path d="M624.71,127.88c-3.89,17.3-7.27,33.49-11.27,49.52-1.59,6.38-.61,10.95,5.14,14.4,4.32,2.59,6,5.6,4.11,11.31-13.87,41.08-27.27,82.32-40.86,123.49-1.51,4.58-2.28,9.5-9.4,9.08-4.68-.28-4.27,5-5.24,8.09-7.52,24.08-15.17,48.14-22.09,72.39-2.3,8.06-4.9,9.2-10.91,3.48a95.55,95.55,0,0,0-32.54-20.08c-5.16-1.95-7.5-5.53-8.44-11.14q-16-96.33-32.61-192.58c-1.41-8.15-.29-11.06,9.18-12.35,44.52-6.06,86.23-21.23,126-41.88C604.83,136.93,613.42,131.31,624.71,127.88Z" fill="#025fab"/><path d="M205.81,186.18c-.11-6.75,7.2-12.24,9.73-11.25,9.11,3.55,12-3.69,16.91-7.25,4.05-2.91,7.8-6.22,11.68-9.36,11-8.94,10.5-8.57,2.3-20.36-4.25-6.11-6.9-5-11.39-1.14-7.88,6.68-16.12,12.92-24.11,19.48-4.12,3.38-7.18,4.38-11.36-.67a319.56,319.56,0,0,0-22.69-24.17c-4.24-4.16-4.73-7.12-.08-11.27A409.64,409.64,0,0,1,223,84c3.48-2.31,6.54-4.29,9.84.51,2.91,4.23,3.14,6.9-1.57,10.36-11.17,8.23-21.77,17.25-32.7,25.8-3.54,2.77-6,5.49-1.45,9.18,3.28,2.66,4.8,9.51,11.61,4.12,10.33-8.16,21.4-15.39,31.83-23.45,4.37-3.38,6.87-3.57,10.06,1.39,9.82,15.24,19.55,30.58,30.33,45.13,4.56,6.16,3.17,8.87-2.12,12.6-17.75,12.55-35.17,25.58-49.73,41.89-11.85,13.27-23.43,26.79-35,40.36-4.71,5.55-8.39,7.5-15.36,1.95-21.17-16.86-43.1-32.76-64.68-49.11-3.46-2.62-8.38-4.61-3.1-10.49,4.41-4.91,8.07-6.05,13.42-1.63,10.71,8.85,21.65,17.44,32.57,26a125.76,125.76,0,0,0,11.31,8c1.88,1.17,4.1,3.19,6.52.26,1.72-2.08,2.13-3.61,1.11-6.54-2.72-7.83,2.19-13.06,10.77-12,3.62.47,5.35,0,4.47-4.22-1.58-7.57,3.54-13.43,10.86-12.72C206.44,191.92,206.44,191.92,205.81,186.18Z" fill="#025fab"/><path d="M101.58,459.71c-31-4.51-59.87-8.9-88.81-12.79-6.38-.86-7.48-3.4-6.42-9.17,1-5.44.63-10.79,9-9.42,16.86,2.76,33.88,4.55,50.69,7.58,9.1,1.64,13.86.83,15.84-10,3.43-18.81,4.31-18.65-13.94-24.13-13-3.91-13.79-4-16,9.47-1.48,8.94-4.85,10-12.76,7.88-21.41-5.64-21,.75-16.35-25.23,1.11-6.26,3.32-12.31,4.8-18.51.82-3.41,2.45-4.89,6.05-4,4,1,5,3.41,4.06,7.16-1.17,4.47-2.37,8.93-3.33,13.45-.65,3.09-1.46,6.06,3.34,7.33,5,1.34,5-2.42,6.46-5a6.56,6.56,0,0,0,.35-1c2.17-5.86.88-14.83,6.43-17,4.35-1.7,11.2,2.88,16.91,4.75,14.54,4.76,29.05,9.62,43.62,14.29,3.59,1.15,7,1.95,5.93,7-3.49,17.06-7.07,34.11-10.19,51.25C106.32,458.56,104.54,460.7,101.58,459.71Z" fill="#025fab"/><path d="M637.6,25.29c.11-4.52-7.48-5.29-4.4-10,2.95-4.55,7.61-2.33,11.67-1.51a66,66,0,0,1,8.26,2c3.33,1.14,8.58,1,9.35,4.18.88,3.69-2,7.24-6.88,7.66-1.63.14-2,1.78-1.41,3.32,1.41,3.7,5,3.65,8,4.37,2.1.5,4.93,2.23,6.23-1.53.46-1.32,1.68-2.48,1.8-3.79.92-9.73,6.41-7.28,12.81-5.73,8.43,2,6,6.67,4.4,11.94-6.91,22.42-6.82,22.35-29.77,15.26-8.83-2.73-17.84-4.89-26.76-7.34-4.63-1.28-7.18-.23-8.07,5.15C621.4,58,615.53,68,618.18,74.88c2.88,7.45,15.49,5.57,23.65,8.44,6.69,2.35,13.5,4.71,20.46,5.87,6.05,1,7.32,2.86,6,9-6.18,27.81-6,27.8-33.58,21.1-10.72-2.6-21.55-4.78-32.29-7.33-3.72-.88-7.49-1.38-6.39-7.42,4.3-23.79,8.56-47.61,11.82-71.56,1.11-8.16,4.44-8.7,11.18-8C625.08,25.59,631.42,28,637.6,25.29Z" fill="#025fab"/><path d="M907.5,254.88c-.49,3.26-3.09,4.18-5.07,5.42-10,6.25-20.07,12.28-30.09,18.45-3,1.82-5,2.81-8-.86-10.67-13.34-21.74-26.37-32.91-39.3-3.54-4.1-3.53-6.3.86-10.19,21.34-18.9,42.22-38.32,63.31-57.5,2.63-2.39,5.63-7.46,8.79-1,2,4.08,10.81,6.67,2.88,13.7-13.07,11.6-25.19,24.26-38.17,36-5.37,4.84-8,8.35-1.3,14.16,3.69,3.2,6.47,7.6,9.11,11.81,2.26,3.6,4.2,3.71,7.75,1.65,4.7-2.72,2.17-4.7.28-7.45-10.36-15.09-9.88-14.59,3.73-25.61,7.23-5.86,10.87-3.86,15,2.63,1.9,3,4.24,5.73,6.42,8.55,1.7,2.19,3.88,3.68,6.09,1,3.83-4.59,5.91-2.3,8.82,1.2,7.19,8.66,4.25,17.77-7.11,19.78-5.83,1-6.62-5.42-9.89-8.25s-4-11.45-9.65-7.7.88,8.52,3.11,12.58C903.55,247.66,905.59,251.39,907.5,254.88Z" fill="#025fab"/><path d="M390.36,118.3c.45,3.55-2.42,4.37-5.13,5.35-13.7,5-27.52,9.61-41,15-4.92,2-6.19-.25-7.76-3.73-12-26.52-23.81-53.11-36.16-79.45-2.93-6.24-.06-8.19,4.63-10.26,4.88-2.15,8.8-3.42,11.63,3.37,5.89,14.09,13,27.67,18.68,41.84,3.06,7.68,6.69,10.2,14.21,6.21a53,53,0,0,1,8.95-3.47c5-1.59,6.37-3.74,4.31-9.4C357,68.14,352.65,52,347,36.28c-2.43-6.75.84-7.69,5.79-9,4.33-1.09,8.42-4.51,10.69,3.07,8.34,27.89,17.1,55.65,25.69,83.46C389.58,115.23,389.91,116.62,390.36,118.3Z" fill="#025fab"/><path d="M86.75,588.94c9.31-3.15,13,1.55,13.14,12.22A113.58,113.58,0,0,0,103,626.54c1.66,6.84.25,9-6.74,10.19-24.19,4-48.28,8.71-72.38,13.27-6.35,1.2-9.93-.14-10.85-7.46-1-7.83,3.87-7.6,9-8.39,14.06-2.17,28-5,42.12-6.89,10-1.37,6.39-8.31,6.37-13.77,0-5.75-1-10.7-8.89-9.84-13.45,1.47-26.91,2.93-40.41,3.64-3.75.2-10.45,4.63-11.1-4.55-.53-7.47,2.81-9.53,9.93-9.82C41.75,592,63.44,590.38,86.75,588.94Z" fill="#025fab"/><path d="M431.6,105c1,5.69-.48,7.24-3.46,7.65-1.06.15-2.11.33-3.15.58-28.2,6.75-31.65,4.21-35-24.53-.74-6.42,4.29-6.4,7.31-6.69C409,80.81,410.78,74.89,407.17,65c-1.69-4.62-2.44-9.6-3.5-14.44-.87-4-2.76-6.36-7.29-5.3-7.66,1.78-11.24-1.57-11.57-9.17A14.66,14.66,0,0,0,383.63,31c-4.27-9.57-1.06-13.31,9.16-15.22,24.44-4.56,19.27-8.06,24.14,15.66,4.78,23.26,9.31,46.58,13.94,69.87C431.3,103.33,431.69,105.43,431.6,105Z" fill="#025fab"/><path d="M1032.54,615.88c-19.24-2.84-36.82-5.34-54.37-8.07-6.33-1-11.25-.62-10.95,7.62a4.52,4.52,0,0,1-.3,1c-4.74,20.79-6.67,21.62-26.79,13.08-3.49-1.48-4-3.15-3.5-6.37,1.84-10.84,3.79-21.67,5.16-32.57.72-5.66,3.3-6.84,8.49-6.09,27.76,4,55.53,8,83.35,11.63,9.71,1.26,5.85,7.3,5.5,12.54C1038.79,614.11,1037.66,618,1032.54,615.88Z" fill="#025fab"/><path d="M951.78,485.58c-5.43,1.6-8.22-1.06-9-7.39-1.16-9.86-2.56-19.72-4.46-29.46-1-5.26,0-7.82,5.58-8.87,27.22-5.1,54.45-10.16,81.55-15.87,11.5-2.42,8.22,6.9,10.34,11.71,2.67,6.05-1.63,6.82-6.35,7.66-17.83,3.14-35.54,7.13-53.44,9.73-7.39,1.07-9,4-7.52,10.36.24,1,.32,2.11.46,3.17C971.39,484.41,970.8,485.09,951.78,485.58Z" fill="#025fab"/><path d="M50.6,531.25c-12.48,0-25-.34-37.44.14-6.74.26-7.54-2.77-7.25-8.34.28-5.32-.2-9.58,7.65-9.31,16.74.58,33.54-.24,50.28.36,7.81.28,10.47-2,11-9.92,1-15.26,4.87-17.44,20.07-14,2.42.55,4,1.24,4,3.88a30.34,30.34,0,0,1-.11,4.27c-1.41,10.21,2.88,23.34-3.44,30s-19.59,1.71-29.77,2.45c-5,.36-10,.06-15,.06C50.6,531,50.6,531.12,50.6,531.25Z" fill="#025fab"/><path d="M568,470.41c6.92-1.71,8.18,2.21,7.8,8.3-1.69,27.41-19.13,44.31-46.56,45.58-6.64.31-7.63-2.31-7.31-8C523.31,490.93,541.92,472.1,568,470.41Z" fill="#025fab"/><path d="M531.63,528.86a44.77,44.77,0,0,1,44.22,48.6c-.33,4.08-2.16,4.32-5.34,4.63-24.36,2.4-51.44-24.72-48.46-48.67C522.63,528.76,522.79,528.68,531.63,528.86Z" fill="#025fab"/><path d="M516.75,536.41c-.44,25.15-20.94,45.46-45.14,45.63-4.07,0-7.31.46-7.66-5.63-1.5-25.92,18.77-47.37,45-47.72C515.86,528.6,517.87,531,516.75,536.41Z" fill="#025fab"/><path d="M155.71,307.23c-2.1,4.3-4.25,8.78-6.49,13.23-1.27,2.52-2.7,5-4,7.46-7.75,14.81-13.45,15.91-27.38,6.11-4.43-3.12-2.15-6.12-1.23-9.29,5.71-19.67,5.74-19.66-12.49-29.7-2.5-1.38-4.91-2.93-7.49-4.12-6-2.77-8.53-5.61-4.58-12.86,4.3-7.89,8-5.15,13.3-2,15,8.86,30.22,17.38,45.32,26.08C152.72,303.29,155.53,303.83,155.71,307.23Z" fill="#025fab"/><path d="M986.74,361.26c.15,3.89-2.59,4-4.91,4.78-18.12,6.1-36.28,12.09-54.29,18.5-4.59,1.63-6.42,0-7.95-3.82-3.4-8.56-6.66-17.18-10.53-25.53-2.84-6.12-.76-10.19,5-11.22,6.28-1.13,12.28-11.43,19.21-1.56,4.12,5.87,4.39,16.15,11.56,17.59,6.12,1.23,13.43-3.49,20.21-5.61q4.56-1.42,9.06-3C981.39,348.91,987.2,353.6,986.74,361.26Z" fill="#025fab"/><path d="M134.44,353c-4.3,11.65-7.78,22.87-12.65,33.46-2.48,5.39-7.9.93-11.45,0-14.54-3.61-15.5-5.16-10.37-19.27,3.3-9.07,2.27-14.25-8.07-16.55-6.16-1.37-11.94-4.52-17.81-7-4.78-2.06-9.8-3.05-5.91-11.11,3.42-7.08,6.5-7.25,12.68-4.49,15.88,7.08,32,13.67,48,20.44C131.4,349.55,134.64,349.82,134.44,353Z" fill="#025fab"/><path d="M940.35,432.41c-4.23.27-5.61-1.82-6.57-5.58a249.26,249.26,0,0,0-7.32-24.42c-2.35-6.42-1.06-9,5.86-11,17.64-5.33,17.77-5.88,23.44,11.84,1.92,6,4.22,8,10.54,6,8.8-2.74,17.91-4.46,26.85-6.75,4.63-1.19,6.75.65,7,5.17.2,3.76,5,9-1.73,10.77C979.15,423.45,959.71,427.79,940.35,432.41Z" fill="#025fab"/><path d="M1027.2,666c-.77,13.15-4.64,15.81-16.82,12-24-7.6-47.93-15.23-72-22.48-6.36-1.91-9.52-3.39-7.22-11.55,2.26-8,6.14-6.67,11.43-5.22q39.46,10.81,78.94,21.55C1024.56,661.08,1028.28,661.16,1027.2,666Z" fill="#025fab"/><path d="M97.11,550.4c-1.25,3.5,3,10.27-2.15,11.8-6.52,2-14,1.12-21,.62-2.56-.18-2.93-4.1-2.78-6.33.55-8.07-3.77-9.22-10.41-8.55-6,.61-12.07.42-18.11.75-5.45.3-10-.44-12,8s-12.07,4-18.53,4.66c-5.86.64-5-4.57-5-8.39.16-19.14-.93-15.23,15.1-15.75,20.25-.65,40.52-1,60.78-1.31C97.07,535.64,97.07,535.7,97.11,550.4Z" fill="#025fab"/><path d="M730.73,912.6c-.08-1.42-2.68-3.29-2.77-4.71-.13-2.15-3-4.86,1.07-6.15,2.91-.94,4.6,1,6.14,3.11,6.48,8.87,13,17.71,20.23,27.55.71-5.91-2.45-8.91-4.48-12.35-3.44-5.81-7-11.58-10.2-17.5-1.23-2.25-3.86-5.37,0-7.13,2.61-1.19,4.78,1.65,5.63,3.85,3.19,8.28,8.92,15,13.21,22.6,9.63,17,19.32,34,28.82,51,1.21,2.17,4.22,5.05,1.08,7.36-3.73,2.74-5.45-1.11-7.52-3.47-5.17-5.89-8.88-13.15-16.61-16.82,3.83,6.5,7.68,13,11.48,19.51,1.42,2.44,3.57,5.37.16,7.42s-5.15-1.42-6.45-3.7C760.68,966,751,948.66,741.17,931.44c-2-3.56-2.36-5.51-5.53-10.17C733,916.69,733.57,916.69,730.73,912.6Z" fill="#025fab"/><path d="M882.53,786.09c1.19-.69,5.45,1.7,3.2-2.13-1.64-2.79-5.71-4.08-8.42-6.36-1.89-1.59-6.29-2.21-4.1-6.07,2.46-4.34,5.9-1.21,8.2.27,9.86,6.35,19.45,13.11,29.15,19.71,9.54,6.49,18.68,13.73,31.48,17.22-6.6-10.9-16.71-15.16-25.36-21.11-10.24-7-20.86-13.53-31.21-20.42-2.47-1.65-6.77-3.41-4.42-7.1,1.92-3,5.38-.27,7.51,1.16,21.29,14.19,42.61,28.36,63.56,43,5.37,3.76,12.78,9.81,8.77,16.38-4.24,6.94-12.67,1.87-18.07-1.19-14.51-8.2-28.34-17.61-42.72-26.08-1.77-1-4.13-6.54-7.48-1.31C887.75,792.64,883.67,791.83,882.53,786.09Z" fill="#025fab"/><path d="M50.89,585.5c-11.75.54-23.51,1-35.25,1.69-5.18.32-8.29-.78-7.46-6.88.63-4.62-1.51-10.3,6.73-10.48,25.3-.53,50.6-1.44,75.9-2.29,4.48-.15,7.71.33,7.16,6.17-.43,4.6.69,9.48-6.5,9.69-13.54.41-27.06,1.21-40.59,1.85A2.18,2.18,0,0,0,50.89,585.5Z" fill="#025fab"/><path d="M100.5,847.81c-1.21-.55-2.87-.8-3.58-1.76-1.25-1.69-.28-3.52,1.2-4.63,4.56-3.41,9.35-6.52,13.85-10,4-3.09,12.73-6.24,9.19-10.78-4-5.18-9,3-13.25,5.71s-7.78,6.25-11.81,9.18c-1.92,1.4-4.64,3.37-6.49.48-1.46-2.28,0-4.91,2.17-6.53,3.67-2.8,7.53-5.36,11.26-8.09q26.73-19.59,53.46-39.2c2.17-1.59,4.73-4.63,7.27-1.32,2.39,3.12-.85,5.27-3,6.9-5.66,4.32-11.6,8.28-17.3,12.55-1.64,1.23-3.56,3-2,5.35,1.77,2.54,3.83.77,5.46-.42,5.76-4.2,11.38-8.59,17.13-12.81,2.21-1.62,4.56-4.22,7.38-1.11,3.43,3.78-.88,5-2.71,6.39q-32,24.1-64.25,47.9A29.89,29.89,0,0,1,100.5,847.81Z" fill="#025fab"/><path d="M561,1026c3.3-17.45.09-34.63-.92-51.86-.33-5.69-.71-11.37-.94-17.06-.08-2.09-.16-4.49,2.84-4.77,2.67-.25,3.81,1.34,4,3.8,2.74,29.06,6.71,58.1,2.8,87.35-.38,2.86-.81,7.1-4.88,7.36-4.28.27-7.42-2.46-8.9-6.42-3.13-8.4-4-17.29-4.94-26.12-2.13-19.48-4-39-3.88-58.6,0-2.68-.77-6.66,3.2-6.72s3.29,3.93,3.48,6.61c1.16,16.34,2.17,32.69,3.35,49C556.62,1014.55,557.31,1020.55,561,1026Z" fill="#025fab"/><path d="M848.89,826.71l3.08,2.91c.92,4.25,6.84,7,3.77,12.54-3.39.61-5-4-10-2.52,8.76,18,22.29,30.55,39.72,41.85.11-8.37-2.72-12.76-9.09-13.92-6-1.09-8.31-6.32-12.35-9.58-2.82-2.28-1.46-4.23.61-6,1.66-1.42,3-5,5.78-1.76,10.32,12.06,24.1,21.14,31.08,36,1.34,2.85,2.8,6.17.22,9-3.13,3.51-6.52,1.35-9.67-.25-23.29-11.79-39.2-31.31-54-51.91a102.84,102.84,0,0,1-7.38-12.93c-1.24-2.4-3.31-5.31-.24-7.62,2.33-1.75,5.17-1.51,8.14-.61C842.27,823.11,844.36,827.61,848.89,826.71Z" fill="#025fab"/><path d="M976,746.17c-9.61-8.72-21.29-13.68-32.86-18.82-9.75-4.33-19.61-8.44-29.3-12.91-2.28-1.05-6.33-2-4.58-5.8,1.38-3,4.22-1.33,6.52-.4,26.42,10.72,52.3,22.57,76.52,37.71,3.93,2.46,10,5.51,6.93,11.41-2.53,4.83-8.25,2.67-12.68,1.59-22.69-5.52-42.76-17.43-64.06-26.36-4.9-2.05-9.72-4.28-14.61-6.34-2.51-1.06-4.87-2.52-3.44-5.47,1.14-2.34,3.94-1.5,5.76-.71,13.38,5.81,26.68,11.81,40,17.74C958.51,741.5,966.35,746.42,976,746.17Z" fill="#025fab"/><path d="M81.88,484.29c-19.31-2-38.37-4.37-57.51-5.81-10.27-.77-5.54-7-5.68-12-.19-6.76,3.64-6,8.37-5.47C49,463.69,70.89,466,92.79,468.52c4.14.48,9.14-.83,8.3,7.27-.75,7.21-3.23,9.25-9.77,8.56A87.64,87.64,0,0,0,81.88,484.29Z" fill="#025fab"/><path d="M698.61,1000.86c1.67-9.23-2-15.2-7.69-20.36-13.94-12.66-18.15-29.15-18.44-47.09-.06-3.83.09-8.68,4.84-9.64s6.49,3.32,8.3,6.83c1.29,2.51,2.74,4.94,4,7.49,1.85,3.89,4.5,9.6.86,11.76-5.66,3.35-4.35-5.86-8.95-7.17-2.6,6.14,1.27,9.83,5.09,13.26,16.72,15,19.44,35.42,21.4,56,.33,3.48-.34,7.65-4.28,9-3.56,1.19-5.82-2.14-7.89-4.41a35.9,35.9,0,0,1-9.43-21c-.24-2.44-.51-5.67,2.45-6.33s3.94,2.25,4.66,4.73S694.73,998.68,698.61,1000.86Z" fill="#025fab"/><path d="M411.1,941.88c-6.39,4.16,1.22,19.44-14.48,15.87-3.81-.87-3.3,4.64-4.49,7.22-1.12,2.42-1.76,6.28,2.24,6.91,6.67,1,4.73,5.55,3.31,8.6-1.9,4.08.61,11.51-8.33,11-8.32-.42-6.13,8.08-8.78,12.43-3.24,5.32,2.39,4.47,4.68,5.58,3.07,1.48,4.63,3.32,2.89,6.66-2.63,5-.37,13.22-7.4,15.07-3.95,1-9.18-.69-12.95-3.51-.79-.59-.43-3.35,0-4.91,8.22-27.44,16.63-54.83,24.77-82.29,1.55-5.23,4.76-5.65,8.84-4.07C404.61,937.7,409.27,936.63,411.1,941.88Z" fill="#025fab"/><path d="M473,959.44c0,7,.72,14-10.23,12.6-3.59-.45-4.74,11-.58,12.74,8.28,3.55,3.5,9.56,3.7,14.53.22,5.42-3.08,6.23-8.08,7.08-7.39,1.26-2.73,9-5,13.41-2.34,4.61,2.21,3.5,4.53,4.47,10,4.22,1.42,11.44,2.38,17.18s-3.43,5.45-7.75,5c-6.91-.73-11.23-.93-9.08-11,5.47-25.64,9-51.7,13.13-77.63.83-5.25.47-10.1,8.47-8.1C470.19,951.1,476.62,950.66,473,959.44Z" fill="#025fab"/><path d="M782.32,937c2.07,3.05,4.31,6.24,6.43,9.52s3.91,6.85,8.88,3.07c3.24-2.46,6.08-.62,7.73,2.74,2.27,4.63,8.33,8.57,6.5,13.6-1.25,3.45-6.92,5.75-11.05,7.56-2.95,1.29-3.84-2.48-5.08-4.37-15.76-24-31.38-48.08-47.16-72.06-1.63-2.48-4-4.33.29-6.46,4.16-2,6.8-8.2,12.71-5.39,4.18,2,3.88,7.41,6.65,10.62,3.52,4.07,2,6.62-2,9.21-4.5,2.9-.51,5.69,1,7.92s1.95,6.7,6.81,4.43c11.34-5.29,9.79,6.84,13.56,11C792.91,934.2,783.27,933.44,782.32,937Z" fill="#025fab"/><path d="M679,1028c-5,1.09-6.22-1.56-7.28-5-8.3-26.77-16.47-53.59-25.24-80.2-2.73-8.28,3.5-7.32,7.5-9.29,4.59-2.26,8.34-2.53,9.44,3.55,1.06,5.87,8.43,13.18-3.73,16.45-3.7,1-.85,4.06-.29,6.22.87,3.33.92,7.89,6,7,8.51-1.48,7.38,5.43,9.34,9.8,2.11,4.7,2.66,7.82-3.4,10.94-5,2.59-.42,8.24.08,12.46.41,3.43,2.38,5.21,6.68,4.74s12.22,11.9,11.22,17.37C688.17,1028,682.18,1026.54,679,1028Z" fill="#025fab"/><path d="M929.36,666.72c4,5.68,17.67,0,15,13.88-.82,4.29,3.9,4,6.77,5.08,3.19,1.19,6.84,2.59,8.1-1.53,2.16-7.06,6.77-4.38,9.79-2.33,3.55,2.41,11.67-.61,10.08,8.81-1.39,8.25,7.5,5.16,11.2,8,3.43,2.65,5.61,1.49,6.76-2.77.75-2.76,2.51-5.7,6.13-3.93,5.52,2.69,13.52,1.56,16.3,8.11,1.56,3.67-1.55,8.18-3.83,11.73-1.69,2.64-4.55,1.35-6.84.57-27.87-9.53-55.71-19.16-83.6-28.64-4.07-1.38-5-3.78-3.13-7.26S923.28,667.77,929.36,666.72Z" fill="#025fab"/><path d="M581.72,968.09c-5.56,4.81-2.61,8.36-.05,11.81,13.48,18.17,14.94,38.61,11.5,60-.66,4.09-2,8.32-6.22,8.94-4.8.71-6.54-4.08-7.6-7.63a188.86,188.86,0,0,1-4.3-19.79c-.56-3,.09-6.11,3.81-6.38s3,3.09,3.33,5.4c.4,2.74.39,5.69,3.77,7.46,5.7-8,.58-14.41-3.41-20.25C572,992.15,570.79,975.3,574,957.58c.7-3.92,1.48-8.41,6.39-8.53,4.28-.11,5.42,4,6.39,7.47,1.24,4.44,2.24,8.94,3.36,13.4.69,2.77,2,6.12-1.66,7.35-4.65,1.57-4.75-2.67-5.65-5.55C582.48,970.72,582.2,969.71,581.72,968.09Z" fill="#025fab"/><path d="M780.17,891.15c-.68,6.35,4,8.32,8.45,10.38,21.14,9.82,30.34,29,38.4,49,1.57,3.9.59,6.91-3.15,9s-5.94.18-8.22-2.47c-4.64-5.38-9.6-10.5-14-16.05-1.57-2-3.92-5.19-.34-7.33,2.71-1.62,4.36,1.16,6,3s3.32,3.51,5.91,6.22c2.43-9.08-2.59-12.74-8.14-15.55-17.22-8.71-27.27-23.44-34.95-40.36-2.24-4.94-3.52-10.29,1.6-13.33C776.28,871,779.14,876,782,879s5.87,6.22,8.48,9.58c1.75,2.26,3.33,5.34.51,7.63-2.66,2.17-4.43-.7-6.11-2.41C783.62,892.61,782.8,890.91,780.17,891.15Z" fill="#025fab"/><path d="M233.12,854.33c0,5.55-12.51,14.11-16.49,11.47-4.25-2.83-5.8.11-7.73,2.33-2.08,2.38-6.31,4.34-2.09,8.61,5.73,5.78-2.14,7.58-3.86,10.94-1.5,2.93-3.54,7.33-8.94,3.7-6.43-4.32-8.08,3.22-11.71,5.65-3.88,2.59-2.14,5.29.51,7.7,4.24,3.86.36,6.53-1.72,8.88-2.81,3.18-4.24,9.17-10.1,7.59a15.68,15.68,0,0,1-9.74-7.85c-1.43-2.77,1.73-4.3,3.18-6.12,16.61-20.86,35.13-40,53-59.78,1.57-1.74,3.08-4.46,6-1.88C226.84,848.55,230.16,851.65,233.12,854.33Z" fill="#025fab"/><path d="M298.82,930.44c-2.93-3,.89-6.46-2-10.18-12.71,12.6-19,28-23.38,45.31,7.12-1.41,7.58-8.1,11.8-11.27,2.15,9.78-10.13,31.27-18.76,33.53-3.19.84-5-.5-5.29-3.42a22.47,22.47,0,0,1,.3-8.47c7.94-26.8,19.48-51.82,37.44-73.51,2.53-3,6.26-6.34,10.06-4.39,4.62,2.36,3.48,7.34,1.71,11.43C307.49,916.84,309.07,927,298.82,930.44Z" fill="#025fab"/><path d="M882.53,786.09l10.11,6c1.77,8.2-5.29,2.63-8.07,5.48,11,14.18,25.06,24.23,42.58,31.47-.85-6.83-7.53-8.19-9.21-13.13,9.06-1.44,28.68,13.73,29,22.63.27,8.56-6.71,5.24-9.89,4.28a86.3,86.3,0,0,1-27.25-14.38c-3.09-2.35-6.41-4.41-9.62-6.6-10.53-4.78-20.12-10.73-26.31-21-.64-.83-1.24-1.71-1.94-2.49-4.26-4.69-10.72-11.54-7.08-15.91C869.42,777,877,782.17,882.53,786.09Z" fill="#025fab"/><path d="M449.9,970.56c-.08,3.37-1,6.22-4.58,7.81-3.93-2.25-.39-6.79-3.87-10.29-10.38,15.56-12.1,32.89-14,51.31,7.22-2.37,5.93-9.35,9.69-13.35,6.46,8,1.33,14.52-1.46,20.9-2.7,6.16-3.57,17-12,15.06s-4.17-12.16-3.86-18.7a180.66,180.66,0,0,1,17-67.81c4.18-9,6.86-10.23,12.82-6.78C451.55,956,451.14,963.26,449.9,970.56Z" fill="#025fab"/><path d="M94.12,810.22c7.54,0,10.25-5.56,15.45-4.56-3,9.14-19.37,19.85-28,18.83-4.6-.55-5.42-3.14-4.07-6.63a25.62,25.62,0,0,1,4.88-8.17c17.24-18.37,37.1-33.18,60.21-43.46,4-1.77,8.81-4,11.68-.06s-.55,8.75-3.65,11.22c-5.94,4.74-9.2,14.13-19,12.84-2.67-4.55,4.79-5.61,1.65-10.87C118.92,787,104.77,794.65,94.12,810.22Z" fill="#025fab"/><path d="M519.78,546.9c3.91,11.39,7.66,19.23,14.63,25.07,3.61,3,3.22,6.8,1.08,10.6-1.57,2.77-3.28,5.48-4.66,8.35-2.48,5.14-4.87,12.13-10.64,12.12-6.64,0-9.77-7.13-13.15-12.59-4.73-7.63-6-14.71,1.53-21.36C514.34,564,517.14,557.18,519.78,546.9Z" fill="#025fab"/><path d="M902.78,728.45c5.58,2.8,15.2,4.18,17,10,2.26,7.19,6.9,9.09,11.84,11.73,15,8,30.18,15.66,45.2,23.63,3.18,1.69,9.36,2.92,7.21,7.41-2.56,5.36-7.7.94-11-.76-14.15-7.34-28.08-15.11-42-22.91-5.62-3.15-10.68-5.74-17.9-4.26-7.69,1.57-14.46-3.84-19.44-8.91-3.43-3.5,1.15-8.48,3.32-12.44C898.1,730.09,899.33,728.25,902.78,728.45Z" fill="#025fab"/><path d="M519.6,504.75c-3.71-11-7.68-19.79-14.41-27.37-5-5.59,6.83-28.11,14.38-28.5,2.42-.12,3.74,1.83,5.21,3.3,5.35,5.37,8.45,12.17,11.75,18.82,1.3,2.62,1.78,5.39-1.16,7.6a31.75,31.75,0,0,0-9.2,11.55C524.16,494.22,522.43,498.43,519.6,504.75Z" fill="#025fab"/><path d="M612.32,958.58c-6.83,25.55,3.47,50.38,4.4,75.81.1,2.77,2.55,7.41-1.72,8.3-5.57,1.16-4.45-4.35-4.89-7.4-2.52-17.58-4.65-35.21-7.19-52.79-.65-4.52.37-10.13-6.8-11.51-2.7-.52-5.87-19.93-3.76-21.92,4.6-4.34,11.16-3.68,16.18-2.83C614.56,947.26,610.4,954.17,612.32,958.58Z" fill="#025fab"/><path d="M543.29,526.22c12-4.25,19.25-10.09,26.43-16.26,4.33-3.72,9.58.86,13.47,3.54,21.06,14.47,17.54,13.22-.22,25.36-6.7,4.58-13.34,6-19.17-2.33C559.88,530.92,552.82,529.43,543.29,526.22Z" fill="#025fab"/><path d="M276.19,908.17c-5.82-.57-11.08,6.4-9.07,11.89,3.3,9-.39,14.84-10.57,16.21-3.29.44-3.28,3.15-4.43,5.15Q245,953.87,237.81,966.3c-1.29,2.25-2.66,4.56-5.74,2.53-2.69-1.78-2.14-3.92-.68-6.39,14-23.82,27.93-47.73,42.07-71.49,2.35-4,11.46-2.05,13.08,2.9s-3.33,8.1-4.85,12.27C280.77,908.65,279,910.46,276.19,908.17Z" fill="#025fab"/><path d="M978.41,792.26c.41,6.3-7.88,13.07-12.88,10.26-25.07-14.13-50-28.59-73.49-45.21-2.13-1.5-7.13-2.75-4.35-6.72,2.11-3,5.42.09,7.57,1.4,15.79,9.59,31.38,19.5,47.12,29.18,4.91,3,9.71,7.71,15.31.19C959.61,778.76,978.19,788.81,978.41,792.26Z" fill="#025fab"/><path d="M976.4,300.27c-1.88,4.58-6.41,4-9.66,5.55s-6.51,3.64-9-1.13c-6.06-11.6-12.13-23.2-18.3-34.75-1.43-2.67-1.41-4.92,1.56-6,4.09-1.54,9.44-7.72,12-4C961.72,272.71,968.71,286.7,976.4,300.27Z" fill="#025fab"/><path d="M638.1,958.74l-.48-4.92c.15-5.2-7.08-12.82-.48-14.84,7.41-2.27,5.83,7.93,7.25,12.36,7.69,23.94,14.47,48.18,21.31,72.39.71,2.5,4,6.68-1.22,7.92-4.29,1-4.88-3.35-5.73-6.26q-9.33-31.68-18.38-63.44C640,960.51,639.63,959.27,638.1,958.74Z" fill="#025fab"/><path d="M896.4,822.45c11.49,8.95,23,17.83,34.42,26.91,2.22,1.77,6.23,3.74,3.14,7.4-2.64,3.13-5.41-.14-7.35-1.61q-34-25.74-67.71-51.88c-2.07-1.6-5.66-3.7-3.49-6.78,3-4.19,5.43.19,7.89,1.61,2.76,1.59,5.4,3.39,8.09,5.11C880.84,808.18,889.42,814.28,896.4,822.45Z" fill="#025fab"/><path d="M577.52,106.71c-4.58-1.18-13.25,2-14.54-3.94-1.81-8.33-.06-17.63,1.26-26.35.44-2.92,5-1.45,7.7-1.55,3.34-.12,4.14,1.89,3.72,4.9-.83,6,3.12,7,7.77,7.66,4,.52,10.48-2,8.45,6.54-1.52,6.39.33,15.68-11.5,12.76A15,15,0,0,0,577.52,106.71Z" fill="#025fab"/><path d="M823.05,226.49c-3.17-2.5-4.52-3.53-5.83-4.61-16.83-13.95-16.83-13.95-2.61-30.21,1.16-1.33,2.47-2.55,3.54-3.95,2.15-2.81,4.15-3.26,6.72-.35,2,2.22,6.53,3.83,3,7.38-4.67,4.76-2.57,7.53,1.28,11.08,2.08,1.92,6.6,3.75,4.54,7.28C830.94,217.93,826.77,222,823.05,226.49Z" fill="#025fab"/><path d="M496.05,960.25c-1.95,28.94-3.76,55.88-5.59,82.83-.18,2.67.68,6.43-3.85,5.9-3.87-.45-3.59-4-3.42-6.69q2.65-41.5,5.57-83c.22-3.16.3-7.6,4.57-6.83C499.05,953.5,495.71,958.84,496.05,960.25Z" fill="#025fab"/><path d="M989.21,292.43c.32,3.07-.7,4.4-2.69,4.73-3.26.55-6,.5-8-3.27-6.28-12.3-12.87-24.45-19.49-36.57-1.17-2.14-2.07-3.77.8-5,2.09-.89,4.64-4,6.45-.87C974.33,265.24,981.9,279.26,989.21,292.43Z" fill="#025fab"/><path d="M1009.4,627.86c-4.06,5.41,1.42,16.08-8.1,17.49-3.52.52-15.4,1.8-13.3-7.86,1.34-6.19-3.09-18.07,9.62-18.26C1002.34,619.17,1009.52,619,1009.4,627.86Z" fill="#025fab"/><path d="M4.25,472.78C4,468.25,7.74,462.57,1,459c-1.43-.77-1.33-3.36.33-4.63,2.51-1.92,5.51-.69,8.3-.79,3-.11,4.8,1.42,4.7,4.48s-.47,6.38-.84,9.55c-.44,3.82-1.91,7.59.83,11.3,1.8,2.44,2.25,5.54-.36,7.69-2.13,1.75-4.79.12-7.17-.27-4.29-.72-3-4-2.85-6.74C4.05,477.41,4.14,475.28,4.25,472.78Z" fill="#025fab"/><path d="M1045,552.07c0,3.2-.07,6.4,0,9.59.12,4.3-.3,7.68-6.12,7.53s-4.77-4-4.65-7.4c.21-6,.57-12.07.76-18.11.12-3.68-.06-7.13,5.32-7.22,5.64-.1,5.06,3.49,5,7.08-.06,2.84,0,5.69,0,8.53Z" fill="#025fab"/><path d="M731,40.56c4.44,5.31,14.65,2.5,14.83,11.09.07,3.3.12,11.84-7.69,9.66-5.47-1.52-14-1.49-13.83-9.94C724.4,48.18,725.71,42.41,731,40.56Z" fill="#025fab"/><path d="M938.56,233.83c-2.74.09-13-12-12.31-13.91,1.81-4.93,7-9.75,10.43-9.16,6.11,1,9.3,8.2,10.6,13.83C948.66,230.61,940.69,230.42,938.56,233.83Z" fill="#025fab"/><path d="M48.17,314c4,1.49,9.36,1.73,8.37,6.88-.9,4.69-1.16,11.47-7.23,12.36-2.93.43-9.6-.31-9.11-6.1C40.64,321.86,42.31,316.2,48.17,314Z" fill="#025fab"/><path d="M931.06,465.89c.67,6.27-1.24,8.8-6.38,8.77-10.85-.08-4.33-9.32-7-13.81-2.31-3.94,2.8-4.58,5.93-4.74C932.23,455.66,930,462.69,931.06,465.89Z" fill="#025fab"/><path d="M172.17,178.38c2.65,2.76,7.85,4.77,6.59,8.72-1.39,4.35-4.39,9.68-9.85,9.93-3.9.18-8-3.76-7.36-7.47C162.46,184.31,167.26,181,172.17,178.38Z" fill="#025fab"/><path d="M667.08,64.31c2.34,2.15,10.29-.87,9.1,7.08-.46,3-.85,9.13-6.78,6.41-3.9-1.79-12,1-10.55-7.91C659.47,66.07,660.13,61.69,667.08,64.31Z" fill="#025fab"/><path d="M327.87,47.08c-5.91,1.23-7.32-2.61-6.77-5.2,1.58-7.39,8.73-6.59,14.15-8.14,4.41-1.27,6.31,2,6,5.09C340.44,48.09,330.83,43.16,327.87,47.08Z" fill="#025fab"/><path d="M194.41,170.68c-2.15,4.51-5.62,8.82-10,10.21-3.78,1.2-8.15-4-7.92-6.88.44-5.46,5.35-9.59,10.63-10.52C190.36,162.92,192.9,167,194.41,170.68Z" fill="#025fab"/><path d="M655.48,63.72c-2.2,4-1.79,10-8.25,8.17-3.91-1.12-10.29,0-9.35-7.26.43-3.28.65-8.32,5.82-6.68C647.71,59.21,654,57.58,655.48,63.72Z" fill="#025fab"/><path d="M1029.07,407.09c1,5.6-2.29,5.92-5.72,6-9.72.24-5.62-8.36-7.39-12.67-2.23-5.44,4-5,6.84-5C1031.7,395.71,1025.7,404.35,1029.07,407.09Z" fill="#025fab"/><path d="M175.56,167.35c-3.57,3.6-6.05,9-11.16,10-3.23.58-6.65-4.05-6.21-7.17.62-4.41,3.92-8.84,8.47-9.85C170.83,159.35,173.13,163.51,175.56,167.35Z" fill="#025fab"/><path d="M122.17,511.3c-.1,4.59,1,9.2-6,9-5.32-.16-6.87-2.64-6.71-7.29.16-4.49.42-8.46,6.75-8.54C121.84,504.39,122.92,507.06,122.17,511.3Z" fill="#025fab"/><path d="M463.8,1050.81c1.72-6.78.55-13.52,1.24-20.1.28-2.63,1.56-5,4.81-4.35,2.55.53,3,2.92,2.82,5.1C471.91,1038.77,470.81,1046,463.8,1050.81Z" fill="#025fab"/><path d="M721.5,1010.16c-.28,3.51.38,6.77-3,7-2.59.17-3.17-2.61-2.8-4.74.88-5.1-3.66-8.26-4.25-12.76-.3-2.26-1.81-5.25,1.3-6.42,2.87-1.08,4.53,1.08,5.25,3.73C719.32,1001.71,720.53,1006.47,721.5,1010.16Z" fill="#025fab"/><path d="M20,620c-1.28,3.14,2.47,9.19-4.81,9.27-7.54.09-3.91-5.93-4.41-9.32-.52-3.57-1.38-8,5.12-7.72C22.07,612.53,19.63,616.74,20,620Z" fill="#025fab"/><path d="M765.05,983.51c-10.45-20.57-21.12-41-31.72-61.52-1.39-3.43-2.37-4-5.2-8.54-2.29-2.53-2.35-10.16-8-7.21-4.86,2.53,1.22,5.21.73,8l15.41,30.29c7.53,14.07,15,28.21,22.68,42.17,1.5,2.71,2.47,8.23,7.06,5.8S766.43,986.24,765.05,983.51Z" fill="#025fab"/><path d="M470.35,470.48c-4.58,0-6.45,1.32-6.29,6,.33,10.06,1.87,19.74,7.36,28.43h0c5.25,6.39,12.17,10.66,19,15.05h0c6.55,1.38,13.1,2.84,19.67,4.13,4.75.93,6.93-.49,7.05-6A46.23,46.23,0,0,0,470.35,470.48Z" fill="#025fab"/><path d="M466.82,509.39h0c-3.89,1.73-8,3.14-11.65,5.24-16.59,9.46-16.67,12.32-1,23.19,8.06,5.59,15.74,9.86,23.09-1.44,3-4.56,9-5.42,13.76-7.79,1.58-.79,5.17.74,4.3-2.72-.38-1.53-3.16-2.46-4.85-3.66l-23.65-12.82Z" fill="#025fab"/><path d="M518.26,954.13c-4.28-.31-3.53,4.45-3.91,7.26-.56,4.21-.42,8.52-.58,12.79h0v22a32.64,32.64,0,0,1-3.94-19.82c-.36-5.68-.56-11.38-1.14-17-.29-2.81-1.06-6.24-4.73-6-3.36.26-2.57,3.61-2.86,6-3.15,25.84-3.47,51.83-3.74,77.8-.05,4.37-3.14,12.67,2.81,12.67,7.76,0,4.47-8.69,4.94-13.82.7-7.55-3.08-15.49,1.7-24.07,1.15,11,2.09,20.52,3.19,30.06.37,3.23-1.54,8.59,3.47,8.63,5.4,0,4.13-5.78,4.37-9.19,1-14.2,1.64-28.43,2.13-42.66.43-12.45.58-24.92.64-37.38C520.64,958.73,521.79,954.38,518.26,954.13Z" fill="#025fab"/><path d="M449.9,970.56l-.24-21.86C453.14,956,452.74,963.24,449.9,970.56Z" fill="#025fab"/><path d="M138.81,750.68c-1.55-2.57-3.47-1.53-5.42-.37-5.79,3.44-11.63,6.82-17.45,10.23l-9.88,7.12c.71-4.93,3.51-7.75,7-10,5.37-4.59,10.86-9.06,16.07-13.83,2.23-2,5.61-4.72,2.58-8-2.77-3-6-.35-8.58,1.35-12.23,7.93-24.36,16-36.59,23.92-9.54,6.18-19.24,12.12-28.71,18.42-2.16,1.43-5.26,3.62-2.9,6.8,2.05,2.77,4.51-.1,6.69-.78,6-1.86,10.47-7.38,18-8.19-4.18,7-11.37,9.15-15.34,14.66-1.59,2.21-4.24,4.57-1.62,7.44,2.22,2.44,4.75.46,6.73-.79q33.81-21.32,67.52-42.79C138.93,754.54,140.24,753.06,138.81,750.68Z" fill="#025fab"/><path d="M550.8,1.46A182.12,182.12,0,0,1,526.22.18c-7.08-.78-10.31.81-10,8.86.47,13.54,0,27.12-.41,40.67-.41,14.92-.55,15-14.95,15.21-2.87,0-6.77,2-7.73-3-.79-4.11.46-6.42,5-7.55,7.84-1.93,4.63-8.74,4.35-13.4-.35-5.84-5.45-2.91-8.46-2.74a232.11,232.11,0,0,0-23.41,2.28c-3.76.59-10-2.81-10.28,5.4-.21,6.23,1.2,10.43,8.34,11,5.28.41,4.37,5,4.44,8.25.09,4.65-3.85,2.91-6.34,3.32s-5,.32-7.39,1.07c-6.42,2.07-9-.22-9.77-6.78-2-15.9-4.85-31.69-6.66-47.6-.82-7.23-3.79-8.84-10.52-7.81S422.39,10,424,18.16q8.31,41.33,15,83c1.15,7.18,3.75,8.61,10.38,8,21.62-1.91,43-7.16,64.93-4.55,10.34,0,20.69-.07,31,0,4,.05,6.6-.57,6.93-5.63q2.88-44.31,6.35-88.57C559.2,4.19,557.76,1.28,550.8,1.46ZM540.14,25.69c-.67,18.1-1.46,36.19-2.24,54.28-.1,2.37.47,5.27-3.34,5.35-4.64.11-3.68-3.45-3.72-6-.12-8.52-.05-17-.05-25.58h-.28c.45-9.57.77-19.15,1.43-28.71.19-2.75.87-5.83,4.9-5.61C541.5,19.62,540.24,23.14,540.14,25.69Z" fill="#025fab"/><path d="M825,150.93c-10.33-7.56-20.34-15.57-30.54-23.31-15.43-11.69-15.45-11.66-27.8,2.15-.24.26-.43.57-.65.85-1.6,2-3.2,4.08-6.16,2.26-2.53-1.56-5.8-1.83-6.2-6.22-.8-8.86-10.48-14.11-18.71-11.21-6.4,2.26-11.6.48-12.09-7.13-.23-3.54-1.48-4.71-4.41-6.11-6.43-3.09-12.54-6.79-17.59.59-6.37-.74-8.46-2.94-6.46-8.7,5.81-16.77,10.59-33.93,17-50.44,3.53-9-1.9-9.58-7.48-12.31-7.66-3.76-7.57,2.4-8.88,6.19-9.75,28.17-19,56.49-29.1,84.55-1.93,5.39.54,6.3,4,7.49C713.79,144.67,753.14,168,790.41,195c4.77,3.46,7.87,3.49,11.4-1.27q12.08-16.29,24.57-32.27C829.69,157.25,829.62,154.28,825,150.93Zm-24.73,9.32c-7.47-3.28-13.77-8.53-19.6-14.15-2.54-2.45.41-5.26,2.14-5.93,4.49-1.73,7.89,1.88,11.31,4,4.72,2.95,9,6.55,11.58,11.2C804.66,158.74,802.79,161.33,800.31,160.25Z" fill="#025fab"/><path d="M1042.17,492.57c1.14-5.32-2.18-6.4-7.05-6q-42.09,3.25-84.23,6c-4.44.29-6.73,1.62-6.08,6.33,3.32,23.82,1.22,47.64-.18,71.45-.3,5.09,1.81,6.94,6.6,7.4,19.85,1.94,39.65,4.45,59.52,6,17.35,1.39,17.41,1,17.87-16,.12-4.63,0-9.27,0-13.9h1c0-7.49-.3-15,.1-22.45.3-5.53-1.4-7.74-7.18-7.37-9.25.59-18.54.92-27.8.7-5.85-.14-7.26,2.32-7.21,7.6.07,7.83-.75,15.67-.75,23.5,0,5.48-1.93,7.23-7.62,7.12-6.33-.12-6.69-3.23-6.6-8.08.22-12.12.6-24.28-.07-36.36-.43-7.82,2.63-9.26,9.69-9.49,18.16-.61,36.29-2.11,54.43-3.34C1046.81,505,1041.18,497.17,1042.17,492.57Zm-43.93,63.25c1-6.36-1.52-13.42,9.85-13.12,10.17.27,6.61,6.62,7.44,11.16-.73,4.86,2.64,11.73-7,10.77C1002.59,564,996.78,565,998.24,555.82Z" fill="#025fab"/><path d="M949.12,235.47c-25,15.83-49.64,32.19-73.45,49.78-3.54,2.62-3,4.6-1,7.84,8,13.08,15.69,26.3,23.39,39.54,2,3.42,3.69,5.59,8.3,3.27q22-11,44.35-21.25c4.42-2,4.73-3.82,2.44-8-6.17-11.21-11.47-22.91-17.73-34.07-2.93-5.24-3.63-8.55,2.49-11.8,6.27-3.33,12.08-7.56,18-11.53,2-1.32,4.6-2.15,4.84-4.47C961.06,238.29,953.65,232.6,949.12,235.47Zm-25.69,72.86c-3.14,2-5,1-6.53-2.25-2.64-5.42-5.23-11-8.64-15.9-4.45-6.45-1-9.25,4.13-12.34,6.83-4.08,6.9,2.61,8.66,5.47,3.52,5.73,6.23,12,9.26,17.94C930.34,306.06,926.24,306.56,923.43,308.33Z" fill="#025fab"/><path d="M331.22,138q-20.46-38.63-40.31-77.56c-2.42-4.76-4.63-6.59-9.77-3.71-7.76,4.35-15.77,8.26-23.7,12.3-6.57,3.34-9.59,6.91-3.73,14.15,4.65,5.74,7.52,12.88,11.49,19.2,8.2,13.1,8.29,13,22.51,5.74,1.25-.64,2.46-1.38,4.44-2.49,4.11,1.19,4.28,5.69,6.31,8.64,2.71,3.94.07,5.08-2.7,7.27-4.36,3.45-14.13,3.41-10.51,12.89,10.17,26.68,19.7,29.48,43.4,13.82C333.31,145.19,333.72,142.75,331.22,138ZM277.44,92.37c-5.16-.69-6.49-6-7.6-10.17s3.15-5.56,5.93-5.27c5.41.56,5.81,6.21,8.28,9.89C283.39,90.65,279.9,92.7,277.44,92.37Z" fill="#025fab"/><path d="M176.54,260.7c-24.16-15.73-48-31.89-72-47.89l-4.85-3.25c-3.39.61-4.67,2.93-6,4.93-4.79,7.07-9,14.53-14.16,21.34-5.66,7.51-3.33,11.79,4.31,15.52,6.06,3,11.72,6.72,17.54,10.15,14.35,8.45,14.45,8.53,23.17-5.42,2.33-3.72,3.82-6.4,8.79-3,4.1,2.82,8.46,4.64,4,10.32-8.08,10.21-4.7,16.85,6.42,21.3,1.62.65,3,2,4.44,2.95,15,9.86,12.67,11,22.37-3.57,2.76-4.15,5.45-8.35,8.42-12.35C182.43,267,181.73,264.07,176.54,260.7Zm-70.37-13.61c-4.08-1-9.45-2.1-10.16-7.57-.35-2.65,1.44-5.33,5.13-5.92,3.46,2.22,9.46,1.6,10.17,7.29C111.66,243.7,110.14,248.06,106.17,247.09Z" fill="#025fab"/><path d="M752.27,985.5c-5.65-13-13.18-25.16-18-38.6-5.72-12.12-9.41-19.84-16.5-32.69-2.15-3-4.3-5.84-8.59-3.17-4.68,2.91-.53,5.82.37,8.16,2.26,5.89,5.13,11.51,5,18C710.92,932.32,708.2,927,705,922c-1.74-2.69-1.7-8.68-7.85-5.32-5.3,2.91-1.47,6.32-.23,9q16.83,36.23,34.15,72.22c1.47,3.08,3.06,7.67,7.07,6.78,5.38-1.2,1.47-4.25,0-8h0l-10.26-20.32h0c-1.93-3.84-5.54-7.07-4.85-12.6,4.82,3.43,5.77,8.45,8.16,12.56l9.29,19.31h0c1.69,2.62,2.49,6,6.42,5.42,1.95-2.86-.5-5.48-1.27-8.45-.43.25.13-.06,0,0L735.3,972.2h0c-1.93-3.84-5.54-7.07-4.85-12.6,4.82,3.43,5.77,8.45,8.16,12.56l8.2,17.05c2.8,3.51,3.45,10.14,7.45,8.06C759.38,994.61,753.85,989.13,752.27,985.5Z" fill="#025fab"/><path d="M330.89,1002.9c6.27-12.72,10.66-26.33,17.81-38.67,5.55-12.2,9-20,14.26-33.73.88-3.57,1.67-7-3.14-8.6-5.25-1.69-4.78,3.36-6,5.56-3,5.53-5.46,11.35-10.49,15.53,1.36-6,3.68-11.55,5.41-17.26.93-3.07,5.52-6.92-1-9.43-5.65-2.17-5.77,3-7,5.63q-16.74,36.27-33,72.76c-1.4,3.12-3.88,7.29-.6,9.78,4.39,3.33,4.19-1.63,6.1-5.21h0l8.86-21h0c1.68-4,1.81-8.8,6.47-11.85.51,5.89-2.71,9.87-4.3,14.35l-8.72,19.58h0c-.9,3-3,5.77,0,8.4,3.45-.36,3.86-3.93,5.62-6.43-.46-.17.13.06,0,0l8.86-21h0c1.68-4,1.81-8.8,6.47-11.85.51,5.89-2.71,9.87-4.3,14.35q-3.86,8.64-7.7,17.29c-.87,4.41-5.5,9.19-1.33,10.89C328.53,1014.21,329.13,1006.46,330.89,1002.9Z" fill="#025fab"/><path d="M140.59,883.49c10.76-9.25,20.14-20,31.55-28.58,9.89-9,16.16-14.86,26.35-25.43,2.21-2.94,4.31-5.83.48-9.15-4.17-3.61-5.71,1.21-7.69,2.77-4.95,3.9-9.48,8.3-15.74,10.17,3.61-5,7.91-9.18,11.75-13.76,2.06-2.46,7.79-4.2,2.76-9.07-4.34-4.21-6.48.47-8.65,2.43q-29.62,26.79-58.88,54c-2.51,2.32-6.43,5.19-4.39,8.76,2.73,4.78,4.49.15,7.65-2.4h0l16.38-15.81h0c3.1-3,5.12-7.39,10.6-8.36-1.85,5.62-6.37,8-9.59,11.51l-15.7,14.59h0c-2,2.39-5,4.15-3.27,7.73,3.31,1,5.09-2.1,7.69-3.71-.36-.34.09.11,0,0l16.38-15.81h0c3.1-3,5.12-7.39,10.6-8.36-1.85,5.62-6.37,8-9.59,11.51l-13.86,12.88c-2.53,3.71-8.66,6.3-5.5,9.5C134,893,137.59,886.08,140.59,883.49Z" fill="#025fab"/><path d="M361.37,1012.59c5.5-13.07,9.08-26.92,15.48-39.66,4.81-12.51,7.83-20.51,12.23-34.52.67-3.62,1.25-7.14-3.65-8.4-5.34-1.37-4.57,3.63-5.64,5.91-2.69,5.7-4.78,11.66-9.55,16.12,1-6.09,3-11.75,4.37-17.56.74-3.12,5.1-7.23-1.58-9.35-5.77-1.83-5.59,3.31-6.65,6q-14.55,37.2-28.6,74.59c-1.21,3.19-3.44,7.51,0,9.8,4.58,3.06,4.08-1.88,5.78-5.56-1.29-.52.43.17,0,0l7.6-21.46h0c1.44-4,1.28-8.9,5.76-12.21.85,5.85-2.12,10-3.44,14.58q-3.76,10-7.54,20.06h0c-.72,3-2.61,5.94.52,8.38,3.42-.57,3.62-4.15,5.23-6.75-.47-.14.13,0,0,0l7.6-21.46h0c1.44-4,1.28-8.9,5.76-12.22.85,5.85-2.12,10-3.44,14.58l-6.66,17.71c-.6,4.45-4.94,9.5-.68,10.95C359.69,1024,359.83,1016.24,361.37,1012.59Z" fill="#025fab"/><path d="M650.41,1021.73c-11.5-19.68-11.72-40.56-14.1-61.87-1.64-3-.08-1.89-1.95-4.91a30.48,30.48,0,0,0-1.12-5.19c-2.23-7.85-7.81-9.61-14.7-7.18-7.8,2.74-3.45,9.08-2.56,13.46,5,24.71,10.58,49.31,16,73.93.77,3.48-.16,9.38,5.75,7.94,4.59-1.12,2.17-6.09,1.79-9.33-1-8.5-5.81-16.33-5-27.91,3.38,9.79,5.37,17.34,8.63,24.31,1.88,4,0,13.71,8,10.53C657.24,1033.1,652.69,1025.63,650.41,1021.73Zm-19-43.11a2.76,2.76,0,0,1-2.55.55c-3-2.89-2.68-7-3.32-10.66-.35-2-.9-4.15.62-6,2.45-.26,3.9,1.13,4.84,3.13C633,969.87,633.7,974.26,631.42,978.62Z" fill="#025fab"/><path d="M541.45,959.65a6.72,6.72,0,0,0-1.3-2.88c-3-4-7.55-3.74-11.73-3.32-5,.5-3.22,4.8-3.25,7.63-.17,13.52-.07,27-.07,40.55h-.52c0,13.52-.15,27,.11,40.55.06,3.28-2.57,8.51,4.06,9,5.36.36,11-1,12-6.6A261.7,261.7,0,0,0,541.45,959.65ZM533.58,1027V978.16C540.34,994.42,536.67,1010.69,533.58,1027Z" fill="#025fab"/><path d="M1002.22,715.56c-13.72-4.42-28.6-4.34-41.32-13-10.55-7.22-23-11.16-35.72-13.43-6.85-1.22-9.65,3.24-11.63,8.53-2.23,5.95,3.33,6.59,6.37,7.79q39.15,15.33,78.58,30c2.72,1,7.13,2.6,8.21-1.51,1-3.79-3.32-4.72-6.29-5.79L975,718.89c9.07-1.46,16.75,2.66,24.88,4.7,4.43,1.11,10.64,4,12.11-1.51C1013.75,715.53,1006,716.78,1002.22,715.56Zm-68.51-12.18c9.48-5.3,15.15-3.08,17.45,6.42Z" fill="#025fab"/><path d="M422.2,940.66c-5.09-1.29-7.19,1.89-8.31,6-7.51,27.07-16,53.86-21.77,81.4-.42,2-2.07,5.35,1.31,6.44,3.88,1.25,4.44-1.92,5.23-4.81,2.59-9.44,5.4-18.81,8.12-28.21,2.28,7.9-1.18,14.83-2,22.11-.55,5-6,12.87,2.31,14.11,6.31.95,5.18-7.9,5.85-12.59,2.35-16.48,3.26-33,12.35-48,4.69-7.75,5.29-17.61,5.38-27C430.73,944.35,427.1,941.9,422.2,940.66Zm-9.67,39.56c1.75-7.74,1.94-13.68,5.87-18.75C422.83,968.84,421.49,974,412.53,980.22Z" fill="#025fab"/><path d="M923,862.62c-3.93-3-8.13-5.73-12.25-8.52-9.59-6.5-20-11.31-27.1-21.73-6.94-10.2-17.12-18.08-28.49-23.74-5.59-2.78-10.33-1.6-14.13,3.36-4.6,6,1.2,7.9,4.27,10.9,1.25,1.22,2.39,2.55,3.57,3.83a3.79,3.79,0,0,0,3.08,2.91c18.75,13.85,35.95,29.52,53.39,44.93,2.76,2.44,6.37,7,9.71,3.43,3.75-4-2-6.29-4.39-8.89a28.22,28.22,0,0,0-2.41-2.07c-5.14-5-8-8-11.14-11.33,4.32,2.16,7.54,4.88,13.71,9,2.43,1.45,4.81,3,7.32,4.33s5,3.13,7.31-.49C927.57,865.22,924.73,863.94,923,862.62ZM858.9,825.45c8.52-3.48,14.1.91,14.22,12Z" fill="#025fab"/><path d="M208.7,831.31c-2.68-1.86-4.63-.35-6.52,1.48q-28.32,27.42-56.61,54.87c-2.66,2.59-6.21,5.23-2.15,9.74,3.65,4,7.54,7,12.88,3.76,4.21-2.58,8.55-5.42,11.77-9.07,12.62-14.33,25.3-28.54,40.46-40.32a15.54,15.54,0,0,0,5.94-10.95C214.7,836.33,212,833.61,208.7,831.31Zm-43.31,53.56c-1.55.64-3.3,1.27-4.78-.36-.61-2.61,1.53-3.8,3-5,2.61-2.12,4.1-5.93,8.16-5.87.49,0,1.43,1.49,1.35,2.19C172.61,880.53,169.46,883.18,165.39,884.87Zm19.84-23.67c2.47-7.4,7.09-10.17,12.78-11.75C196.47,855.81,193,859.94,185.23,861.2Z" fill="#025fab"/><path d="M331.25,908.22c-3.4-1.29-6.1.92-8.57,3-8.28,7.09-13.25,16.68-18.36,25.9-8.92,16.1-18.33,32.15-21.39,50.74-.55,3.33-1.85,7.7,2,9.69,4.26,2.18,7.12-1.33,9.88-4.15,11.65-11.84,19.08-26.41,25.9-41.19,5.3-11.49,11.69-22.71,13.14-35.69C333.65,913.55,335.26,909.74,331.25,908.22Zm-35.38,67.49c4.73-17.17,10.58-33.74,24.51-46C316.1,947.08,311,964,295.87,975.71Z" fill="#025fab"/><path d="M246.27,866.16c-1.6-6.45-8.92-9.67-12.5-5.38q-25.64,30.72-50.91,61.74c-1.67,2-4.93,4.53-2.17,7.3,3.44,3.45,5.38-1.31,8-2.51,4.75-7.25,9.33-14.63,16.43-20a60.92,60.92,0,0,1-14.27,22.53h0c-1.26,3-3,6.14.46,8.61,3.11,2.22,4.68-.86,5.73-2.79,10.27-18.86,24.52-34.34,40.24-48.72,3.05-2.79,4.91-6.92,7.18-10.52A12.93,12.93,0,0,0,246.27,866.16Zm-26.88,25.9c2.34-7.9,5.36-12.18,11.64-15.1C231.89,885.43,227.31,888.57,219.39,892.06Z" fill="#025fab"/><path d="M109.72,673.46c-1.85-3,2.09-11.49-8.08-8.53C76.76,672.19,51.77,679,26.86,686.2c-2.43.7-6.29.6-6,4.73.28,3.92.95,7.79,5.11,9.91a14.2,14.2,0,0,0,11.44.95c18.94-7.36,38.87-10.7,58.54-15.15,3.39-.77,6.52-2.82,9.66-4.48S110.31,677.88,109.72,673.46ZM42.6,693.76c-2.13.2-5-1-3.9-3.44,2.07-4.66,7.49-2.82,11.25-4.39,1.91-.8,3.28.51,3.48,2.89C51.06,692.92,46.75,693.36,42.6,693.76Zm27.61-9.93c5-6.72,11.31-5.49,17.53-7.62C83.67,684.21,81.12,685.28,70.21,683.83Z" fill="#025fab"/><path d="M257,879.31c-8.38,4.63-13.59,12.3-18.55,20.18-9.84,15.62-20.52,30.82-25.87,48.77-1.15,3.86-2.84,9.09,1.46,11.75,4.48,2.79,7.74-1.46,10.9-4.28,9.4-8.41,16.38-18.79,22.67-29.47,7.89-13.4,16-26.87,18.3-42C266.08,877.32,263.28,875.86,257,879.31Zm-29.81,58.31c5.66-16.16,11.78-32,26.51-42.32C248.78,911.83,241.83,927.12,227.22,937.62Z" fill="#025fab"/><path d="M106.49,652.54c-.46-3.78-3.29-4.2-6.34-4-1.78.1-3.55.37-5.32.57v0c-15.6,1.49-31.22,2.88-46.8,4.51q-12.21,1.27-24.33,3.28c-3.06.51-8.43-.94-7.94,4.46.51,5.59,5.29,2.94,8.53,2.79,1.42-.07,2.83-.33,4.25-.51,2.89-.37,3.57,1.55,4,3.8.51,2.41.06,4.18-2.65,4.81-2.08.48-4.12,1.2-6.22,1.54-3.3.54-5.44,2-4.66,5.66,1.08,5,4.21,2.15,6.59,1.44q25-7.44,50-15c8.82-2.69,17.58-5.58,26.38-8.35C104.56,656.75,106.89,655.77,106.49,652.54Zm-53.69,9.9c3.6-5,8.23-2.46,12.37-2C61.36,661.81,58,665.92,52.8,662.44Z" fill="#025fab"/><path d="M860.35,926.31c-7.78-10-15.57-20-23.53-29.92-.64-.79-2.88-1.13-3.89-.65-4.95,2.38-6.43-1.75-8.08-4.47-2.57-4.22-4.37-8.9-6.63-13.32a71.8,71.8,0,0,0-13.6-19c-2.4-2.34-5.81-5.12-9.47-2.63-3.43,2.33-1.31,6-.41,8.84,1.82,5.82,5.35,10.66,9.24,15.38,5.15,6.25,11.72,11.39,14.54,19.53,4.66,13.44,14.22,23.67,23.63,33.84,2.74,3,6,6.91,10.77,5.69,5.39-1.38-4.09-16,8.22-10.26C860.72,927.66,860.75,926.82,860.35,926.31Zm-56.47-56.82c7,3.06,7,3.06,9.41,12.51C808.33,879,805.78,874.65,803.88,869.49Zm24.42,37.69c7.78,4.82,14.12,7.52,15.87,17C835.47,921.39,833.11,914.88,828.3,907.18Z" fill="#025fab"/><path d="M118,703.58c-2.9-3.75-5.94-.64-8.56.44-23,9.45-45.81,19.18-68.79,28.6-4.23,1.73-6.79,4-5.68,8.67,1.23,5.21,4.71,7.75,11,7.42.53-.13,1.91-.48,3.29-.8,21.25-5,40.69-14.56,59.78-24.77,3.61-1.93,6.61-5.39,9.22-8.68S120.68,707.05,118,703.58ZM57.9,737l-1.6-3.61L99.22,715l1.65,2.63C88.68,729,73.58,733.65,57.9,737Z" fill="#025fab"/><path d="M885.62,899q-30.78-28-61.9-55.58c-2.45-2.18-5.61-6.35-9-3-4,3.93,1,7,3.14,9.67q20.42,26,41.26,51.6c4.25,5.24,8.92,10.14,13.58,15a4.78,4.78,0,0,0,3.85,1.11c1.47-.32,1.69-2,1.28-4.26a15.61,15.61,0,0,1-1.58-3.09c-1-3.35-8.19-5-4.1-9.2,5.09-5.16,6.4,2.9,9.7,4.45,2.3,1.07,4.72,3.15,6.67,1C891.78,903.06,887.64,900.85,885.62,899ZM842.37,870c8.34,3.86,11.74,8.36,16.26,15.55C849.32,883,847.29,877.28,842.37,870Z" fill="#025fab"/><path d="M114.94,691.41c-1.82-4.8-6-2.35-9.22-1.59-24.16,5.72-48.32,11.46-72.41,17.49-2.67.67-7.88.49-7.09,4.65,1,5.14,5.41,2.83,7.28,2.33,4.15-1.33,6.82-1,7.76,1.78,1.3,3.76-1.8,5-4.63,5.56-3.84.69-6.56,3.33-5.35,6.42,1.82,4.63,5.48.8,8.07-.08,23.95-8.09,46.85-18.71,69.74-29.36C112.19,697.16,116.76,696.24,114.94,691.41ZM58.22,709.82c6.71-4.42,12.1-4.9,17.78-4.58C71.55,709,66.85,712,58.22,709.82Z" fill="#025fab"/><path d="M172.55,803c-21.08,14.62-42.17,29.23-63.14,44-2.62,1.85-7.82,3.84-4.84,7.87s6.06-.52,8.91-2.24c2-1.2,4-3.73,6.54-1.07,3.42,3.56-1,4.69-2.32,6.73-.93,1.5-2.32,2.71-3.33,4.17s-1.64,3.37.27,4.61c1.73,1.12,3.39.21,4.73-1.08q29.16-28.07,58.29-56.17c1.72-1.67,4.08-3.05,4.12-6.1C179.24,797.85,175.77,800.79,172.55,803Zm-30.51,34c-1.41,1.46-3.24,3.42-5.23,1.21-1.46-1.62,0-3.29,1.45-4.36,5.44-4.06,10.94-8,16.42-12l.69,1C150.93,827.61,146.54,832.39,142,837.06Z" fill="#025fab"/><path d="M119.26,724.29Q90.82,736.5,62.45,748.86c-5.54,2.41-11.05,4.89-16.48,7.53-1.61.78-2.89,2.37-2.1,4.36s2.61,2.3,4.45,1.74c1.69-.52,3.29-1.36,4.93-2,2-.86,4.57-1.69,5.87.36,1.66,2.63-.64,4.65-2.53,6.26a29.76,29.76,0,0,1-4.47,2.9c-2.22,1.28-4.76,2.52-2.79,5.64s4.17,1.08,6.26-.26q33.8-21.57,67.61-43.12c2-1.28,4.71-2,5-4.88C126.91,720.92,122.92,722.72,119.26,724.29Zm-41.7,27.27C82.37,745,89.89,743.71,96.69,741,91.29,746.32,85.21,750.39,77.56,751.56Z" fill="#025fab"/></g></g></svg>