<svg xmlns="http://www.w3.org/2000/svg" viewBox="0 0 810.39 670.69"><g id="b17391f6-51bd-4c6b-9c4d-657e93bf4e46" data-name="Layer 2"><g id="ea31f279-cad1-42db-a8b3-4ef517091f1d" data-name="Layer 1"><path d="M348.86,670c-69.35-4.87-127.4-36.28-180.14-78.38C107.06,542.37,68.29,478.48,53.56,400.85c-11.3-59.54-6.71-118.65,6.6-177.4,1.44-6.35,5.51-5.31,9.6-5.31q39.27-.06,78.55,0,51.54,0,103.09,0c3.14,0,6.5-1,10,1.4a285.41,285.41,0,0,0-28.88,72.82c-23.93,98.9,37.2,174.8,122.15,197.18,19.7,5.19,39.77,7.2,60,7.21q192.45.11,384.89.06c3.59,0,7.18.29,10.77.45v2c-7.9,54.6-25.93,106.87-37.17,160.7-1.54,7.35-5.19,10.76-13.52,10.74q-202.51-.36-405-.18C352.73,670.5,350.75,670.69,348.86,670Z" fill="#943037"/><path d="M546.46,452.15c14.65-26,24.93-51.7,30.75-79.28,19.87-94.17-36.15-164-112.29-188.62A216.7,216.7,0,0,0,397.54,174c-129.26.15-258.51,0-387.77.24-9.24,0-11.29-1.37-8.79-11.1C14.15,111.83,26.56,60.38,38.91,8.92,40.57,2,43.56,0,50.72,0Q250,.36,449.28.17c51.7,0,97.49,19,141.06,44.32,68.13,39.62,119.51,94.33,148.49,168.26,20.1,51.28,25.47,104.64,21,159.3a526.62,526.62,0,0,1-10.72,71.39c-.9,4.06-.55,8.88-7.62,8.85C677.1,452.05,612.65,452.15,546.46,452.15Z" fill="#943037"/><path d="M403.72,454.75c-67.26,0-120.07-52.6-120-119.56,0-66.7,53.25-119.79,120.06-119.76S523.49,268.76,524,335.22C524.45,402.73,466,457.14,403.72,454.75Z" fill="#cba865"/></g></g></svg>