<svg xmlns="http://www.w3.org/2000/svg" viewBox="0 0 975.22 975.6"><g id="e2f39124-3136-4a2f-8ba2-81309394af87" data-name="Layer 2"><g id="e8587f47-fceb-412d-af5f-af2d2582fc45" data-name="Layer 1"><path d="M965.25,390.45C913.53,136.09,665.72-41.66,396.54,8.49,181.28,48.59,11.85,236.74,0,454.76q0,30.81.07,61.62a458.25,458.25,0,0,0,15.39,96.23c56.15,208.93,229.14,348.33,450.4,363H507.8A561.33,561.33,0,0,0,568.3,969C839.22,924.61,1020.65,662.9,965.25,390.45ZM485.59,84.23c118-36,236.28,14.71,311.57,102.16-41.19-10.64-78.69-23.12-117.62-29.68-67.37-11.35-130.68,1.89-190.46,33.35C458.88,206,428,221.32,400.23,240.9c-30.7,21.64-62.78,26.68-100.8,19.54C331.61,169.75,395.19,111.78,485.59,84.23ZM691.93,590.07c.1,11.68-4.31,18.95-14.23,24.46-20.54,11.41-40.83,23.27-61.06,35.22-9.2,5.44-17.7,5.56-27,0-15.93-9.5-32.27-18.29-51.22-29,33.67-9.33,42.15-31.41,40.69-60.66-1.15-22.94.29-46-.25-69-.23-9.73,2.76-13.21,12.72-12.88,19.77.66,39.59-.13,59.37.34,8.16.19,11.41-2.09,11.09-10.73-.6-16-.52-32.1,0-48.13.24-7.76-2.46-10.12-10.07-10-20.32.43-40.65.27-61,.06-5.22-.05-9.36,1.33-12.58,5.45-1,1.25-2.31,2.23-3.32,3.47-15.65,19.27-41.52,32.36-47.51,56.58-5.73,23.19-2.23,49-.91,73.49.81,15-4,19.54-18.58,18.34-15.41-1.26-31-.76-46.51-.1-9.09.39-12-2.5-11.83-11.7.56-24.59-.14-49.21.38-73.81.17-8.22-2.41-14-8.23-19.61q-22-21.14-43-43.25c-5.91-6.23-12-9.32-20.87-9-18.16.67-36.38.68-54.55,0-9.38-.35-11.91,3-11.52,11.92.65,14.95.62,30,0,44.92-.35,8.65,2.92,11,11.13,10.79,19.25-.48,38.57.75,57.75-.46,13.27-.84,16,4.09,15.47,16.21-1,23-.39,46-.7,69-.52,38.14,3.1,43.82,39.8,58.18-20,11.4-38.16,21.51-56,32.11-6.45,3.82-11.95,3-17.93-.52-21.67-12.65-43.43-25.16-65.12-37.78-9.58-5.57-14.05-13.63-14-25.07.23-75.95-.43-151.9.32-227.84.41-41.37,22.72-55.79,60.88-40.57,11.32,4.52,20.68,2.08,30.33-3.58,30.4-17.83,61.27-34.92,91.16-53.57,15.71-9.8,28.9-9.22,44.43.35,29.09,17.91,59.27,34,88.73,51.35,11.51,6.76,22.76,7.33,35.28,3.4,34.42-10.82,55.19,3.29,58.34,38.93,2.92,33.14,0,66.29.19,99.43C692.27,501.3,691.54,545.69,691.93,590.07ZM549.79,688.22c-19.41,11.2-36.85,21.31-54.33,31.34a15.87,15.87,0,0,1-16.72.08c-17.5-10-35-20.15-54.72-31.54,20.15-11.43,38.39-21.75,56.62-32.11,6-3.4,11.23-1.26,16.51,1.81C513.71,667.43,530.32,677,549.79,688.22Zm-417-383.9C154,184.36,262.3,83.24,389.66,67c-27.24,20.53-51.39,39-72.16,61.36-57.39,61.86-86,135.65-88.29,219.23-1.79,66.75-.6,133.57-.72,200.37,0,5.76,0,11.52,0,17.84C170.82,530,111.92,421.88,132.76,304.32ZM74,358.94c4.25,48.33,12.64,92.14,30.93,133.66,30.7,69.69,81.78,120.3,146.93,157.87Q329.5,695.25,407.18,740c5.87,3.39,11.54,7.11,18.14,11.2-78.21,39.71-206.11,14.37-280.63-53.39C47.34,609.28,32,475.87,74,358.94ZM473.23,896c-100.17,24.46-258.65-32.18-296.4-106.64,10.28-.94,18.72,4,27.2,7.24,108.91,42,212.89,33.29,312.83-27.89,47.32-29,96-55.68,144.11-83.37,7.24-4.17,14.6-8.12,22.63-12.57C684.61,762.91,583.8,869,473.23,896ZM834.49,699.47C803.77,807.29,697.13,897.28,588.7,907.14c3.4-6.82,10.28-9.22,15.62-13.22,91.75-68.59,139.23-159.86,140.29-274.6.58-63.1.2-126.21.25-189.31V411.49C832.48,486.29,866.85,585.92,834.49,699.47Zm66-90.12c-4.93-47-15.2-92.47-36-135.31A324.82,324.82,0,0,0,763,352.22a74.27,74.27,0,0,1-25.34-31.93c-16-37.2-44.26-61.12-85.59-57.4-42.82,3.86-72.22-20.18-106.67-38.95C640.7,190.5,748.81,203.05,832,281.79,930.6,375.14,938.14,487.32,900.52,609.35Z" fill="#0e76bc"/></g></g></svg>