<svg xmlns="http://www.w3.org/2000/svg" viewBox="0 0 64 51.42">
  <defs/>
  <defs>
    <mask id="a" width="64" height="35" x="0" y="0" maskUnits="userSpaceOnUse">
      <g data-name="mask-2">
        <path fill="#fff" fill-rule="evenodd" d="M64 35H0V0h64v35z" data-name="path-1"/>
      </g>
    </mask>
  </defs>
  <g data-name="Layer 2">
    <g data-name="Layer 1">
      <g mask="url(#a)">
        <path fill="#2bde73" fill-rule="evenodd" d="M46.42 28.79a11.3 11.3 0 110-22.59h.14a11.29 11.29 0 01-.14 22.58zm-28.88 0h-.14a10.66 10.66 0 11.14 0zM64 0H46.42A17.54 17.54 0 0032 7.57 17.56 17.56 0 0017.54 0H0v6.21h4.15a17.43 17.43 0 000 22.58H0V35h17.54A17.53 17.53 0 0032 27.43 17.56 17.56 0 0046.42 35H64v-6.21h-4.19a17.43 17.43 0 000-22.58H64z" data-name="Fill-1"/>
      </g>
      <path fill="#081245" fill-rule="evenodd" d="M38.16 36.6a4.58 4.58 0 00-.64 0 5.82 5.82 0 00-3.74 1.93l-.47.52-.46-.52a5.9 5.9 0 00-4.38-2h-6.28v2.1h1.66l-.52.94a5.94 5.94 0 000 5.78l.52.93h-3.74a3.82 3.82 0 01-3.8-3.82V36.6h-2.09v5.93a5.88 5.88 0 005.68 5.92h8.57a5.9 5.9 0 004.38-2l.46-.52.47.52a5.86 5.86 0 003.74 1.93h6.92v-2.03h-1.66l.52-.93a5.94 5.94 0 000-5.78l-.52-.94h1.66v-2.1zm-3.8 5.93a3.82 3.82 0 013.8-3.83A3.82 3.82 0 0142 42.53a3.81 3.81 0 01-3.8 3.82 3.81 3.81 0 01-3.8-3.82zm-9.69 0a3.82 3.82 0 013.8-3.83 3.82 3.82 0 013.8 3.83 3.81 3.81 0 01-3.8 3.82 3.81 3.81 0 01-3.8-3.82z" data-name="Fill-1"/>
      <path fill="#081245" fill-rule="evenodd" d="M10.38 36.6v7.5a2.23 2.23 0 01-2.21 2.25h-3.9a2.23 2.23 0 01-2.21-2.25v-7.5H0v7.5a4.33 4.33 0 004.27 4.36h3.9a4.32 4.32 0 004.27-4.36v-7.5z" data-name="Fill-3"/>
      <path fill="#081245" fill-rule="evenodd" d="M5.33 51.42H7.7v-2.37H5.33v2.37z" data-name="Fill-5"/>
      <path fill="none" d="M3.56 50.23h2.37v-.59H3.56v.59z" data-name="Fill-9"/>
      <path fill="none" d="M52.15 50.23h5.33v-.59h-5.33v.59z" data-name="Fill-13"/>
      <path fill="#081245" fill-rule="evenodd" d="M58.35 36.6v7.5a2.24 2.24 0 01-2.24 2.25h-4v-3.82a5.93 5.93 0 00-5.27-5.9v2.12A3.83 3.83 0 0150 42.53v3.82h-3.19v2.11h9.3a4.35 4.35 0 004.33-4.36v-7.5z" data-name="Fill-17"/>
      <path fill="#081245" fill-rule="evenodd" d="M52.15 51.42h5.33v-2.37h-5.33v2.37z" data-name="Fill-19"/>
      <path fill="#081245" fill-rule="evenodd" d="M61.63 48.46H64V36.6h-2.37v11.86z" data-name="Fill-21"/>
    </g>
  </g>
</svg>
