<?xml version="1.0" standalone="no"?>
<!DOCTYPE svg PUBLIC "-//W3C//DTD SVG 20010904//EN"
 "http://www.w3.org/TR/2001/REC-SVG-20010904/DTD/svg10.dtd">
<svg version="1.0" xmlns="http://www.w3.org/2000/svg"
 width="852.000000pt" height="852.000000pt" viewBox="0 0 852.000000 852.000000"
 preserveAspectRatio="xMidYMid meet">
<metadata>
Created by potrace 1.14, written by Peter Selinger 2001-2017
</metadata>
<g transform="translate(0.000000,852.000000) scale(0.100000,-0.100000)"
fill="#000000" stroke="none">
<path d="M494 8205 c-66 -14 -185 -67 -205 -91 -6 -8 -16 -14 -22 -14 -6 0
-43 -33 -82 -74 -49 -51 -83 -97 -107 -148 -38 -76 -51 -106 -54 -123 -1 -5
-3 -12 -4 -15 -10 -28 -14 -72 -14 -165 1 -93 5 -122 28 -189 28 -82 92 -190
142 -240 56 -56 145 -115 222 -147 l78 -31 0 -2742 c1 -2556 2 -2743 18 -2773
9 -18 14 -33 10 -33 -10 0 66 -91 127 -150 50 -49 168 -158 230 -211 13 -11
35 -30 49 -42 14 -12 55 -47 90 -77 36 -30 67 -57 70 -60 3 -3 79 -68 170
-145 91 -76 172 -146 181 -154 9 -9 27 -25 40 -35 47 -38 164 -142 211 -188
53 -51 85 -66 139 -63 55 3 96 34 184 140 44 53 89 107 100 119 11 12 36 42
55 66 19 24 43 52 53 62 9 10 17 22 17 27 0 5 4 11 9 13 5 1 46 48 91 103 45
55 87 105 93 110 7 6 24 26 39 45 15 19 38 49 53 65 14 17 42 50 63 74 20 24
42 49 47 55 6 6 33 38 60 71 28 33 59 69 70 81 11 11 43 47 70 79 28 32 55 63
60 69 6 6 37 43 70 81 33 38 67 77 75 86 8 8 38 42 65 74 28 32 64 73 80 91
17 18 48 54 70 79 22 26 52 60 66 76 14 15 48 54 75 85 27 32 63 72 79 90 17
18 53 59 80 90 28 32 59 68 70 80 11 12 43 48 71 80 29 33 62 71 75 85 13 14
49 55 79 90 30 35 62 70 70 79 8 9 44 49 80 90 36 41 74 84 85 96 11 11 45 50
76 85 31 35 78 89 105 119 26 30 55 63 64 74 8 10 26 30 40 45 14 14 54 59 90
100 36 41 72 82 80 91 8 9 42 47 75 85 33 37 67 75 75 85 8 9 40 45 70 80 30
35 64 72 75 84 11 12 49 55 85 96 35 41 69 80 74 86 10 10 42 46 151 172 22
25 47 53 55 62 40 42 127 158 136 180 5 14 9 50 7 80 -1 30 -5 305 -8 610 -4
305 -7 588 -8 629 -2 79 5 99 39 105 27 5 138 61 166 84 174 139 260 316 259
527 -1 39 -3 79 -5 90 -35 171 -98 278 -227 390 -99 85 -240 137 -384 140
-101 2 -186 -16 -278 -58 -64 -30 -181 -113 -199 -141 -3 -6 -18 -24 -32 -41
-55 -63 -116 -205 -131 -303 -9 -57 -9 -188 0 -202 4 -6 9 -26 11 -43 6 -38
56 -146 95 -203 29 -42 80 -97 135 -144 36 -31 172 -100 197 -100 33 0 44 -22
43 -89 -1 -34 2 -65 6 -67 4 -3 3 -15 -2 -28 -4 -12 -5 -29 0 -36 5 -7 4 -23
0 -36 -5 -12 -6 -24 -3 -28 3 -3 7 -235 10 -517 l4 -511 -33 -43 c-35 -44
-129 -152 -205 -235 -23 -25 -54 -59 -70 -76 -15 -18 -65 -72 -109 -120 -45
-49 -94 -102 -109 -119 -97 -106 -226 -244 -260 -280 -22 -23 -94 -99 -160
-170 -343 -366 -438 -465 -443 -460 -2 2 -4 176 -4 385 1 371 5 422 32 405 8
-5 166 72 194 95 111 93 168 171 217 297 39 101 45 265 14 376 -16 56 -51 136
-78 177 -32 48 -161 180 -177 180 -4 0 -15 6 -22 13 -23 22 -138 69 -202 82
-71 15 -206 16 -255 3 -18 -5 -41 -11 -51 -13 -28 -5 -124 -47 -141 -62 -8 -7
-19 -13 -23 -13 -4 0 -14 -6 -21 -12 -8 -7 -32 -26 -53 -43 -43 -33 -110 -113
-138 -165 -10 -19 -23 -38 -29 -42 -5 -4 -7 -8 -3 -8 4 0 0 -17 -9 -37 -70
-165 -39 -424 70 -583 71 -103 194 -196 311 -236 26 -9 50 -23 54 -33 5 -12 8
-963 3 -1123 -1 -21 -70 -120 -111 -158 -3 -3 -35 -40 -70 -84 -36 -43 -76
-91 -90 -106 -14 -15 -41 -47 -60 -71 -19 -24 -50 -60 -68 -81 -18 -20 -43
-49 -55 -65 -12 -16 -32 -40 -44 -53 -12 -14 -63 -74 -113 -135 -51 -60 -106
-126 -122 -145 -16 -19 -46 -55 -66 -79 -21 -24 -68 -81 -106 -125 -95 -113
-103 -122 -169 -201 -32 -38 -68 -81 -80 -95 -13 -14 -41 -47 -62 -75 -22 -27
-58 -69 -80 -92 l-40 -44 2 1923 c1 1058 2 1930 2 1939 1 8 21 38 46 65 25 27
72 78 103 113 31 35 68 76 82 91 39 42 118 129 200 220 41 46 93 103 115 126
22 24 67 73 100 110 33 37 71 80 85 95 26 28 49 53 190 209 47 52 99 109 115
126 17 18 59 65 95 105 36 40 78 87 94 104 15 16 60 66 100 109 39 44 82 91
96 107 14 15 57 62 95 105 39 43 87 96 108 118 21 23 51 55 65 72 15 17 65 73
112 124 47 51 108 118 135 149 77 85 97 102 109 92 16 -12 130 -50 174 -58 42
-7 174 -7 212 0 175 33 281 98 407 250 36 43 90 167 106 242 14 64 16 201 4
265 -10 56 -65 188 -87 210 -3 3 -17 21 -31 40 -87 117 -243 216 -374 237 -46
8 -206 8 -250 1 -208 -35 -384 -187 -473 -408 -27 -66 -33 -100 -37 -200 -4
-96 14 -179 59 -276 20 -41 36 -82 36 -88 0 -7 -15 -29 -32 -48 -18 -19 -67
-72 -108 -118 -41 -46 -88 -98 -105 -115 -16 -17 -61 -67 -100 -110 -38 -43
-79 -88 -90 -100 -26 -27 -200 -219 -245 -269 -19 -22 -51 -56 -70 -77 -19
-20 -62 -67 -95 -105 -33 -37 -73 -82 -90 -99 -16 -18 -61 -67 -100 -110 -38
-44 -92 -102 -120 -131 -27 -29 -68 -74 -90 -99 -22 -26 -53 -61 -70 -79 -16
-17 -66 -71 -109 -119 -44 -48 -91 -100 -105 -115 -14 -16 -62 -68 -106 -117
-44 -49 -93 -103 -110 -121 -16 -17 -58 -63 -91 -100 -34 -38 -77 -85 -95
-105 -89 -94 -128 -141 -134 -159 -3 -11 -10 -20 -14 -20 -4 0 -9 -8 -11 -17
-2 -10 -4 -931 -6 -2046 -1 -1116 -4 -2030 -6 -2032 -2 -2 -24 15 -50 38 -25
23 -63 56 -84 72 -21 17 -81 65 -133 109 -141 115 -162 133 -206 170 -22 19
-87 74 -145 122 -120 100 -168 143 -222 198 -37 38 -38 41 -38 110 -2 2221 1
5329 5 5336 3 6 14 10 23 10 20 0 157 68 193 96 104 81 190 202 224 314 23 78
27 105 27 190 0 89 -7 138 -29 205 -70 218 -220 352 -463 416 -66 17 -206 19
-276 4z m201 -309 c91 -22 184 -96 226 -183 18 -39 23 -64 23 -133 0 -73 -4
-92 -27 -138 -59 -113 -154 -174 -277 -177 -94 -3 -162 21 -229 81 -39 35 -79
92 -86 124 -1 3 -5 19 -10 35 -29 102 13 241 95 312 39 35 42 37 88 58 65 28
133 36 197 21z m3713 -10 c234 -83 290 -391 101 -549 -62 -52 -116 -71 -204
-71 -97 -1 -171 29 -233 93 -65 68 -86 121 -86 226 -1 81 2 95 28 142 48 87
141 157 231 175 37 7 120 -1 163 -16z m878 -1296 c113 -55 178 -159 178 -285
0 -39 -4 -80 -9 -91 -4 -10 -9 -21 -10 -24 -14 -60 -99 -150 -170 -181 -156
-69 -355 3 -421 151 -8 19 -19 42 -24 51 -5 10 -8 52 -7 95 4 166 98 272 282
319 36 9 127 -9 181 -35z m-1716 -2011 c91 -30 184 -134 206 -232 9 -40 7
-144 -3 -160 -4 -7 -8 -18 -9 -25 -4 -21 -54 -94 -86 -124 -53 -49 -131 -81
-206 -82 -75 -1 -116 7 -139 26 -9 7 -17 11 -18 8 -4 -13 -97 70 -124 111 -81
124 -62 298 46 402 41 40 112 79 151 83 13 2 27 5 30 8 8 9 111 -2 152 -15z"/>
<path d="M7753 8199 c-35 -9 -63 -15 -63 -13 0 5 -114 -47 -120 -54 -3 -4 -16
-13 -30 -20 -65 -34 -171 -153 -216 -242 -70 -139 -88 -358 -39 -476 8 -19 12
-34 10 -34 -9 0 66 -137 91 -165 14 -16 31 -37 38 -45 36 -49 178 -138 259
-162 21 -6 42 -20 46 -29 8 -24 6 -2537 -2 -2571 -4 -16 -12 -28 -17 -28 -6 0
-10 -5 -10 -11 0 -7 -10 -21 -22 -33 -13 -12 -36 -39 -52 -61 -17 -22 -33 -42
-36 -45 -3 -3 -24 -27 -45 -55 -22 -27 -44 -55 -50 -61 -5 -6 -21 -25 -35 -43
-14 -18 -38 -50 -55 -70 -16 -20 -41 -52 -55 -70 -14 -17 -34 -42 -45 -55 -11
-12 -33 -39 -50 -60 -16 -22 -35 -44 -40 -50 -6 -6 -44 -54 -85 -106 -41 -52
-83 -104 -95 -115 -11 -11 -38 -44 -60 -73 -21 -28 -43 -52 -47 -52 -4 0 -8
-6 -8 -14 0 -8 -4 -16 -8 -18 -4 -1 -35 -37 -67 -78 -33 -41 -63 -77 -66 -80
-3 -3 -34 -41 -68 -85 -35 -44 -78 -98 -96 -120 -18 -22 -59 -72 -92 -111 -87
-106 -120 -146 -216 -268 -49 -61 -101 -127 -117 -146 -16 -19 -51 -64 -79
-100 -28 -36 -54 -69 -59 -75 -26 -33 -178 -221 -182 -225 -3 -3 -41 -50 -84
-105 -43 -55 -85 -105 -92 -111 -8 -6 -14 -15 -14 -20 0 -5 -8 -17 -17 -26
-10 -9 -23 -23 -28 -30 -55 -71 -254 -321 -296 -371 -15 -18 -81 -99 -148
-182 -67 -82 -129 -159 -139 -170 -10 -11 -45 -54 -78 -95 -32 -41 -61 -77
-64 -80 -3 -3 -59 -72 -125 -155 -65 -82 -121 -152 -125 -155 -3 -3 -16 -19
-28 -36 -71 -103 -21 -234 95 -249 77 -10 143 31 204 125 9 14 27 36 40 50 13
14 40 46 59 70 19 25 37 47 40 50 3 3 23 28 45 55 48 60 76 93 93 111 6 7 12
16 12 20 0 3 8 14 18 23 9 9 69 81 132 161 63 80 122 154 131 165 9 11 63 79
120 150 57 72 108 135 114 141 5 6 24 28 40 49 47 59 104 127 136 163 16 18
29 35 29 38 0 3 6 11 13 18 6 7 26 30 42 51 40 51 220 274 245 303 11 13 20
28 20 33 0 5 4 9 8 9 5 0 21 18 38 41 16 22 36 48 45 57 8 9 53 64 99 122 46
58 92 113 102 123 10 10 18 21 18 25 0 5 13 21 28 38 15 16 43 49 62 74 19 25
40 52 47 60 15 16 33 38 85 102 46 58 137 170 151 188 87 108 142 176 147 180
3 3 37 46 75 95 80 105 167 209 178 213 4 2 7 9 7 15 0 7 15 28 33 47 18 19
48 55 67 80 19 25 41 52 49 60 7 8 93 113 190 235 192 240 201 252 216 269 82
93 115 147 133 221 6 25 9 521 8 1338 -1 859 2 1301 9 1306 5 5 33 16 62 25
175 57 337 245 390 451 10 37 12 210 3 250 -22 106 -52 183 -95 244 -5 8 -44
48 -85 90 -74 75 -161 129 -261 160 -89 28 -232 33 -316 10z m247 -317 c25 -9
51 -21 59 -27 106 -81 157 -181 149 -289 -12 -139 -114 -266 -237 -294 -66
-14 -166 -5 -222 21 -89 41 -162 133 -177 222 -12 72 -5 143 21 199 72 156
246 228 407 168z"/>
<path d="M6510 6173 c-66 -10 -176 -46 -226 -75 -68 -38 -160 -121 -200 -180
-16 -24 -31 -45 -34 -48 -10 -10 -48 -96 -65 -145 -16 -47 -23 -95 -25 -175
-3 -136 54 -292 149 -409 75 -91 222 -191 308 -207 18 -3 35 -14 38 -23 4 -14
9 -406 6 -502 -1 -22 -101 -159 -163 -223 -7 -7 -26 -30 -43 -51 -16 -21 -35
-43 -40 -49 -6 -6 -35 -40 -64 -75 -29 -35 -58 -70 -64 -76 -7 -7 -30 -34 -52
-60 -22 -27 -80 -97 -130 -155 -49 -59 -137 -164 -195 -235 -58 -70 -112 -135
-121 -144 -8 -9 -33 -38 -55 -66 -21 -27 -47 -57 -56 -66 -10 -9 -18 -19 -18
-22 0 -4 -13 -19 -28 -35 -16 -16 -62 -69 -103 -118 -41 -49 -78 -94 -84 -100
-10 -12 -30 -36 -139 -166 -133 -161 -170 -203 -178 -206 -4 -2 -8 -10 -8 -17
0 -10 -11 -8 -42 8 -149 73 -367 74 -533 2 -60 -26 -156 -97 -203 -152 -57
-65 -62 -71 -62 -77 0 -3 -11 -22 -25 -42 -14 -20 -22 -40 -19 -45 3 -5 1 -9
-4 -9 -14 0 -52 -150 -56 -215 -11 -212 86 -409 274 -558 43 -34 151 -87 177
-87 11 0 23 -3 27 -7 19 -20 173 -23 265 -6 170 32 334 139 422 273 68 105
101 219 100 339 -2 148 -18 214 -78 313 l-23 37 51 63 c28 35 63 77 77 93 15
17 65 75 111 130 47 55 87 102 90 105 4 3 31 35 60 73 30 37 58 67 63 67 4 0
8 5 8 10 0 6 8 18 18 28 9 10 53 61 97 113 44 52 82 96 85 99 3 3 32 39 65 80
33 41 65 80 71 85 6 6 51 60 100 120 109 135 120 148 164 195 19 21 51 58 70
81 19 24 47 57 61 73 14 17 34 42 45 55 10 12 31 36 45 51 14 16 39 45 55 65
16 21 41 51 55 69 166 196 214 256 228 288 15 32 17 72 14 357 -3 274 -1 321
11 321 8 0 52 19 97 42 119 61 258 202 284 288 4 14 11 30 15 35 21 29 48 191
45 273 -10 262 -201 502 -460 577 -56 16 -197 26 -255 18z m153 -317 c88 -14
183 -91 227 -183 33 -69 33 -189 1 -257 -23 -49 -105 -146 -124 -146 -6 0 -18
-6 -26 -14 -45 -38 -192 -42 -273 -7 -52 22 -138 95 -138 117 0 8 -4 14 -8 14
-17 0 -46 106 -44 165 1 70 3 78 25 125 27 58 56 94 109 135 31 25 94 48 141
51 27 2 52 6 55 8 3 3 8 4 11 2 3 -2 23 -7 44 -10z m-1917 -3587 c211 -100
249 -378 72 -533 -137 -120 -345 -101 -458 40 -120 150 -82 373 81 474 85 52
217 60 305 19z"/>
<path d="M3548 1554 c-2 -1 -19 -3 -38 -5 -19 -2 -41 -7 -47 -12 -7 -5 -13 -7
-13 -4 0 8 -117 -39 -164 -67 -22 -13 -52 -34 -66 -46 -14 -12 -32 -27 -40
-34 -53 -39 -136 -166 -165 -253 -67 -196 -41 -387 76 -563 36 -55 107 -126
164 -166 147 -102 374 -135 541 -79 61 20 152 65 165 81 6 8 15 14 20 14 12 0
109 97 143 143 37 51 83 155 100 225 13 58 14 194 1 267 -30 170 -171 352
-336 433 -46 22 -111 46 -144 52 -53 11 -191 21 -197 14z m186 -354 c62 -28
118 -83 147 -146 35 -73 33 -190 -3 -260 -15 -28 -40 -63 -57 -77 -16 -13 -28
-27 -26 -29 3 -2 -11 -11 -30 -18 -19 -8 -35 -17 -35 -22 0 -4 -3 -7 -7 -6 -5
1 -26 -2 -47 -7 -57 -11 -76 -12 -121 -3 -96 20 -175 81 -217 167 -19 38 -23
62 -23 140 0 66 4 96 13 99 7 2 10 7 8 11 -3 4 12 29 32 57 39 50 124 109 171
117 56 10 147 -1 195 -23z"/>
</g>
</svg>
